<?xml version="1.0" standalone="no"?>
<!DOCTYPE svg PUBLIC "-//W3C//DTD SVG 20010904//EN"
 "http://www.w3.org/TR/2001/REC-SVG-20010904/DTD/svg10.dtd">
<svg version="1.0" xmlns="http://www.w3.org/2000/svg"
 width="1454.000000pt" height="528.000000pt" viewBox="0 0 1454.000000 528.000000"
 preserveAspectRatio="xMidYMid meet">

<g transform="translate(0.000000,528.000000) scale(0.100000,-0.100000)"
fill="#000000" stroke="none">
<path d="M2283 4244 c-28 -43 -33 -134 -8 -134 18 0 20 -17 3 -22 -6 -2 -12
-15 -14 -29 -1 -13 0 -18 2 -11 6 14 34 17 34 3 0 -4 -9 -20 -20 -34 -24 -30
-27 -87 -5 -87 8 0 15 -3 16 -7 3 -36 12 -62 29 -85 34 -46 21 -95 -37 -141
-21 -17 -23 -27 -23 -107 l0 -88 33 9 c162 43 229 65 267 87 105 59 181 110
274 184 55 44 146 106 203 139 92 54 121 79 94 79 -22 0 -89 82 -94 114 -8 48
9 105 41 139 l26 27 -372 0 c-324 0 -372 -2 -372 -15 0 -8 -7 -15 -15 -15 -7
0 -19 -8 -24 -17 -14 -24 -14 2 -1 28 19 35 -13 21 -37 -17z"/>
<path d="M3732 4256 c24 -12 42 -27 41 -34 -2 -6 1 -12 6 -12 5 0 12 -8 14
-17 3 -12 5 -8 6 9 0 15 5 37 10 50 9 24 8 24 -55 24 l-65 0 43 -20z"/>
<path d="M3821 4243 c-14 -51 -14 -63 3 -57 20 8 30 -14 15 -32 -16 -20 4 -35
41 -32 31 4 49 56 33 98 -6 16 -7 34 -1 43 6 12 3 15 -14 14 -13 0 -27 -6 -31
-12 -6 -7 -10 -6 -14 3 -9 22 -22 12 -32 -25z"/>
<path d="M3939 4267 c16 -16 14 -79 -5 -105 -16 -23 -11 -47 8 -36 7 4 7 9 0
13 -6 3 10 6 35 7 25 1 48 6 51 11 9 13 52 -2 52 -18 0 -7 3 -9 7 -6 3 4 -2
16 -12 27 -13 14 -31 20 -62 20 -41 0 -43 1 -37 25 10 39 -2 70 -27 72 -17 2
-19 -1 -10 -10z"/>
<path d="M3624 4234 c-19 -13 -39 -24 -44 -24 -5 0 -7 -6 -4 -13 6 -17 -40
-67 -61 -67 -24 0 -20 -51 5 -57 11 -3 17 -9 14 -14 -3 -5 5 -9 16 -9 16 0 20
-5 16 -15 -3 -10 3 -17 19 -21 20 -5 23 -10 19 -42 -3 -27 -2 -32 4 -17 l9 20
5 -20 c4 -14 6 -11 7 11 1 34 27 64 55 64 9 0 15 4 12 9 -4 5 4 7 16 3 14 -3
19 -2 14 6 -4 7 -13 12 -20 12 -7 0 -26 10 -42 22 -25 19 -27 19 -12 2 16 -19
16 -20 -2 -32 -26 -16 -26 -17 -49 22 -30 49 -26 67 6 23 34 -48 50 -49 18 -1
-14 20 -25 41 -25 46 0 18 21 48 33 48 8 0 7 -4 -3 -11 -12 -9 -12 -10 3 -5
10 3 21 6 23 6 3 0 2 4 -1 10 -3 5 -2 17 3 26 8 14 10 12 16 -11 4 -16 2 -33
-5 -41 -7 -9 -8 -14 -1 -14 6 0 14 5 17 10 9 15 45 12 51 -5 7 -18 74 -21 74
-3 0 6 -3 8 -7 5 -3 -4 -15 7 -25 24 -10 16 -33 36 -51 44 -24 11 -27 14 -11
15 11 0 25 -5 32 -12 6 -6 14 -9 18 -6 9 10 -35 30 -73 33 -23 1 -46 -5 -69
-21z"/>
<path d="M6257 4200 c3 -11 11 -19 17 -17 17 6 13 31 -6 35 -12 2 -15 -2 -11
-18z"/>
<path d="M6604 4211 c3 -5 15 -7 26 -4 28 7 25 13 -6 13 -14 0 -23 -4 -20 -9z"/>
<path d="M6163 4195 c0 -8 4 -15 9 -15 4 0 8 7 8 15 0 8 -4 15 -8 15 -5 0 -9
-7 -9 -15z"/>
<path d="M3315 4191 c-8 -14 33 -34 53 -26 15 6 15 8 -2 21 -23 16 -42 18 -51
5z"/>
<path d="M6318 4133 c5 -57 18 -77 28 -39 6 25 -11 86 -25 86 -3 0 -5 -21 -3
-47z"/>
<path d="M4040 4135 c7 -8 16 -15 21 -15 5 0 9 7 9 15 0 9 -9 15 -21 15 -18 0
-19 -2 -9 -15z"/>
<path d="M6250 4130 c0 -5 7 -10 16 -10 8 0 12 5 9 10 -3 6 -10 10 -16 10 -5
0 -9 -4 -9 -10z"/>
<path d="M4076 4105 c-17 -38 -16 -50 1 -33 8 9 13 24 11 34 -3 18 -4 18 -12
-1z"/>
<path d="M6380 4111 c0 -24 34 -62 68 -77 19 -8 37 -12 39 -10 3 2 -5 7 -16
11 -11 3 -36 25 -56 47 -19 23 -35 36 -35 29z"/>
<path d="M6556 4101 c-16 -25 47 -73 73 -56 17 10 13 52 -5 59 -23 9 -62 7
-68 -3z"/>
<path d="M4036 4083 c-6 -14 -5 -15 5 -6 7 7 10 15 7 18 -3 3 -9 -2 -12 -12z"/>
<path d="M3920 4040 c-25 -17 -60 -37 -77 -45 -40 -17 -42 -37 -8 -80 31 -41
64 -52 57 -20 -3 16 2 24 16 27 11 3 21 17 25 37 5 22 12 31 26 31 22 0 35 30
26 60 -8 26 -12 25 -65 -10z"/>
<path d="M6305 4033 l-17 -28 23 22 c12 12 20 25 17 28 -3 3 -13 -7 -23 -22z"/>
<path d="M7770 3981 c0 -11 5 -23 10 -26 6 -3 10 -17 10 -30 0 -13 11 -46 25
-73 13 -27 27 -74 31 -105 4 -32 11 -57 15 -57 5 0 9 -17 9 -39 0 -21 7 -52
15 -67 l15 -29 0 47 c0 51 -37 234 -68 333 -14 47 -23 61 -40 63 -16 3 -22 -2
-22 -17z"/>
<path d="M8259 3943 c16 -32 32 -73 36 -90 3 -18 11 -35 16 -38 5 -4 9 -15 9
-25 0 -28 22 -71 34 -67 15 5 48 -73 43 -100 -2 -13 0 -20 6 -16 6 4 7 -5 3
-23 -5 -22 -4 -25 4 -14 8 12 10 8 8 -15 -1 -16 2 -40 6 -52 6 -19 3 -23 -21
-28 -15 -3 -45 -14 -67 -24 -37 -16 -41 -16 -95 1 -114 38 -140 50 -146 69 -4
10 -11 19 -17 19 -6 0 -8 -3 -5 -7 11 -10 -14 -33 -37 -33 -11 0 -32 9 -46 20
-30 24 -66 25 -87 5 -8 -9 -18 -13 -22 -9 -3 4 0 9 7 11 6 3 12 9 12 14 0 5
-8 4 -17 -2 -14 -8 -46 1 -153 44 -184 74 -251 109 -288 152 l-32 36 0 -89 c0
-81 2 -90 20 -95 11 -3 20 -12 20 -21 0 -9 -8 -16 -20 -16 -16 0 -20 -7 -20
-31 0 -26 2 -29 14 -20 12 10 21 5 50 -26 23 -26 74 -59 158 -100 140 -70 182
-84 172 -59 -3 9 -1 16 4 16 7 0 9 14 5 35 -6 36 4 44 25 23 19 -19 27 0 9 20
-22 24 -21 29 3 35 31 8 46 -18 26 -48 -9 -14 -12 -25 -6 -25 5 0 10 -5 10
-11 0 -8 -4 -8 -13 -1 -10 8 -16 5 -27 -11 -11 -19 -11 -20 1 -10 11 9 14 6
14 -17 0 -22 -3 -26 -13 -18 -20 17 -43 -20 -36 -57 9 -40 21 -58 55 -78 28
-16 29 -16 19 3 -6 11 -7 20 -3 20 20 0 52 -102 63 -200 15 -133 38 -237 94
-420 60 -198 89 -264 115 -268 12 -2 21 -1 21 2 0 14 -45 183 -100 376 -34
118 -69 252 -80 297 -17 78 -17 82 -1 73 10 -5 23 -16 31 -24 7 -9 20 -16 29
-17 11 0 12 -2 3 -6 -10 -4 -10 -8 -1 -19 6 -8 15 -11 20 -8 5 3 8 2 7 -3 -4
-15 22 -52 41 -58 13 -4 18 -12 14 -21 -7 -19 25 -54 49 -54 15 0 18 -5 13
-20 -4 -12 -2 -20 5 -20 6 0 9 -4 6 -9 -7 -11 49 -25 63 -17 5 3 7 -2 5 -11
-5 -28 62 -78 110 -82 5 -1 6 -4 3 -8 -4 -3 -1 -13 6 -21 6 -8 17 -35 22 -60
14 -64 46 -72 141 -36 38 14 101 32 139 39 147 27 180 36 298 76 67 23 145 43
173 44 28 1 56 5 63 9 7 5 11 -1 11 -13 0 -12 -4 -21 -10 -21 -5 0 -7 -7 -3
-16 3 -9 0 -20 -8 -25 -10 -6 -11 -9 -1 -9 9 0 8 -7 -4 -25 -9 -14 -13 -25
-10 -25 4 0 -1 -14 -9 -31 -9 -16 -18 -56 -21 -87 -3 -31 -7 -70 -10 -87 -3
-16 -5 -36 -6 -42 -1 -7 -5 -13 -9 -13 -5 0 -6 -7 -3 -15 5 -11 24 -15 81 -15
l75 0 -4 82 c-2 51 -8 83 -15 85 -9 3 -11 28 -7 89 5 61 3 89 -7 100 -7 8 -14
29 -16 46 -2 17 -5 41 -7 53 -3 17 9 30 61 66 65 44 95 76 123 133 8 17 24 32
36 34 16 2 24 15 34 55 7 29 25 71 41 95 16 23 25 42 21 42 -5 0 -15 15 -24
33 -13 28 -13 37 -2 71 26 74 64 145 87 161 21 16 18 17 -58 10 -117 -9 -111
-5 -119 -85 -4 -39 -11 -70 -15 -70 -9 0 -41 34 -41 43 0 4 7 7 15 7 8 0 17
10 20 23 11 49 45 358 50 457 3 58 8 120 11 138 l6 32 -106 0 c-76 0 -108 -4
-111 -12 -4 -12 -8 -40 -22 -133 -3 -22 -19 -69 -35 -104 -16 -36 -34 -88 -40
-118 -6 -29 -15 -53 -21 -53 -11 0 -7 42 22 205 10 61 22 134 25 163 7 51 6
53 -15 50 -28 -4 -38 -41 -68 -238 -13 -80 -24 -155 -27 -166 -4 -25 -33 -39
-48 -24 -14 14 -26 12 -26 -5 0 -8 -7 -15 -16 -15 -10 0 -14 6 -11 14 24 61
62 337 48 336 -9 -1 -41 -27 -41 -33 0 -4 8 -4 18 0 15 6 15 4 -2 -15 -10 -12
-16 -28 -13 -36 3 -8 3 -17 -1 -20 -6 -7 -13 -32 -14 -56 0 -8 -4 -20 -9 -25
-4 -6 -13 -33 -19 -60 -17 -74 -46 -135 -66 -135 -14 0 -16 7 -10 43 6 39 18
83 36 132 4 11 12 40 18 65 7 25 18 66 26 93 9 27 11 47 5 47 -5 0 -11 -6 -13
-12 -2 -7 -18 -58 -34 -113 -17 -55 -34 -117 -37 -137 -3 -21 -9 -38 -14 -38
-4 0 -13 -12 -20 -26 -6 -15 -14 -24 -17 -21 -4 3 -16 -5 -28 -18 -23 -27
-126 -48 -126 -26 0 6 -5 11 -11 11 -5 0 -8 -4 -5 -9 6 -8 -71 -21 -131 -21
-35 0 -36 3 -62 121 -18 78 -80 275 -105 333 l-25 56 -56 0 -55 0 29 -57z
m1111 -333 c-12 -79 -23 -146 -25 -149 -7 -6 -6 2 10 129 17 129 25 173 31
167 2 -2 -5 -68 -16 -147z m-88 45 c-2 -14 -8 -25 -13 -25 -12 0 -11 7 1 31
14 26 18 24 12 -6z m41 -17 c-9 -52 -22 -69 -23 -30 0 26 15 59 27 62 1 0 0
-15 -4 -32z m-65 -171 c29 -29 49 -56 46 -60 -9 -9 -35 13 -29 23 3 5 -16 27
-41 49 -26 23 -43 41 -38 41 6 0 33 -24 62 -53z m-643 -7 c4 -6 -9 -10 -32
-10 -21 0 -47 -2 -58 -4 -11 -2 -14 -1 -7 1 6 3 12 9 12 14 0 12 77 12 85 -1z
m-597 -47 c-2 -10 -10 -18 -18 -18 -8 0 -16 8 -18 18 -2 12 3 17 18 17 15 0
20 -5 18 -17z m106 9 c9 -15 -12 -35 -29 -28 -22 8 -55 -20 -56 -48 -1 -18 -2
-19 -6 -2 -3 11 7 30 28 52 32 33 53 42 63 26z m-174 -23 c7 -11 9 -28 6 -36
-6 -14 -9 -14 -26 2 -23 21 -27 55 -5 55 8 0 19 -9 25 -21z m267 5 c-3 -3 -12
-4 -19 -1 -8 3 -5 6 6 6 11 1 17 -2 13 -5z m153 -9 c0 -8 -7 -15 -15 -15 -8 0
-15 7 -15 15 0 8 7 15 15 15 8 0 15 -7 15 -15z m647 -1 c-3 -3 -12 -4 -19 -1
-8 3 -5 6 6 6 11 1 17 -2 13 -5z m-852 -32 c-3 -3 -11 0 -18 7 -9 10 -8 11 6
5 10 -3 15 -9 12 -12z m505 -8 c0 -16 -16 -19 -25 -4 -8 13 4 32 16 25 5 -4 9
-13 9 -21z m65 16 c3 -5 1 -10 -4 -10 -6 0 -11 5 -11 10 0 6 2 10 4 10 3 0 8
-4 11 -10z m-325 -15 c0 -9 -10 -14 -27 -14 -16 0 -39 -1 -52 -3 -13 -2 -26 2
-28 9 -4 11 20 17 85 21 13 1 22 -4 22 -13z m777 9 c-3 -3 -12 -4 -19 -1 -8 3
-5 6 6 6 11 1 17 -2 13 -5z m-992 -14 c-3 -5 -14 -10 -23 -9 -14 0 -13 2 3 9
27 11 27 11 20 0z m-55 -8 c0 -4 -9 -8 -20 -9 -11 -1 -20 2 -20 8 0 5 9 9 20
9 11 0 20 -4 20 -8z m-63 -18 c-3 -3 -12 -4 -19 -1 -8 3 -5 6 6 6 11 1 17 -2
13 -5z m497 -10 c8 -20 8 -29 -1 -21 -3 4 -12 2 -18 -3 -9 -8 -15 -6 -19 6 -4
10 -1 21 6 26 19 11 25 10 32 -8z m-406 -14 c-7 -11 -17 -20 -22 -20 -5 0 -1
9 9 20 10 11 20 20 22 20 2 0 -2 -9 -9 -20z m519 5 c0 -8 -4 -12 -9 -9 -5 3
-6 10 -3 15 9 13 12 11 12 -6z m73 5 c8 -5 11 -10 5 -10 -5 0 -17 5 -25 10 -8
5 -10 10 -5 10 6 0 17 -5 25 -10z m200 -10 c0 -5 -2 -10 -4 -10 -3 0 -8 5 -11
10 -3 6 -1 10 4 10 6 0 11 -4 11 -10z m74 -5 c3 -9 0 -15 -8 -15 -7 0 -13 7
-13 15 0 8 4 15 8 15 4 0 9 -7 13 -15z m171 5 c3 -5 2 -10 -4 -10 -5 0 -13 5
-16 10 -3 6 -2 10 4 10 5 0 13 -4 16 -10z m-1177 -23 c2 -10 -3 -17 -12 -17
-10 0 -16 9 -16 21 0 24 23 21 28 -4z m225 2 c7 -27 -1 -49 -19 -49 -15 0 -18
27 -8 54 9 22 21 20 27 -5z m424 -11 c-7 -4 -16 -8 -22 -8 -5 0 -3 5 5 10 10
6 11 10 3 10 -7 0 -13 5 -13 10 0 6 8 5 20 -2 14 -9 16 -14 7 -20z m-310 16
c-3 -3 -12 -4 -19 -1 -8 3 -5 6 6 6 11 1 17 -2 13 -5z m950 -8 c4 -7 15 -15
23 -18 8 -3 -7 -9 -33 -13 -26 -4 -51 -5 -54 -1 -4 3 6 6 21 6 23 0 27 4 23
20 -6 23 8 27 20 6z m-1352 -7 c4 -5 -1 -19 -11 -30 -22 -25 -41 -10 -25 20
13 23 26 27 36 10z m670 -6 c-1 -12 -10 -17 -26 -16 l-24 3 24 -14 c18 -10 20
-15 10 -21 -7 -5 -14 -4 -17 3 -2 8 -21 0 -49 -20 -26 -17 -43 -25 -38 -18 5
8 3 11 -6 8 -8 -3 -14 -10 -14 -15 0 -6 -4 -15 -9 -20 -5 -5 -6 -2 -1 6 5 9 3
12 -6 9 -8 -3 -14 -10 -14 -15 0 -6 -4 -15 -9 -20 -5 -5 -6 -2 -1 6 5 9 3 12
-6 9 -8 -3 -13 -10 -12 -16 3 -13 -31 -43 -54 -46 -10 -2 -19 -8 -19 -14 -3
-25 -5 -27 -14 -12 -11 18 13 45 83 97 38 28 195 123 203 123 1 0 1 -8 -1 -17z
m380 -1 c-3 -3 -11 0 -18 7 -9 10 -8 11 6 5 10 -3 15 -9 12 -12z m-458 2 c-3
-3 -12 -4 -19 -1 -8 3 -5 6 6 6 11 1 17 -2 13 -5z m397 -13 c13 -14 14 -21 5
-27 -7 -4 -18 1 -26 11 -26 36 -9 49 21 16z m-1108 -27 c-5 -13 -10 -14 -18
-6 -6 6 -8 18 -4 28 5 13 10 14 18 6 6 -6 8 -18 4 -28z m894 26 c0 -5 -9 -10
-21 -10 -11 0 -17 5 -14 10 3 6 13 10 21 10 8 0 14 -4 14 -10z m120 0 c0 -13
-11 -13 -30 0 -12 8 -11 10 8 10 12 0 22 -4 22 -10z m-350 -9 c0 -12 -28 -22
-34 -12 -3 5 -3 11 1 15 9 9 33 7 33 -3z m-457 -27 c22 -21 26 -29 16 -40 -9
-12 -15 -12 -27 -2 -13 11 -14 9 -8 -14 3 -16 2 -28 -3 -28 -5 0 -11 11 -14
25 -3 18 2 30 15 39 12 9 16 16 9 21 -6 3 -11 1 -11 -4 0 -6 -11 -11 -25 -11
-24 0 -24 1 -8 20 22 25 23 25 56 -6z m287 0 c0 -16 -16 -19 -25 -4 -8 13 4
32 16 25 5 -4 9 -13 9 -21z m899 22 c-2 -2 -26 -6 -54 -10 -34 -4 -43 -3 -30
3 19 9 93 15 84 7z m-1032 -28 c-3 -8 -6 -5 -6 6 -1 11 2 17 5 13 3 -3 4 -12
1 -19z m707 -12 c-1 -9 3 -16 10 -17 9 0 -84 -30 -164 -52 l-25 -7 25 12 c56
26 86 37 110 40 20 2 24 8 22 27 -3 16 1 22 10 19 7 -3 12 -13 12 -22z m209
17 c-7 -2 -19 -2 -25 0 -7 3 -2 5 12 5 14 0 19 -2 13 -5z m-703 -10 c0 -12
-33 -43 -47 -43 -19 0 -16 27 5 39 20 12 42 14 42 4z m990 -14 c0 -6 -4 -7
-10 -4 -5 3 -10 2 -10 -4 0 -6 -7 -8 -15 -5 -20 8 -19 22 3 27 20 4 32 -1 32
-14z m-1242 -1 c-2 -6 -10 -14 -16 -16 -7 -2 -10 2 -6 12 7 18 28 22 22 4z
m72 -18 c0 -10 13 -29 28 -42 24 -20 27 -26 15 -37 -8 -7 -12 -19 -10 -25 3
-7 -8 -21 -24 -30 -27 -16 -29 -16 -29 0 0 10 3 14 7 11 3 -4 12 -2 20 4 19
16 16 65 -4 81 -18 13 -30 73 -12 63 5 -4 9 -15 9 -25z m460 11 c0 -21 -26
-36 -36 -20 -9 15 3 39 21 39 8 0 15 -9 15 -19z m120 9 c0 -5 -2 -10 -4 -10
-3 0 -8 5 -11 10 -3 6 -1 10 4 10 6 0 11 -4 11 -10z m-620 -15 c0 -8 -4 -15
-10 -15 -5 0 -7 7 -4 15 4 8 8 15 10 15 2 0 4 -7 4 -15z m418 3 c-3 -7 -14
-14 -26 -16 -16 -3 -20 1 -16 12 7 19 48 22 42 4z m-487 -71 c-12 -31 -31 -36
-31 -8 0 22 32 59 37 44 2 -6 -1 -22 -6 -36z m-61 2 c0 -20 -15 -26 -24 -10
-8 13 4 42 15 35 5 -3 9 -14 9 -25z m468 13 c6 -18 -15 -14 -22 4 -4 10 -1 14
6 12 6 -2 14 -10 16 -16z m517 -2 c3 -5 1 -10 -4 -10 -6 0 -11 5 -11 10 0 6 2
10 4 10 3 0 8 -4 11 -10z m-825 -26 c0 -22 -2 -25 -15 -14 -8 7 -15 19 -15 26
0 8 7 14 15 14 10 0 15 -10 15 -26z m504 18 c3 -5 -5 -8 -17 -8 -12 1 -21 -4
-20 -10 1 -7 -6 -10 -16 -7 -10 3 -22 -1 -27 -8 -5 -9 -2 -11 12 -6 10 4 6 -3
-11 -15 -42 -31 -106 -96 -140 -142 -16 -21 -31 -33 -33 -27 -2 6 -8 9 -13 5
-20 -12 -7 25 22 67 50 69 81 99 124 118 22 10 51 22 65 29 31 13 47 15 54 4z
m-580 -27 c-6 -16 -24 -21 -24 -7 0 11 11 22 21 22 5 0 6 -7 3 -15z m389 1 c4
-10 1 -13 -8 -9 -8 3 -12 9 -9 14 7 12 11 11 17 -5z m-33 -11 c0 -1 -11 -10
-23 -18 -23 -15 -24 -14 -20 8 4 16 10 21 24 18 10 -3 19 -7 19 -8z m235 -5
c-4 -6 -21 -16 -38 -24 -35 -14 -101 -74 -160 -146 -43 -53 -51 -32 -9 26 34
46 101 103 157 132 45 24 59 27 50 12z m-345 -15 c-7 -9 -10 -18 -7 -22 10
-10 -13 -32 -28 -27 -7 3 -23 -9 -35 -26 -12 -17 -25 -29 -28 -26 -7 7 87 116
100 116 6 0 5 -6 -2 -15z m720 -5 c0 -5 -4 -10 -10 -10 -5 0 -10 5 -10 10 0 6
5 10 10 10 6 0 10 -4 10 -10z m-996 -26 c3 -8 2 -12 -4 -9 -6 3 -10 1 -10 -6
0 -7 -3 -10 -6 -6 -7 6 2 37 10 37 2 0 7 -7 10 -16z m599 -8 c3 -12 -30 -32
-39 -24 -11 12 5 40 21 36 9 -2 17 -7 18 -12z m-243 -12 c0 -2 -7 -4 -15 -4
-8 0 -15 4 -15 10 0 5 7 7 15 4 8 -4 15 -8 15 -10z m-20 -34 c0 -11 -7 -20
-15 -20 -15 0 -21 21 -8 33 12 13 23 7 23 -13z m-230 -14 c0 -3 -4 -8 -10 -11
-5 -3 -10 -1 -10 4 0 6 5 11 10 11 6 0 10 -2 10 -4z m120 -37 c0 -10 -7 -19
-15 -19 -15 0 -21 31 -9 43 11 10 24 -3 24 -24z m37 -21 c-3 -8 -6 -5 -6 6 -1
11 2 17 5 13 3 -3 4 -12 1 -19z m-148 -27 c-6 -18 -13 -30 -15 -28 -2 2 1 18
7 36 6 18 13 30 15 28 2 -2 -1 -18 -7 -36z m691 28 c13 -9 13 -10 0 -6 -8 2
-22 -6 -31 -17 -20 -24 -34 -17 -24 13 7 23 31 27 55 10z m-626 -30 c-10 -16
-24 -9 -24 12 0 18 2 19 15 9 8 -7 12 -16 9 -21z m111 11 c-3 -5 -11 -10 -16
-10 -6 0 -7 5 -4 10 3 6 11 10 16 10 6 0 7 -4 4 -10z m625 0 c0 -5 -2 -10 -4
-10 -3 0 -8 5 -11 10 -3 6 -1 10 4 10 6 0 11 -4 11 -10z m-685 -30 c3 -6 -1
-7 -9 -4 -18 7 -21 14 -7 14 6 0 13 -4 16 -10z m-95 -21 c0 -5 6 -7 13 -4 6 4
3 0 -7 -9 -22 -18 -38 -12 -29 9 6 17 23 20 23 4z m295 -9 c3 -5 -1 -10 -9
-10 -9 0 -16 5 -16 10 0 6 4 10 9 10 6 0 13 -4 16 -10z m145 -24 c0 -3 -4 -8
-10 -11 -5 -3 -10 -1 -10 4 0 6 5 11 10 11 6 0 10 -2 10 -4z m-380 -26 c0 -5
-4 -10 -10 -10 -5 0 -10 5 -10 10 0 6 5 10 10 10 6 0 10 -4 10 -10z m270 -144
c0 -11 -19 -15 -25 -6 -3 5 1 10 9 10 9 0 16 -2 16 -4z"/>
<path d="M8545 3214 c-16 -14 -21 -21 -10 -15 30 14 61 40 50 41 -5 0 -23 -12
-40 -26z"/>
<path d="M8399 3109 l-24 -20 28 17 c15 9 27 18 27 20 0 8 -8 4 -31 -17z"/>
<path d="M8579 3019 l-54 -50 60 47 c74 58 70 54 59 54 -6 0 -35 -23 -65 -51z"/>
<path d="M8489 2923 c-13 -16 -12 -17 4 -4 16 13 21 21 13 21 -2 0 -10 -8 -17
-17z"/>
<path d="M9007 3980 c-10 -38 -8 -68 5 -76 6 -4 8 -3 5 3 -3 5 1 22 9 38 8 16
13 36 11 44 -3 9 -6 5 -7 -9 l-2 -25 -7 25 -7 25 -7 -25z"/>
<path d="M9525 3933 c-3 -38 -10 -85 -14 -105 l-9 -38 69 0 c39 0 69 4 69 10
0 6 -5 10 -11 10 -6 0 -2 8 9 18 15 13 21 35 26 95 l7 77 -70 0 -69 0 -7 -67z"/>
<path d="M9990 3150 l0 -850 270 0 c149 0 270 2 270 5 0 3 -13 67 -29 143 -16
75 -32 160 -35 187 -10 74 -15 85 -37 85 -23 0 -124 92 -145 132 -23 44 -19
66 12 60 14 -2 28 -12 31 -21 23 -64 93 -108 93 -58 0 31 -35 63 -89 82 -53
18 -73 34 -64 48 3 6 1 7 -5 3 -7 -4 -41 22 -82 63 -59 59 -70 75 -70 103 1
42 14 64 72 117 32 29 52 57 60 85 6 22 17 50 24 61 7 11 22 53 34 93 11 39
25 72 30 72 14 0 53 71 60 109 5 31 9 36 32 36 l27 -1 -6 76 c-3 41 -11 80
-17 85 -6 6 -19 22 -28 36 -13 20 -35 31 -100 48 -45 13 -98 29 -116 37 -19 8
-66 14 -112 14 l-80 0 0 -850z m130 -506 c0 -13 -35 -64 -48 -69 -7 -3 -25 1
-39 9 l-26 13 46 18 c26 10 47 22 47 26 0 5 5 9 10 9 6 0 10 -3 10 -6z"/>
<path d="M11971 3984 c9 -11 22 -34 30 -51 8 -18 17 -33 20 -33 7 0 22 -40 20
-53 -1 -4 8 -18 19 -30 12 -12 24 -33 27 -47 4 -14 12 -31 20 -38 7 -8 11 -18
8 -23 -4 -5 1 -9 9 -9 11 0 -1 33 -45 123 -81 165 -85 171 -106 176 -17 3 -17
2 -2 -15z"/>
<path d="M3995 3965 c-3 -14 -7 -36 -10 -49 -3 -14 -16 -29 -32 -35 -16 -6
-40 -19 -55 -29 -23 -14 -31 -15 -48 -4 -33 20 -26 -16 10 -48 16 -14 33 -36
37 -47 l8 -21 85 27 c47 15 95 33 107 40 l23 12 -24 37 c-13 20 -35 61 -50 90
-29 57 -43 65 -51 27z"/>
<path d="M3790 3948 c0 -8 10 -25 21 -37 18 -19 19 -25 8 -32 -19 -12 -6 -21
18 -12 18 8 18 10 -14 51 -18 24 -33 37 -33 30z"/>
<path d="M9491 3944 c0 -11 3 -14 6 -6 3 7 2 16 -1 19 -3 4 -6 -2 -5 -13z"/>
<path d="M3723 3921 c-23 -16 -44 -27 -49 -23 -4 4 -4 2 0 -5 4 -7 13 -10 21
-6 11 4 13 1 9 -11 -5 -13 -9 -14 -21 -5 -11 10 -19 7 -41 -13 -15 -14 -70
-56 -122 -92 -95 -67 -220 -171 -220 -184 0 -4 9 -22 21 -41 l20 -34 43 42
c42 41 42 42 61 21 24 -26 44 -25 89 5 20 14 43 25 49 25 7 0 25 6 41 13 24
11 27 16 22 49 -3 20 -2 39 4 43 5 3 6 13 3 22 -4 11 -3 14 5 9 7 -4 12 -3 12
3 0 14 48 61 63 61 7 0 6 -4 -3 -10 -12 -8 -13 -11 -2 -22 8 -7 13 -8 12 -3
-1 6 1 21 5 33 6 18 10 20 16 10 7 -11 9 -11 9 0 0 8 -9 16 -20 19 -24 6 -21
29 4 25 9 -2 16 4 16 12 0 10 -8 13 -27 10 l-28 -4 27 17 c29 18 44 43 27 43
-6 0 -7 5 -4 10 10 16 1 12 -42 -19z"/>
<path d="M3650 3933 c8 -3 19 -11 23 -17 6 -7 7 -6 4 4 -2 8 -12 16 -23 17
-13 2 -15 1 -4 -4z"/>
<path d="M3620 3920 c0 -4 9 -10 20 -13 11 -3 20 -2 20 3 0 4 -9 10 -20 13
-11 3 -20 2 -20 -3z"/>
<path d="M4495 3882 c-30 -27 -30 -28 -12 -47 11 -11 25 -33 33 -50 12 -28 13
-26 14 48 0 42 -1 77 -2 77 -2 0 -17 -13 -33 -28z"/>
<path d="M12232 3808 c14 -82 17 -88 14 -25 -1 32 -7 62 -13 68 -7 7 -8 -6 -1
-43z"/>
<path d="M9490 3668 c-16 -144 -16 -150 -3 -155 15 -6 97 73 88 86 -3 6 -1 11
4 11 6 0 11 10 11 23 0 14 16 39 39 61 22 21 42 47 44 57 5 18 -2 19 -83 19
l-88 0 -12 -102z"/>
<path d="M3818 3728 c-5 -14 -78 -20 -78 -6 0 4 -11 8 -24 8 -32 0 -47 -38
-27 -69 8 -12 23 -8 90 19 45 19 81 40 81 47 0 16 -37 17 -42 1z"/>
<path d="M4166 3701 c-19 -7 -19 -8 2 -13 12 -4 26 0 33 8 13 16 -2 18 -35 5z"/>
<path d="M8360 3680 c6 -11 12 -20 14 -20 2 0 2 9 -1 20 -3 11 -9 20 -15 20
-5 0 -4 -9 2 -20z"/>
<path d="M7005 3680 c-8 -13 5 -13 25 0 13 8 13 10 -2 10 -9 0 -20 -4 -23 -10z"/>
<path d="M10465 3667 c5 -20 3 -28 -9 -33 -9 -3 -16 -13 -16 -21 0 -11 5 -10
25 4 28 21 32 45 9 64 -13 11 -14 9 -9 -14z"/>
<path d="M3853 3655 c-8 -9 -9 -16 -3 -20 6 -3 13 1 16 10 9 21 2 26 -13 10z"/>
<path d="M4103 3655 c-13 -14 -8 -45 7 -45 11 0 40 35 40 48 0 16 -32 14 -47
-3z"/>
<path d="M3750 3628 c-19 -10 -27 -17 -17 -14 9 3 17 1 17 -5 0 -6 18 -9 42
-7 37 3 43 0 49 -22 7 -24 7 -24 8 -2 1 22 -23 54 -50 64 -8 3 -30 -3 -49 -14z"/>
<path d="M3666 3609 c5 -8 29 -33 53 -54 33 -30 42 -35 40 -20 -2 11 -14 25
-27 31 -12 6 -34 22 -49 35 -14 13 -22 17 -17 8z"/>
<path d="M6881 3607 c-6 -9 -11 -26 -9 -39 2 -12 -1 -23 -7 -23 -5 0 -9 7 -7
15 2 10 -3 9 -13 -5 -19 -23 -13 -74 11 -92 8 -6 16 -20 17 -32 1 -12 5 -21
10 -21 5 0 7 -20 6 -45 -2 -24 0 -47 4 -51 15 -15 6 -24 -18 -18 -15 4 -32 1
-40 -6 -13 -11 -12 -17 7 -51 17 -31 26 -38 42 -34 21 6 21 6 1 -10 -18 -14
-18 -16 -2 -32 15 -15 17 -15 23 1 4 9 4 60 2 111 -3 52 -1 96 3 97 12 4 20
147 8 154 -6 3 -8 18 -4 33 3 15 0 34 -8 45 -11 16 -15 16 -26 3z m29 -177 c0
-11 -5 -20 -12 -20 -6 0 -8 3 -5 7 4 3 2 12 -4 20 -9 10 -8 13 5 13 9 0 16 -8
16 -20z"/>
<path d="M6758 3564 c-55 -44 -79 -76 -40 -55 29 16 114 101 100 101 -2 0 -29
-21 -60 -46z"/>
<path d="M11035 3600 c-3 -5 -1 -10 4 -10 6 0 11 5 11 10 0 6 -2 10 -4 10 -3
0 -8 -4 -11 -10z"/>
<path d="M3860 3588 c0 -4 8 -21 18 -37 l18 -30 17 28 c19 33 13 45 -14 28
-16 -10 -21 -9 -29 3 -5 8 -10 12 -10 8z"/>
<path d="M12060 3571 c0 -11 -5 -32 -11 -48 -7 -20 -12 -24 -18 -14 -12 19
-38 -22 -46 -74 -4 -22 -13 -60 -20 -85 -7 -25 -18 -70 -24 -100 -9 -45 -15
-56 -31 -56 -16 0 -20 7 -20 31 0 18 -8 37 -20 48 -13 11 -20 29 -20 51 0 56
-18 51 -24 -6 -2 -29 -5 -62 -4 -73 0 -11 -6 -39 -12 -63 -10 -35 -10 -46 0
-55 10 -10 12 -7 8 13 -4 22 -1 25 22 24 15 0 32 -4 39 -8 6 -4 20 -2 29 6 15
12 15 10 -1 -12 -10 -14 -26 -37 -36 -52 -10 -16 -21 -25 -25 -21 -4 4 -5 -11
-3 -32 3 -22 2 -31 0 -20 -8 35 -17 34 -46 -7 -16 -22 -23 -36 -16 -32 9 5 10
2 6 -10 -4 -10 -7 -24 -7 -32 0 -19 -24 -18 -40 1 -10 12 -16 13 -29 3 -8 -7
-5 0 7 16 12 16 22 38 22 49 0 19 -2 19 -29 -7 -20 -19 -35 -26 -49 -22 -20 7
-46 52 -37 66 7 12 -19 82 -50 130 -14 23 -24 48 -21 56 3 8 -2 27 -11 41 -16
24 -16 26 1 39 17 12 17 15 -13 51 -23 28 -28 39 -17 41 10 2 8 9 -10 27 -14
14 -24 36 -24 53 0 21 -7 32 -25 40 -31 14 -38 15 -30 3 3 -6 -11 -11 -32 -13
-30 -2 -38 -8 -44 -29 -6 -23 -2 -29 26 -42 33 -16 45 -44 60 -142 3 -16 8
-42 11 -57 4 -16 2 -28 -4 -28 -11 0 -26 29 -23 44 1 5 -6 17 -15 27 -9 10
-19 41 -22 69 -5 55 -23 73 -60 63 -20 -5 -42 -52 -42 -90 0 -15 48 -48 57
-39 3 3 12 1 20 -5 11 -10 10 -15 -6 -29 -19 -16 -19 -17 31 -51 28 -19 62
-50 77 -69 14 -19 18 -29 9 -21 -21 15 -24 2 -5 -19 6 -7 -10 4 -38 26 -82 66
-114 86 -126 78 -7 -4 -9 -3 -6 3 4 6 0 14 -9 17 -8 3 -12 2 -9 -4 4 -6 -4 -6
-21 1 -26 9 -27 9 -13 -8 21 -26 39 -64 41 -93 3 -24 18 -41 63 -75 12 -9 14
-13 4 -10 -10 4 -16 0 -16 -10 0 -8 5 -14 11 -13 14 3 72 -48 99 -87 l21 -30
-24 20 -24 20 16 -25 c9 -14 22 -24 28 -22 6 1 9 -2 5 -8 -3 -5 -1 -19 5 -30
6 -12 10 -38 8 -58 l-3 -37 -24 62 c-13 34 -35 72 -49 85 l-26 23 17 -25 c37
-55 50 -87 57 -142 7 -65 -6 -74 -24 -18 -6 19 -18 36 -28 38 -13 3 -17 -7
-20 -52 -1 -31 0 -56 5 -56 4 0 7 -10 7 -23 0 -12 6 -31 14 -42 7 -11 12 -30
11 -42 -2 -23 9 -31 19 -15 8 14 9 86 1 105 -4 9 -3 17 2 17 6 0 18 -24 28
-54 18 -53 18 -53 -4 -85 -30 -41 -11 -40 26 2 24 27 42 36 92 46 75 15 177
64 209 100 12 14 37 49 56 76 18 28 43 59 55 69 11 11 21 28 21 39 0 12 9 30
20 42 18 20 19 23 5 35 -16 14 -21 50 -6 50 5 0 17 21 27 48 36 100 63 149
108 195 25 26 46 53 46 60 0 6 6 24 14 38 11 22 11 36 -2 90 -8 35 -15 80 -15
100 1 29 -5 39 -28 53 -28 17 -29 16 -29 -3z m-600 -66 c0 -9 -6 -12 -15 -9
-8 4 -15 10 -15 15 0 5 7 9 15 9 8 0 15 -7 15 -15z m-80 -9 c0 -3 -4 -8 -10
-11 -5 -3 -10 -1 -10 4 0 6 5 11 10 11 6 0 10 -2 10 -4z m701 -51 c14 -64 10
-107 -10 -112 -12 -3 -21 -19 -27 -46 -6 -29 -15 -43 -28 -45 -16 -3 -18 0
-13 25 4 15 12 60 18 98 6 39 13 80 15 93 7 33 37 24 45 -13z m-637 -7 c-3 -4
-9 -8 -15 -8 -5 0 -9 4 -9 8 0 5 7 9 15 9 8 0 12 -4 9 -9z m46 -9 c0 -6 -4 -7
-10 -4 -5 3 -10 11 -10 16 0 6 5 7 10 4 6 -3 10 -11 10 -16z m-10 -124 c10
-12 10 -15 -4 -15 -9 0 -16 7 -16 15 0 8 2 15 4 15 2 0 9 -7 16 -15z m2 -149
l21 -31 -36 34 c-21 19 -37 39 -37 44 0 14 28 -11 52 -47z m248 -231 c0 -8 -7
-15 -16 -15 -14 0 -14 3 -4 15 7 8 14 15 16 15 2 0 4 -7 4 -15z"/>
<path d="M3605 3570 c-3 -5 1 -20 9 -32 9 -12 16 -18 16 -13 0 6 3 20 6 33 5
16 2 22 -9 22 -9 0 -19 -4 -22 -10z"/>
<path d="M3780 3531 c-6 -12 -6 -22 -1 -25 5 -3 12 1 15 10 3 8 10 13 15 10 5
-3 14 1 21 9 10 13 8 15 -13 15 -16 0 -31 -8 -37 -19z"/>
<path d="M10396 3542 c-2 -4 2 -16 10 -26 11 -16 16 -17 29 -6 12 10 13 16 4
26 -12 15 -35 18 -43 6z"/>
<path d="M5010 3519 c6 -10 17 -19 26 -19 8 0 17 -7 20 -15 4 -8 14 -15 24
-15 11 0 21 -4 24 -9 4 -5 26 -19 51 -31 25 -12 43 -26 39 -31 -3 -5 -1 -9 5
-9 5 0 13 5 16 10 3 6 2 10 -3 10 -5 0 -19 8 -30 18 -12 9 -33 25 -47 35 -14
10 -22 23 -19 29 5 7 2 8 -6 3 -7 -4 -15 -3 -19 2 -3 5 -25 16 -48 25 -42 16
-43 16 -33 -3z"/>
<path d="M10346 3514 c-10 -14 -16 -28 -13 -30 2 -3 12 7 21 22 10 14 16 28
13 30 -2 3 -12 -7 -21 -22z"/>
<path d="M3822 3500 c-17 -27 -16 -30 13 -30 20 0 25 5 25 25 0 30 -20 33 -38
5z"/>
<path d="M4212 3500 c-29 -11 -95 -42 -147 -70 -76 -41 -94 -56 -99 -78 -3
-15 -15 -77 -27 -139 -13 -62 -20 -116 -16 -119 11 -12 193 24 317 62 133 41
200 65 200 71 0 3 -9 18 -20 33 -11 16 -37 61 -58 100 -66 127 -82 155 -90
157 -4 1 -31 -7 -60 -17z"/>
<path d="M10565 3500 c-10 -16 3 -29 24 -23 30 8 35 33 6 33 -13 0 -27 -4 -30
-10z"/>
<path d="M11537 3494 c39 -24 87 -80 78 -94 -9 -14 -1 -13 39 6 19 10 32 22
29 29 -2 7 0 16 6 20 19 11 12 25 -13 25 -13 0 -29 -7 -36 -15 -7 -8 -18 -15
-24 -14 -6 0 -3 5 6 12 15 10 11 13 -25 23 -98 28 -94 27 -60 8z"/>
<path d="M10387 3493 c-3 -4 7 -17 22 -27 l26 -20 -20 25 c-11 13 -21 25 -21
27 -1 2 -4 0 -7 -5z"/>
<path d="M6412 3468 c-24 -11 -42 -22 -39 -25 3 -2 15 1 27 7 12 6 24 9 26 7
3 -3 -9 -11 -26 -18 -29 -14 -30 -14 -8 -21 50 -14 173 -8 208 10 54 27 61 33
54 43 -3 6 -16 4 -31 -7 -38 -25 -83 -24 -128 1 l-40 22 -43 -19z m68 -17 c0
-5 -8 -11 -17 -14 -10 -2 -27 -8 -38 -12 -11 -4 -7 2 10 14 32 23 45 26 45 12z"/>
<path d="M11907 3484 c-9 -9 -8 -73 2 -98 5 -14 10 -16 15 -8 4 7 12 10 17 7
5 -4 9 14 9 39 0 25 1 49 3 54 3 9 -37 15 -46 6z"/>
<path d="M5975 3460 c-43 -9 -188 -70 -182 -77 2 -2 46 3 98 12 57 9 166 15
274 16 194 1 195 4 10 39 -107 21 -137 22 -200 10z"/>
<path d="M9655 3438 c-18 -103 -32 -204 -28 -210 2 -4 15 -2 28 4 24 11 25 14
25 125 0 109 -12 150 -25 81z"/>
<path d="M11160 3461 c0 -19 27 -30 55 -23 48 13 43 32 -9 32 -25 0 -46 -4
-46 -9z"/>
<path d="M10870 3445 c-11 -14 -10 -17 8 -22 12 -3 19 -9 16 -14 -6 -10 44
-24 54 -15 10 11 -25 61 -46 64 -10 2 -25 -4 -32 -13z"/>
<path d="M3106 3421 c-3 -5 -3 -17 0 -25 6 -15 9 -15 30 -1 13 8 31 15 40 15
26 0 13 7 -28 14 -20 4 -39 2 -42 -3z"/>
<path d="M7855 3420 c3 -5 10 -10 16 -10 5 0 9 5 9 10 0 6 -7 10 -16 10 -8 0
-12 -4 -9 -10z"/>
<path d="M3213 3403 c9 -2 23 -2 30 0 6 3 -1 5 -18 5 -16 0 -22 -2 -12 -5z"/>
<path d="M3778 3403 c7 -3 16 -2 19 1 4 3 -2 6 -13 5 -11 0 -14 -3 -6 -6z"/>
<path d="M6613 3395 c-16 -17 1 -30 23 -17 12 7 13 10 2 19 -9 8 -16 7 -25 -2z"/>
<path d="M3663 3393 c9 -2 23 -2 30 0 6 3 -1 5 -18 5 -16 0 -22 -2 -12 -5z"/>
<path d="M5460 3384 c0 -9 7 -14 17 -12 25 5 28 28 4 28 -12 0 -21 -6 -21 -16z"/>
<path d="M6000 3390 c-36 -5 -14 -6 64 -4 65 2 121 5 124 9 7 7 -119 4 -188
-5z"/>
<path d="M6783 3393 c-7 -3 -13 -11 -13 -19 0 -13 -12 -18 -32 -15 -5 0 -8 -6
-8 -16 0 -14 -2 -14 -20 2 -11 10 -23 15 -27 11 -7 -6 64 -75 78 -76 3 0 6 7
6 15 0 8 -4 12 -8 9 -4 -2 -11 1 -15 7 -4 8 -3 9 4 5 7 -4 12 -1 12 6 1 9 5 7
14 -5 12 -15 14 -16 20 -2 3 10 19 15 46 15 22 0 40 3 40 6 0 8 -50 47 -69 55
-9 3 -22 4 -28 2z"/>
<path d="M10285 3370 c3 -42 4 -44 25 -25 28 26 26 55 -3 53 -19 -2 -24 -7
-22 -28z"/>
<path d="M10581 3393 c-1 -7 -12 -13 -26 -13 -14 0 -25 -4 -25 -10 0 -12 30
-13 49 -1 7 5 11 15 8 22 -4 10 -6 10 -6 2z"/>
<path d="M11070 3390 c0 -5 5 -10 11 -10 5 0 7 5 4 10 -3 6 -8 10 -11 10 -2 0
-4 -4 -4 -10z"/>
<path d="M3172 3381 c-11 -7 -10 -10 3 -15 25 -9 75 -7 75 3 0 19 -54 28 -78
12z"/>
<path d="M5240 3375 c0 -18 21 -28 45 -23 12 2 8 8 -14 21 -27 16 -31 16 -31
2z"/>
<path d="M5328 3382 c-20 -4 -23 -19 -8 -42 7 -12 12 -12 22 -2 9 9 9 12 -2
12 -13 0 -13 2 -1 9 18 12 10 28 -11 23z"/>
<path d="M5528 3383 c7 -3 16 -2 19 1 4 3 -2 6 -13 5 -11 0 -14 -3 -6 -6z"/>
<path d="M6398 3383 c18 -2 45 -2 60 0 15 2 0 4 -33 4 -33 0 -45 -2 -27 -4z"/>
<path d="M3760 3370 c0 -5 5 -10 10 -10 6 0 10 5 10 10 0 6 -4 10 -10 10 -5 0
-10 -4 -10 -10z"/>
<path d="M4997 3373 c-10 -10 -8 -116 2 -132 13 -20 44 55 35 83 -10 30 -30
57 -37 49z"/>
<path d="M5561 3369 c-14 -5 -31 -7 -38 -5 -15 6 -117 -13 -110 -20 7 -8 127
-10 127 -3 0 3 24 13 53 22 41 12 46 15 22 16 -16 0 -41 -5 -54 -10z"/>
<path d="M5873 3373 c9 -2 25 -2 35 0 9 3 1 5 -18 5 -19 0 -27 -2 -17 -5z"/>
<path d="M11590 3373 c0 -5 11 -13 25 -20 27 -12 33 -5 13 15 -13 13 -38 16
-38 5z"/>
<path d="M3655 3360 c-30 -8 -30 -8 8 -9 20 0 37 4 37 9 0 11 -2 11 -45 0z"/>
<path d="M10727 3339 c-19 -11 -23 -34 -7 -44 6 -3 15 6 20 21 13 32 10 36
-13 23z"/>
<path d="M6358 3314 c-11 -11 -163 -21 -181 -12 -12 6 -24 4 -40 -7 -20 -16
-5 -16 228 -12 315 6 275 1 -100 -13 -159 -6 -335 -15 -390 -21 -55 -5 -148
-14 -207 -19 -104 -10 -231 -41 -243 -60 -3 -5 18 -1 47 9 29 10 82 21 118 25
36 4 79 8 95 10 92 12 249 17 580 18 399 2 461 -4 556 -53 35 -17 41 -18 30
-5 -8 10 -27 24 -43 32 -15 8 -27 20 -25 27 1 7 -11 13 -28 14 -16 1 -43 6
-60 12 -25 8 -26 9 -7 10 12 1 22 4 22 9 0 9 -47 31 -54 25 -9 -9 -271 -2
-274 7 -4 11 -16 13 -24 4z"/>
<path d="M11648 3281 c-27 -58 -24 -68 27 -77 18 -3 25 0 25 11 0 8 5 15 10
15 17 0 11 29 -10 50 -11 11 -20 25 -20 30 0 22 -16 8 -32 -29z"/>
<path d="M5932 3290 c-11 -18 -10 -20 18 -20 28 0 30 2 20 20 -6 11 -14 20
-18 20 -4 0 -13 -9 -20 -20z"/>
<path d="M10835 3297 c-8 -8 -5 -17 8 -30 10 -10 22 -16 25 -12 4 4 -1 13 -11
20 -13 9 -14 14 -6 17 7 2 9 7 4 10 -6 3 -15 1 -20 -5z"/>
<path d="M10656 3275 c-3 -8 -12 -12 -20 -9 -8 3 -17 0 -21 -5 -3 -6 -11 -9
-16 -6 -5 4 -9 -3 -9 -14 0 -14 6 -21 19 -21 10 0 32 -3 49 -6 26 -5 31 -3 30
12 0 11 0 24 2 29 8 33 -22 51 -34 20z m4 -35 c0 -5 -4 -10 -10 -10 -5 0 -10
5 -10 10 0 6 5 10 10 10 6 0 10 -4 10 -10z"/>
<path d="M5696 3273 c-7 -8 -21 -10 -81 -17 -22 -2 -48 -7 -58 -11 -10 -4 -30
-8 -45 -9 -30 -2 -127 -49 -138 -68 -4 -6 8 -3 27 9 53 32 126 52 229 63 52 5
99 10 104 10 10 0 -13 30 -24 30 -3 0 -10 -3 -14 -7z"/>
<path d="M5818 3273 c-16 -2 -28 -9 -28 -15 0 -5 7 -7 16 -4 9 3 34 6 57 6 31
0 38 3 27 10 -15 10 -24 10 -72 3z"/>
<path d="M11032 3263 c-8 -3 1 -15 24 -34 20 -16 31 -29 25 -29 -7 0 -9 -4 -6
-10 3 -5 12 -10 19 -10 21 0 15 33 -12 63 -27 28 -29 29 -50 20z"/>
<path d="M11150 3246 c0 -2 7 -6 15 -10 8 -3 15 -1 15 4 0 6 -7 10 -15 10 -8
0 -15 -2 -15 -4z"/>
<path d="M3183 3220 c-14 -15 -30 -20 -72 -20 -48 0 -57 -3 -87 -35 -22 -24
-35 -49 -39 -78 -8 -49 3 -81 40 -125 15 -18 28 -38 29 -44 1 -7 5 -19 9 -25
5 -8 3 -13 -7 -13 -21 0 -21 -39 1 -69 l17 -24 13 38 c7 21 11 40 9 42 -2 3 3
13 12 24 19 22 48 25 55 7 3 -8 6 -6 6 4 1 26 46 51 76 44 14 -4 25 -11 25
-17 0 -6 -5 -7 -11 -3 -7 4 -4 -7 7 -25 10 -17 22 -31 27 -31 4 0 6 4 2 9 -3
6 3 14 12 20 16 9 16 12 3 21 -13 9 -13 11 0 20 13 9 13 10 0 10 -8 0 -2 9 15
20 21 14 25 20 13 20 -21 0 -21 -1 -7 38 6 18 15 29 20 26 5 -3 10 7 10 23 2
27 2 27 6 3 3 -14 9 -29 15 -35 6 -7 7 -1 3 15 -5 21 -1 27 24 38 39 17 58 7
35 -19 -10 -11 -15 -28 -12 -43 4 -17 1 -23 -9 -19 -8 3 -13 -2 -13 -16 0 -17
-4 -20 -24 -15 -16 4 -25 1 -30 -11 -5 -14 -1 -17 24 -13 30 5 42 -13 19 -27
-9 -6 25 -39 41 -40 3 -1 15 -6 27 -13 19 -11 23 -9 29 11 12 37 12 76 1 74
-7 -1 -13 8 -15 21 -2 12 1 22 7 22 6 0 11 9 11 20 0 20 20 27 34 13 4 -4 17
-8 29 -8 19 0 22 -6 25 -42 2 -34 7 -43 21 -43 10 0 26 -9 36 -20 l19 -21 14
27 c24 45 40 8 27 -63 -5 -30 -11 -40 -21 -36 -8 3 -22 -1 -31 -8 -12 -10 -15
-10 -9 -1 4 6 2 12 -3 12 -6 0 -11 -6 -11 -12 0 -9 -4 -8 -11 2 -8 13 -12 12
-26 -7 -19 -29 -39 -29 -53 -2 -18 32 -24 14 -7 -20 l15 -29 -33 5 c-42 7 -49
-6 -20 -39 21 -25 24 -25 50 -12 15 8 35 14 44 14 14 0 14 2 1 10 -12 7 -10
11 10 18 14 5 28 8 33 5 4 -2 7 1 7 7 0 6 4 8 10 5 20 -12 68 24 84 65 18 45
21 100 6 100 -6 0 -6 9 0 25 7 18 6 23 -3 20 -11 -4 -57 56 -57 76 0 8 15 13
33 10 15 -2 5 15 -19 33 -21 14 -28 16 -34 6 -4 -7 -15 -10 -24 -7 -9 4 -16 2
-16 -3 0 -17 -25 -11 -44 11 -14 17 -25 20 -59 15 -52 -8 -71 -8 -127 -2 -25
2 -49 5 -53 5 -5 1 -6 5 -2 10 3 5 1 12 -5 16 -5 3 -10 1 -10 -6 0 -10 -3 -10
-12 -1 -10 10 -10 14 0 21 10 6 10 10 -2 20 -8 7 -20 10 -26 6 -5 -3 -10 0
-10 8 0 32 -62 36 -87 7z m79 -40 c49 -38 76 -138 46 -168 -20 -20 -63 -14
-88 13 -13 14 -26 23 -28 20 -3 -3 5 -16 18 -30 22 -24 22 -26 6 -44 -9 -10
-36 -24 -60 -31 -37 -10 -48 -9 -74 4 -54 28 -89 93 -77 147 8 34 41 70 60 63
7 -3 15 2 18 10 4 10 18 16 37 16 25 0 30 -4 30 -25 0 -14 5 -25 10 -25 6 0
10 10 10 23 0 48 48 62 92 27z m278 -96 c0 -8 -4 -14 -9 -14 -6 0 -9 9 -8 19
1 22 17 18 17 -5z m133 -100 c-9 -24 -20 -15 -20 17 0 28 2 30 13 14 7 -9 10
-23 7 -31z m7 -178 c0 -3 -4 -8 -10 -11 -5 -3 -10 -1 -10 4 0 6 5 11 10 11 6
0 10 -2 10 -4z"/>
<path d="M3212 3158 c-22 -22 -14 -68 18 -99 25 -25 33 -28 50 -19 28 15 26
62 -6 99 -28 33 -43 38 -62 19z m48 -28 c21 -21 27 -65 11 -75 -16 -9 -51 37
-51 67 0 33 12 36 40 8z"/>
<path d="M3316 3205 c21 -32 40 -32 46 0 4 18 2 23 -6 16 -7 -6 -17 -6 -26 -1
-26 17 -31 11 -14 -15z"/>
<path d="M2996 3206 c-22 -7 -42 -18 -44 -24 -6 -18 7 -15 62 13 53 27 46 31
-18 11z"/>
<path d="M3417 3214 c-4 -4 -7 -16 -7 -27 0 -14 3 -17 13 -10 6 6 20 11 30 12
42 3 47 5 44 15 -4 13 -69 20 -80 10z"/>
<path d="M5908 3203 c23 -2 59 -2 80 0 20 2 1 4 -43 4 -44 0 -61 -2 -37 -4z"/>
<path d="M6048 3203 c12 -2 30 -2 40 0 9 3 -1 5 -23 4 -22 0 -30 -2 -17 -4z"/>
<path d="M11227 3199 c7 -7 15 -10 18 -7 3 3 -2 9 -12 12 -14 6 -15 5 -6 -5z"/>
<path d="M9629 3193 c-11 -3 -19 -26 -27 -81 -12 -74 -15 -147 -5 -110 2 9 17
19 33 23 34 7 37 13 46 104 7 76 5 78 -47 64z"/>
<path d="M10848 3189 c-7 -5 -10 -10 -8 -12 7 -6 114 -26 118 -22 2 2 -1 11
-6 21 -11 19 -81 27 -104 13z"/>
<path d="M6708 3183 c7 -3 16 -2 19 1 4 3 -2 6 -13 5 -11 0 -14 -3 -6 -6z"/>
<path d="M5515 3170 c-13 -6 -2 -7 30 -3 28 3 52 7 54 9 9 8 -65 2 -84 -6z"/>
<path d="M11762 3095 c-1 -47 3 -85 7 -85 4 0 18 14 30 31 l23 31 -23 50 c-13
27 -26 51 -30 53 -3 3 -7 -34 -7 -80z"/>
<path d="M3350 3155 c0 -8 2 -15 4 -15 2 0 6 7 10 15 3 8 1 15 -4 15 -6 0 -10
-7 -10 -15z"/>
<path d="M6258 3163 c12 -2 30 -2 40 0 9 3 -1 5 -23 4 -22 0 -30 -2 -17 -4z"/>
<path d="M6333 3163 c9 -2 25 -2 35 0 9 3 1 5 -18 5 -19 0 -27 -2 -17 -5z"/>
<path d="M6425 3160 c3 -5 10 -10 16 -10 5 0 9 5 9 10 0 6 -7 10 -16 10 -8 0
-12 -4 -9 -10z"/>
<path d="M6521 3166 c10 -8 89 -13 89 -5 0 5 -21 9 -47 9 -25 0 -44 -2 -42 -4z"/>
<path d="M6700 3163 c8 -3 36 -14 62 -23 27 -10 46 -14 43 -10 -6 9 -93 40
-109 39 -6 0 -4 -3 4 -6z"/>
<path d="M5828 3153 c7 -3 16 -2 19 1 4 3 -2 6 -13 5 -11 0 -14 -3 -6 -6z"/>
<path d="M5998 3153 c6 -2 18 -2 25 0 6 3 1 5 -13 5 -14 0 -19 -2 -12 -5z"/>
<path d="M3896 3124 c-4 -14 -5 -29 -2 -31 3 -3 8 7 12 21 3 15 4 29 1 32 -2
3 -8 -7 -11 -22z"/>
<path d="M5570 3140 c34 -11 60 -11 35 0 -11 5 -29 8 -40 8 -16 0 -15 -2 5 -8z"/>
<path d="M5668 3143 c12 -2 32 -2 45 0 12 2 2 4 -23 4 -25 0 -35 -2 -22 -4z"/>
<path d="M10154 3135 c-8 -20 4 -35 22 -28 15 5 15 7 0 15 -9 5 -14 13 -11 19
4 5 4 9 0 9 -3 0 -8 -7 -11 -15z"/>
<path d="M10345 3140 c-3 -5 -1 -10 4 -10 6 0 11 5 11 10 0 6 -2 10 -4 10 -3
0 -8 -4 -11 -10z"/>
<path d="M6860 3115 c13 -14 26 -25 28 -25 3 0 -5 11 -18 25 -13 14 -26 25
-28 25 -3 0 5 -11 18 -25z"/>
<path d="M11036 3134 c51 -21 179 -63 182 -60 5 6 -54 30 -119 50 -51 15 -90
21 -63 10z"/>
<path d="M10451 3108 c-42 -19 -44 -21 -26 -34 10 -8 24 -14 29 -14 6 0 4 5
-4 10 -13 9 -12 12 4 25 14 10 23 12 32 4 9 -7 21 -6 41 5 18 10 22 15 11 16
-9 0 -22 2 -30 5 -7 2 -33 -5 -57 -17z"/>
<path d="M6317 3084 c-15 -8 -32 -12 -37 -9 -6 3 -10 2 -10 -3 0 -5 -13 -12
-30 -15 -16 -4 -30 -10 -30 -15 0 -10 36 -9 46 1 11 11 42 8 46 -3 2 -6 19 5
38 25 36 37 26 46 -23 19z"/>
<path d="M10206 3091 c-6 -8 4 -20 32 -36 11 -6 12 -3 3 13 -14 26 -28 35 -35
23z"/>
<path d="M6851 3074 c0 -11 3 -14 6 -6 3 7 2 16 -1 19 -3 4 -6 -2 -5 -13z"/>
<path d="M6475 3059 c-11 -17 -2 -18 19 -3 17 12 17 14 4 14 -9 0 -20 -5 -23
-11z"/>
<path d="M5939 3039 l-21 -16 21 2 c11 1 23 4 27 8 3 3 19 4 34 1 19 -4 29 -1
33 10 5 13 -1 15 -33 13 -22 -1 -49 -9 -61 -18z"/>
<path d="M6065 3050 c4 -6 11 -8 16 -5 14 9 11 15 -7 15 -8 0 -12 -5 -9 -10z"/>
<path d="M10983 3043 c-2 -20 13 -24 86 -23 30 0 58 -8 87 -25 46 -27 58 -55
24 -55 -11 0 -20 -4 -20 -9 0 -16 25 -28 72 -34 88 -12 104 16 36 60 -55 34
-195 91 -245 99 -33 5 -39 3 -40 -13z m251 -104 c-3 -5 -10 -7 -15 -3 -5 3 -7
10 -3 15 3 5 10 7 15 3 5 -3 7 -10 3 -15z"/>
<path d="M5347 3019 c-9 -17 -17 -36 -17 -42 0 -7 9 6 21 27 24 45 21 58 -4
15z"/>
<path d="M5839 3034 c-9 -11 -7 -14 12 -14 38 0 56 16 25 22 -15 3 -31 0 -37
-8z"/>
<path d="M6855 3040 c-3 -5 -1 -10 4 -10 6 0 11 5 11 10 0 6 -2 10 -4 10 -3 0
-8 -4 -11 -10z"/>
<path d="M6911 3024 c0 -11 3 -14 6 -6 3 7 2 16 -1 19 -3 4 -6 -2 -5 -13z"/>
<path d="M6872 3000 c0 -14 2 -19 5 -12 2 6 2 18 0 25 -3 6 -5 1 -5 -13z"/>
<path d="M6908 2975 c-6 -30 -3 -43 8 -33 3 4 4 19 2 35 l-3 28 -7 -30z"/>
<path d="M10350 2975 c-10 -13 -10 -19 4 -34 10 -11 25 -21 35 -24 14 -3 16 1
13 25 -5 36 -35 54 -52 33z"/>
<path d="M10767 2963 c-25 -6 -17 -37 11 -41 15 -2 22 2 22 12 0 10 9 16 22
16 12 0 19 2 17 4 -9 7 -55 13 -72 9z"/>
<path d="M2914 2938 c-4 -7 -3 -8 4 -4 7 4 12 1 12 -8 0 -9 5 -16 10 -16 7 0
7 6 0 20 -12 23 -16 24 -26 8z"/>
<path d="M2976 2935 c4 -8 11 -15 16 -15 6 0 5 6 -2 15 -7 8 -14 15 -16 15 -2
0 -1 -7 2 -15z"/>
<path d="M4435 2904 c-49 -19 -124 -43 -165 -54 -42 -10 -109 -33 -149 -50
-41 -17 -116 -40 -168 -52 -51 -13 -93 -27 -93 -33 0 -18 69 -278 76 -284 3
-3 81 -8 172 -11 107 -3 175 -10 189 -18 49 -28 68 -114 38 -172 -27 -51 -119
-85 -263 -96 l-84 -7 4 -29 c6 -36 -10 -36 -42 1 -20 24 -31 28 -56 24 -21 -3
-35 -13 -43 -30 l-12 -26 -27 27 c-38 36 -93 36 -112 1 -7 -14 -17 -25 -21
-25 -4 0 -16 11 -27 25 -11 14 -25 25 -31 25 -6 0 -11 6 -11 14 0 20 -17 29
-26 15 -4 -8 -3 -9 4 -5 7 4 12 1 12 -8 0 -9 -6 -13 -14 -10 -8 3 -22 -10 -36
-33 l-22 -38 -22 28 c-30 37 -88 39 -104 2 -6 -14 -15 -25 -20 -25 -5 0 -19
11 -32 25 -34 36 -80 34 -103 -5 -20 -33 -38 -38 -57 -15 -17 20 -29 19 -86
-10 -27 -14 -66 -25 -86 -25 -21 0 -38 -4 -38 -10 0 -7 265 -10 775 -10 l775
0 0 465 c0 256 -1 465 -2 464 -2 -1 -43 -16 -93 -35z"/>
<path d="M10561 2927 c-10 -13 -7 -20 16 -41 32 -30 57 -30 61 -1 3 27 -8 42
-39 50 -17 4 -30 1 -38 -8z"/>
<path d="M6847 2881 c-4 -17 -3 -21 5 -13 5 5 8 16 6 23 -3 8 -7 3 -11 -10z"/>
<path d="M6897 2887 c-11 -29 -9 -43 4 -30 6 6 9 19 7 29 -3 18 -4 18 -11 1z"/>
<path d="M11354 2874 c1 -16 -2 -38 -7 -48 -7 -15 -6 -18 6 -13 11 4 14 2 10
-9 -6 -15 5 -18 23 -6 17 12 11 50 -12 79 l-21 27 1 -30z"/>
<path d="M3113 2867 c0 -7 -3 -24 -6 -39 -7 -25 -4 -28 32 -39 43 -13 97 -6
127 15 15 12 17 19 8 43 -10 29 -14 30 -77 20 -22 -3 -35 -2 -32 4 4 5 -7 9
-23 9 -16 0 -29 -5 -29 -13z"/>
<path d="M3385 2844 c3 -51 18 -79 38 -71 9 3 18 -1 21 -9 9 -23 8 -24 -13
-24 -14 0 -17 -6 -14 -24 4 -17 0 -26 -14 -30 -11 -4 -30 -17 -43 -31 l-23
-24 27 -36 c33 -43 57 -57 77 -44 11 7 11 9 -3 9 -24 0 -23 16 2 23 11 3 20
12 20 20 0 10 -7 13 -20 10 -15 -4 -20 0 -20 16 0 26 35 29 49 4 5 -10 12 -15
16 -11 12 11 -5 47 -26 53 -10 4 -19 11 -19 17 0 7 5 7 14 -1 10 -9 15 -8 19
3 3 8 3 17 -1 20 -6 7 -9 17 -19 69 -3 15 -12 27 -19 27 -17 0 -18 27 -1 33 6
3 0 6 -15 6 -16 1 -28 8 -31 19 -3 9 -4 -1 -2 -24z"/>
<path d="M10744 2865 c-9 -23 10 -40 25 -22 9 11 8 17 -4 27 -12 10 -16 9 -21
-5z"/>
<path d="M5440 2861 c-47 -9 -60 -18 -60 -41 0 -30 27 -31 58 -2 15 15 37 32
47 39 23 14 10 15 -45 4z"/>
<path d="M5632 2850 c7 -11 19 -18 25 -15 7 2 13 -2 13 -10 0 -23 17 -18 24 8
9 36 8 37 -34 37 -38 0 -39 -1 -28 -20z"/>
<path d="M5763 2846 c0 -20 5 -26 21 -26 12 0 27 9 34 20 10 16 10 20 0 20 -7
0 -23 3 -34 6 -18 5 -21 1 -21 -20z"/>
<path d="M6191 2857 c-39 -20 -39 -39 0 -35 26 2 35 8 37 26 4 25 -3 27 -37 9z"/>
<path d="M6260 2855 c0 -9 -7 -29 -15 -45 -21 -40 -6 -38 28 4 32 41 34 56 7
56 -11 0 -20 -7 -20 -15z"/>
<path d="M10550 2844 c0 -2 14 -11 31 -20 22 -11 34 -13 42 -5 7 7 6 12 -4 15
-22 7 -69 14 -69 10z"/>
<path d="M6891 2824 c0 -11 3 -14 6 -6 3 7 2 16 -1 19 -3 4 -6 -2 -5 -13z"/>
<path d="M9390 2826 c0 -2 7 -7 16 -10 8 -3 12 -2 9 4 -6 10 -25 14 -25 6z"/>
<path d="M9460 2820 c0 -5 5 -10 10 -10 6 0 10 5 10 10 0 6 -4 10 -10 10 -5 0
-10 -4 -10 -10z"/>
<path d="M11038 2789 c2 -16 13 -34 24 -40 31 -17 14 -21 -23 -5 -29 12 -36
12 -47 0 -7 -8 -10 -14 -6 -14 3 0 -4 -8 -17 -19 l-23 -18 28 -18 c15 -10 37
-19 49 -22 12 -2 36 -6 53 -9 21 -4 34 -1 43 10 11 13 9 19 -13 39 l-26 24 25
23 c41 39 28 66 -37 74 -33 4 -34 4 -30 -25z"/>
<path d="M10788 2803 c7 -3 16 -2 19 1 4 3 -2 6 -13 5 -11 0 -14 -3 -6 -6z"/>
<path d="M3033 2734 c5 -62 20 -99 46 -109 20 -8 28 4 11 16 -12 8 -9 10 11 6
l26 -4 -28 43 c-16 23 -29 46 -29 50 0 5 -10 20 -21 34 l-21 25 5 -61z"/>
<path d="M6172 2774 c10 -10 20 -15 24 -12 3 4 -5 12 -18 18 -22 12 -22 12 -6
-6z"/>
<path d="M10838 2756 c-4 -18 1 -27 16 -34 40 -19 51 -19 71 1 16 16 17 19 3
14 -11 -4 -19 0 -23 12 -5 16 -31 30 -56 31 -4 0 -9 -11 -11 -24z"/>
<path d="M3257 2753 c-4 -3 -37 -9 -73 -12 l-66 -6 66 -32 66 -32 15 29 c22
43 17 78 -8 53z"/>
<path d="M11328 2733 c6 -2 18 -2 25 0 6 3 1 5 -13 5 -14 0 -19 -2 -12 -5z"/>
<path d="M10710 2716 c0 -18 17 -29 48 -34 28 -4 28 12 0 32 -28 20 -48 20
-48 2z"/>
<path d="M3796 2675 c6 -31 4 -35 -22 -42 l-29 -7 30 -6 c22 -4 30 -11 29 -27
0 -11 7 -25 16 -31 14 -9 17 -6 18 20 0 16 4 43 7 60 5 21 4 28 -4 24 -10 -6
-16 13 -12 37 0 4 -8 7 -19 7 -18 0 -20 -4 -14 -35z"/>
<path d="M5315 2690 c-3 -5 -1 -18 4 -27 6 -10 11 -13 11 -6 0 6 3 18 6 27 7
17 -11 22 -21 6z"/>
<path d="M6057 2691 c-17 -6 -17 -8 -3 -20 13 -11 17 -11 22 3 8 21 4 25 -19
17z"/>
<path d="M3130 2680 c0 -5 5 -10 11 -10 5 0 7 5 4 10 -3 6 -8 10 -11 10 -2 0
-4 -4 -4 -10z"/>
<path d="M6811 2648 c0 -21 -10 -61 -20 -89 -14 -35 -16 -47 -6 -39 17 14 39
107 32 140 -3 19 -5 15 -6 -12z"/>
<path d="M3018 2636 c-1 -17 -2 -39 -1 -48 0 -10 -4 -18 -9 -18 -4 0 -8 -4 -8
-10 0 -5 13 -10 30 -10 21 0 38 -10 62 -37 69 -77 55 -72 197 -72 110 0 129 2
124 15 -7 20 -52 29 -74 15 -23 -14 -106 -15 -114 -1 -4 6 7 10 24 10 21 0 31
5 31 15 0 10 -10 15 -28 15 -15 0 -33 5 -39 11 -6 6 -19 9 -29 6 -15 -3 -12
-7 15 -19 32 -14 33 -16 13 -22 -12 -4 -27 -4 -34 0 -7 4 -4 -3 7 -16 l20 -23
-21 11 c-11 6 -26 18 -34 26 -7 9 -19 16 -26 16 -10 0 -13 8 -10 25 3 18 0 25
-10 25 -10 0 -14 8 -12 23 2 17 -8 34 -35 59 l-37 35 -2 -31z"/>
<path d="M3607 2663 c-2 -5 -5 -37 -5 -73 -1 -68 -14 -119 -35 -132 -7 -4 2
-8 20 -8 26 0 36 6 49 31 8 17 16 51 16 75 0 70 -28 136 -45 107z"/>
<path d="M11040 2578 c-15 -12 -18 -18 -7 -18 8 0 28 -3 45 -6 27 -5 31 -4 29
14 -2 28 -38 33 -67 10z"/>
<path d="M11259 2583 c-9 -50 -7 -53 31 -53 46 0 59 22 27 45 -23 16 -56 20
-58 8z"/>
<path d="M9297 2573 c-4 -3 -6 -25 -6 -47 l2 -41 7 45 c8 48 7 54 -3 43z"/>
<path d="M2890 2550 c0 -5 5 -10 10 -10 6 0 10 5 10 10 0 6 -4 10 -10 10 -5 0
-10 -4 -10 -10z"/>
<path d="M2773 2543 c-15 -5 -18 -33 -4 -33 8 0 25 30 19 35 -2 1 -9 0 -15 -2z"/>
<path d="M11360 2520 c19 -13 30 -13 30 0 0 6 -10 10 -22 10 -19 0 -20 -2 -8
-10z"/>
<path d="M2754 2484 c-4 -10 -9 -22 -11 -26 -2 -5 0 -8 6 -8 11 0 26 39 17 47
-3 3 -9 -3 -12 -13z"/>
<path d="M5870 2440 c-12 -8 -10 -10 8 -10 13 0 20 4 17 10 -7 12 -6 12 -25 0z"/>
<path d="M2743 2420 c-3 -11 -9 -17 -14 -14 -5 3 -9 -6 -9 -19 0 -14 -7 -30
-15 -37 -9 -7 -13 -21 -10 -31 4 -11 2 -19 -4 -19 -6 0 -8 -7 -4 -16 4 -12 11
-5 25 26 23 50 48 130 41 130 -3 0 -7 -9 -10 -20z"/>
<path d="M7411 2373 c-1 -60 2 -73 15 -73 13 0 14 8 8 47 -14 92 -22 102 -23
26z"/>
<path d="M2810 2312 c0 -5 9 -8 20 -7 29 2 33 10 5 13 -14 1 -25 -2 -25 -6z"/>
<path d="M2663 2214 c-16 -16 -17 -74 -3 -74 15 0 22 23 18 58 -2 25 -5 27
-15 16z"/>
<path d="M4993 2083 c48 -2 125 -2 170 0 45 1 6 3 -88 3 -93 0 -130 -2 -82 -3z"/>
<path d="M5423 2083 c97 -2 257 -2 355 0 97 1 17 2 -178 2 -195 0 -275 -1
-177 -2z"/>
<path d="M6028 2083 c23 -2 59 -2 80 0 20 2 1 4 -43 4 -44 0 -61 -2 -37 -4z"/>
<path d="M6393 2083 c130 -2 344 -2 475 0 130 1 23 2 -238 2 -261 0 -368 -1
-237 -2z"/>
</g>
</svg>
