<?xml version="1.0" standalone="no"?>
<!DOCTYPE svg PUBLIC "-//W3C//DTD SVG 20010904//EN"
 "http://www.w3.org/TR/2001/REC-SVG-20010904/DTD/svg10.dtd">
<svg version="1.0" xmlns="http://www.w3.org/2000/svg"
 width="1461.000000pt" height="697.000000pt" viewBox="0 0 1461.000000 697.000000"
 preserveAspectRatio="xMidYMid meet">

<g transform="translate(0.000000,697.000000) scale(0.100000,-0.100000)"
fill="#000000" stroke="none">
<path d="M5999 5938 c-8 -7 -12 -12 -10 -11 2 2 10 -2 17 -8 10 -8 19 -5 35
10 l23 21 -25 0 c-14 0 -32 -6 -40 -12z"/>
<path d="M6663 5943 c9 -2 17 -9 17 -14 0 -6 5 -7 10 -4 19 12 10 25 -17 24
-17 -1 -21 -3 -10 -6z"/>
<path d="M7983 5921 c-17 -16 -47 -60 -67 -99 -19 -38 -41 -72 -48 -75 -7 -3
-3 -6 8 -6 16 -1 25 10 38 43 23 60 69 122 109 146 26 16 28 20 12 20 -11 0
-35 -13 -52 -29z"/>
<path d="M8265 5923 c90 -46 135 -102 162 -206 22 -82 23 -401 1 -423 -11 -12
-27 -11 -100 3 -48 9 -89 15 -92 12 -2 -2 -6 -49 -8 -105 l-3 -101 56 -12 c30
-6 65 -11 78 -11 14 0 25 -7 28 -20 9 -35 18 -21 20 33 2 28 9 79 15 112 15
68 36 80 83 49 14 -9 28 -14 32 -11 3 3 -12 14 -33 24 -22 9 -41 19 -43 20 -2
2 -3 87 -2 190 2 189 -5 247 -41 329 -30 70 -120 144 -174 144 -27 -1 -25 -3
21 -27z"/>
<path d="M10600 5941 c0 -33 72 -56 84 -26 6 18 5 18 -28 5 -17 -6 -27 -6 -32
2 -5 7 -3 8 6 3 8 -5 11 -3 8 6 -5 16 -38 25 -38 10z"/>
<path d="M6565 5921 c-6 -11 13 -26 22 -17 4 3 1 6 -6 6 -7 0 -9 5 -6 10 3 6
4 10 1 10 -3 0 -7 -4 -11 -9z"/>
<path d="M3654 5883 c-12 -2 -26 -15 -32 -28 -9 -19 -7 -26 7 -39 26 -23 54
-19 68 9 9 21 8 28 -5 43 -10 10 -26 17 -38 15z m25 -34 c11 -20 11 -21 -4
-15 -13 5 -16 2 -11 -9 3 -10 2 -13 -5 -10 -5 4 -7 16 -3 27 4 15 3 18 -6 13
-9 -5 -11 -4 -6 3 10 17 19 15 35 -9z"/>
<path d="M5108 5878 c5 -5 16 -8 23 -6 8 3 3 7 -10 11 -17 4 -21 3 -13 -5z"/>
<path d="M6560 5881 c0 -5 5 -13 10 -16 6 -3 10 -2 10 4 0 5 -4 13 -10 16 -5
3 -10 2 -10 -4z"/>
<path d="M4191 5847 c4 -5 3 -24 -1 -43 -6 -26 -5 -34 6 -34 8 0 14 4 14 9 0
5 2 16 5 24 3 7 -2 22 -12 33 -10 11 -15 16 -12 11z"/>
<path d="M3987 5833 c-14 -13 -6 -23 16 -23 16 0 28 -9 35 -25 10 -21 32 -35
32 -20 0 11 -26 61 -35 67 -13 10 -40 10 -48 1z"/>
<path d="M4071 5831 c-12 -8 -12 -14 4 -37 11 -18 20 -24 23 -16 2 7 -1 18 -7
26 -7 9 -7 16 1 24 14 14 -1 16 -21 3z"/>
<path d="M10791 5784 c-7 -25 -20 -51 -28 -59 -33 -34 -163 -47 -199 -20 -27
20 -51 20 -34 0 7 -8 18 -15 25 -15 7 0 24 -9 38 -20 76 -60 217 19 217 121 0
22 -1 39 -3 39 -1 0 -9 -20 -16 -46z"/>
<path d="M2774 5803 c-9 -14 -8 -25 2 -45 19 -36 21 -35 16 7 -4 32 -2 35 22
35 19 0 26 -5 26 -20 0 -11 5 -20 10 -20 13 0 13 16 0 41 -13 24 -61 25 -76 2z"/>
<path d="M3880 5751 c-14 -28 -13 -42 8 -57 25 -19 56 -17 77 6 18 19 17 20
-2 20 -14 0 -23 9 -27 25 -8 30 -41 34 -56 6z"/>
<path d="M4120 5714 c-21 -24 -1 -68 33 -72 19 -2 27 1 27 12 0 8 5 16 12 18
7 3 9 14 4 31 -5 21 -12 27 -35 27 -16 0 -34 -7 -41 -16z"/>
<path d="M10098 5686 c-20 -7 -28 -17 -28 -33 0 -19 -6 -23 -32 -24 -18 -1
-36 -1 -39 -1 -3 1 -6 -5 -6 -13 0 -10 5 -11 18 -4 22 11 32 12 25 0 -8 -13
20 -18 117 -20 53 -1 87 2 87 8 0 14 -45 61 -58 61 -5 0 -12 7 -16 15 -3 8
-10 15 -16 15 -6 0 -8 -6 -5 -12 4 -7 1 -6 -7 2 -10 12 -19 14 -40 6z"/>
<path d="M9808 5653 c7 -3 16 -2 19 1 4 3 -2 6 -13 5 -11 0 -14 -3 -6 -6z"/>
<path d="M9858 5643 c7 -3 16 -2 19 1 4 3 -2 6 -13 5 -11 0 -14 -3 -6 -6z"/>
<path d="M6457 5623 c11 -10 24 -27 26 -38 4 -12 5 -9 4 9 -2 21 -9 31 -27 38
l-25 8 22 -17z"/>
<path d="M9853 5623 c9 -2 25 -2 35 0 9 3 1 5 -18 5 -19 0 -27 -2 -17 -5z"/>
<path d="M9485 5610 c-18 -8 -18 -9 5 -9 14 0 32 4 40 9 12 8 12 10 -5 9 -11
0 -29 -4 -40 -9z"/>
<path d="M6149 5590 c-7 -52 9 -90 37 -90 26 0 32 15 10 23 -20 8 -26 45 -9
62 13 13 11 15 -11 15 -14 0 -27 -4 -27 -10z"/>
<path d="M6401 5582 c-1 -27 23 -39 44 -22 23 19 18 33 -9 26 -15 -4 -26 -1
-29 7 -3 6 -6 2 -6 -11z"/>
<path d="M9392 5578 c-58 -22 -63 -33 -11 -23 34 6 77 31 68 39 -2 2 -28 -5
-57 -16z"/>
<path d="M9533 5565 c-29 -13 -53 -29 -53 -34 0 -9 102 39 119 55 12 11 -20 1
-66 -21z"/>
<path d="M4480 5576 c0 -2 8 -10 18 -17 15 -13 16 -12 3 4 -13 16 -21 21 -21
13z"/>
<path d="M5367 5552 c-25 -28 -21 -56 12 -75 27 -16 29 -16 44 1 19 20 13 60
-11 80 -21 16 -26 15 -45 -6z"/>
<path d="M6450 5549 c0 -5 5 -7 10 -4 6 3 10 8 10 11 0 2 -4 4 -10 4 -5 0 -10
-5 -10 -11z"/>
<path d="M2818 5523 c-16 -17 -15 -73 1 -73 15 0 51 32 46 41 -3 5 1 6 9 3 17
-7 21 4 8 22 -14 22 -48 25 -64 7z"/>
<path d="M9305 5532 c3 -3 -3 -11 -13 -19 -15 -12 -14 -12 7 -5 29 10 39 29
16 29 -8 0 -13 -3 -10 -5z"/>
<path d="M4533 5523 c-21 -8 -16 -71 7 -83 43 -23 92 44 58 78 -12 12 -43 15
-65 5z"/>
<path d="M9874 5514 c-18 -14 -18 -15 4 -4 12 6 22 13 22 15 0 8 -5 6 -26 -11z"/>
<path d="M10590 5520 c8 -5 20 -10 25 -10 6 0 3 5 -5 10 -8 5 -19 10 -25 10
-5 0 -3 -5 5 -10z"/>
<path d="M10645 5510 c-3 -5 -2 -10 4 -10 5 0 13 5 16 10 3 6 2 10 -4 10 -5 0
-13 -4 -16 -10z"/>
<path d="M9930 5491 c0 -6 4 -13 10 -16 6 -3 7 1 4 9 -7 18 -14 21 -14 7z"/>
<path d="M2850 5450 c-13 -8 -12 -10 3 -10 9 0 17 5 17 10 0 12 -1 12 -20 0z"/>
<path d="M9434 5452 c-6 -4 -8 -16 -4 -27 6 -17 7 -16 12 8 3 15 5 27 4 27 0
0 -6 -4 -12 -8z"/>
<path d="M5691 5434 c0 -11 3 -14 6 -6 3 7 2 16 -1 19 -3 4 -6 -2 -5 -13z"/>
<path d="M7812 5345 c-15 -140 -16 -135 9 -135 11 0 30 -5 41 -11 11 -6 49
-19 83 -29 l63 -18 1 108 2 108 -58 12 c-110 22 -117 25 -123 51 -4 14 -11
-20 -18 -86z"/>
<path d="M10827 5425 c5 -14 43 -28 43 -17 0 4 -11 12 -24 18 -19 9 -23 9 -19
-1z"/>
<path d="M10881 5409 c-1 -15 24 -44 38 -44 3 0 5 -3 4 -7 -4 -12 15 -10 22 2
3 6 -1 13 -9 16 -9 3 -16 12 -16 20 0 17 -20 19 -21 2 0 -7 -4 -4 -9 7 -7 15
-9 16 -9 4z"/>
<path d="M10202 5405 c4 -4 3 -14 -3 -21 -6 -7 -6 -15 -1 -18 6 -3 12 3 15 14
3 11 0 23 -6 27 -7 3 -9 3 -5 -2z"/>
<path d="M4938 5392 c0 -4 -2 -11 -3 -17 -6 -30 -18 -42 -36 -38 -10 3 -19 9
-19 14 0 5 -6 9 -12 9 -7 0 0 -12 17 -27 25 -22 26 -25 7 -19 -13 5 -22 3 -22
-3 0 -6 5 -11 10 -11 6 0 10 -8 10 -17 0 -11 3 -14 8 -7 12 18 44 25 58 13 8
-6 14 -23 14 -36 0 -18 4 -24 15 -19 11 4 15 -2 15 -20 0 -41 25 -22 27 20 1
29 -2 36 -14 32 -7 -3 -11 -1 -8 4 3 5 -1 23 -10 40 -8 16 -15 31 -14 32 1 2
-1 13 -5 25 -7 21 -34 40 -38 25z"/>
<path d="M9766 5383 c-6 -14 -5 -15 5 -6 7 7 10 15 7 18 -3 3 -9 -2 -12 -12z"/>
<path d="M5512 5370 c-14 -23 -15 -30 -4 -30 4 0 12 11 19 25 13 30 3 33 -15
5z"/>
<path d="M4342 5349 c-5 -13 -10 -44 -11 -69 0 -24 -4 -53 -7 -63 -3 -10 0
-24 6 -32 14 -17 60 -20 60 -5 0 6 -4 10 -10 10 -5 0 -10 7 -10 16 0 13 7 15
29 11 25 -5 31 -2 37 15 4 13 2 24 -5 26 -15 5 -14 22 2 22 16 0 84 -73 99
-106 6 -13 15 -24 20 -24 5 0 7 -4 4 -9 -5 -8 41 -101 50 -101 6 0 0 33 -9 47
-4 6 -2 13 4 15 7 2 13 16 15 32 2 22 -1 26 -13 22 -14 -6 -14 -4 -2 11 12 15
12 16 -2 11 -11 -4 -21 2 -29 18 -8 13 -17 24 -22 24 -4 0 -8 9 -8 19 0 10
-16 34 -35 53 -59 56 -63 59 -68 45 -4 -9 -6 -9 -6 1 -1 18 -18 15 -25 -5 -4
-9 -1 -20 6 -25 9 -5 6 -8 -10 -8 -22 0 -31 11 -36 44 -4 27 -15 29 -24 5z
m71 -90 c3 -10 1 -21 -4 -24 -14 -10 -45 12 -46 33 -1 15 4 18 22 14 13 -2 25
-13 28 -23z"/>
<path d="M5230 5352 c0 -10 22 -32 32 -32 5 0 3 9 -4 20 -13 20 -28 27 -28 12z"/>
<path d="M10676 5335 c4 -8 11 -15 16 -15 6 0 5 6 -2 15 -7 8 -14 15 -16 15
-2 0 -1 -7 2 -15z"/>
<path d="M4760 5315 c0 -8 5 -15 10 -15 6 0 10 7 10 15 0 8 -4 15 -10 15 -5 0
-10 -7 -10 -15z"/>
<path d="M10966 5278 c31 -63 64 -87 64 -48 0 11 -4 20 -10 20 -5 0 -10 7 -10
16 0 8 -4 13 -8 10 -5 -3 -15 4 -22 15 -23 31 -32 22 -14 -13z"/>
<path d="M5260 5285 c0 -9 5 -15 11 -13 6 2 11 8 11 13 0 5 -5 11 -11 13 -6 2
-11 -4 -11 -13z"/>
<path d="M4745 5280 c3 -5 10 -10 16 -10 5 0 9 5 9 10 0 6 -7 10 -16 10 -8 0
-12 -4 -9 -10z"/>
<path d="M6856 5275 c4 -8 8 -15 10 -15 2 0 4 7 4 15 0 8 -4 15 -10 15 -5 0
-7 -7 -4 -15z"/>
<path d="M11140 5281 c0 -6 5 -13 10 -16 6 -3 10 1 10 9 0 9 -4 16 -10 16 -5
0 -10 -4 -10 -9z"/>
<path d="M5545 5260 c-3 -11 -15 -20 -25 -20 -29 0 -50 -11 -50 -26 0 -8 -4
-14 -10 -14 -5 0 -10 -7 -10 -16 0 -10 -5 -14 -15 -10 -9 3 -18 -1 -21 -9 -4
-8 -10 -12 -15 -9 -5 3 -9 -1 -9 -9 0 -8 6 -17 14 -20 15 -6 74 27 91 50 15
20 72 -5 67 -29 -4 -19 5 -23 26 -9 10 6 11 13 1 34 -7 15 -16 27 -20 27 -4 0
-5 15 -2 34 6 37 -12 58 -22 26z"/>
<path d="M5490 5260 c0 -5 5 -10 11 -10 5 0 7 5 4 10 -3 6 -8 10 -11 10 -2 0
-4 -4 -4 -10z"/>
<path d="M9671 5254 c0 -11 3 -14 6 -6 3 7 2 16 -1 19 -3 4 -6 -2 -5 -13z"/>
<path d="M10400 5266 c0 -2 8 -10 18 -17 15 -13 16 -12 3 4 -13 16 -21 21 -21
13z"/>
<path d="M11225 5260 c-7 -12 2 -30 16 -30 12 0 12 27 0 35 -5 3 -12 1 -16 -5z"/>
<path d="M4634 5239 c-3 -6 -2 -15 4 -21 7 -7 14 -3 21 11 10 17 9 21 -3 21
-8 0 -18 -5 -22 -11z"/>
<path d="M4804 5232 c1 -24 33 -56 41 -42 3 5 2 10 -4 10 -6 0 -13 11 -17 25
-7 29 -22 34 -20 7z"/>
<path d="M9325 5240 c-3 -6 1 -7 9 -4 18 7 21 14 7 14 -6 0 -13 -4 -16 -10z"/>
<path d="M8554 5196 c-2 -70 -32 -239 -45 -246 -13 -8 0 -38 24 -59 16 -13
194 -37 204 -27 9 8 32 144 32 190 l1 38 38 -6 c33 -5 34 -4 12 6 -124 55
-198 93 -229 117 l-36 29 -1 -42z"/>
<path d="M10770 5235 c0 -5 12 -23 26 -40 14 -16 21 -21 15 -10 -14 30 -40 61
-41 50z"/>
<path d="M5963 5193 c6 -36 23 -56 39 -47 14 9 8 24 -9 24 -17 1 -17 2 1 15
10 7 16 20 13 27 -4 10 -6 10 -6 1 -1 -18 -21 -16 -21 2 0 8 -5 15 -11 15 -8
0 -10 -13 -6 -37z"/>
<path d="M5625 5210 c-3 -5 -1 -10 4 -10 6 0 11 5 11 10 0 6 -2 10 -4 10 -3 0
-8 -4 -11 -10z"/>
<path d="M10376 5192 c-3 -5 1 -9 9 -9 8 0 12 4 9 9 -3 4 -7 8 -9 8 -2 0 -6
-4 -9 -8z"/>
<path d="M5295 5181 c-3 -5 -1 -12 5 -16 5 -3 10 1 10 9 0 18 -6 21 -15 7z"/>
<path d="M2461 5130 l1 -45 11 33 c7 24 7 36 -1 44 -9 9 -12 1 -11 -32z"/>
<path d="M4410 5162 c0 -5 7 -13 16 -16 10 -4 14 -1 12 6 -5 15 -28 23 -28 10z"/>
<path d="M4840 5151 c0 -19 17 -38 25 -29 7 7 -7 48 -16 48 -5 0 -9 -9 -9 -19z"/>
<path d="M10820 5155 c0 -5 9 -23 20 -40 11 -16 20 -25 20 -20 0 6 -9 24 -20
40 -11 17 -20 26 -20 20z"/>
<path d="M8967 5143 c-12 -12 -7 -22 8 -17 8 4 15 10 15 15 0 11 -14 12 -23 2z"/>
<path d="M10218 5143 c6 -2 18 -2 25 0 6 3 1 5 -13 5 -14 0 -19 -2 -12 -5z"/>
<path d="M4385 5130 c3 -5 14 -10 23 -10 15 0 15 2 2 10 -20 13 -33 13 -25 0z"/>
<path d="M2898 5103 c-50 -8 -42 -93 9 -93 13 0 30 11 39 25 15 23 15 27 0 50
-9 14 -17 24 -19 24 -1 -1 -14 -4 -29 -6z"/>
<path d="M4520 5096 c0 -8 5 -18 10 -21 6 -3 10 1 10 9 0 8 -4 18 -10 21 -5 3
-10 -1 -10 -9z"/>
<path d="M4960 5100 c0 -5 5 -10 10 -10 6 0 10 5 10 10 0 6 -4 10 -10 10 -5 0
-10 -4 -10 -10z"/>
<path d="M5750 5100 c0 -5 5 -10 11 -10 5 0 7 5 4 10 -3 6 -8 10 -11 10 -2 0
-4 -4 -4 -10z"/>
<path d="M3765 5090 c-10 -17 4 -65 26 -89 15 -16 19 -29 14 -49 -5 -23 -2
-28 16 -29 12 -1 28 4 35 12 12 12 11 15 -6 20 -11 4 -18 10 -16 13 2 4 -4 18
-14 32 -17 22 -17 25 -2 37 14 10 15 12 2 13 -21 0 -44 37 -27 43 7 3 5 6 -5
6 -9 1 -20 -4 -23 -9z"/>
<path d="M3840 5089 c-11 -8 -12 -12 -2 -16 6 -2 12 -11 12 -19 0 -8 4 -14 9
-14 5 0 7 -9 4 -20 -3 -11 0 -20 6 -20 6 0 11 4 11 10 0 5 18 8 39 5 40 -4 63
-20 94 -68 9 -15 24 -27 32 -27 7 0 17 -10 21 -22 4 -13 13 -32 21 -43 14 -19
14 -17 8 15 -4 19 -11 37 -16 38 -5 2 -7 7 -4 12 9 15 -18 60 -37 60 -10 0
-18 7 -18 15 0 8 -7 15 -15 15 -9 0 -18 6 -21 13 -2 7 -14 14 -27 14 -12 1
-28 10 -35 20 -7 10 -16 17 -20 15 -4 -1 -15 5 -25 13 -20 18 -18 17 -37 4z
m48 -54 c-3 -3 -9 2 -12 12 -6 14 -5 15 5 6 7 -7 10 -15 7 -18z"/>
<path d="M4045 5081 c-6 -11 9 -23 19 -14 9 9 7 23 -3 23 -6 0 -12 -4 -16 -9z"/>
<path d="M5310 5073 c0 -13 5 -23 10 -23 13 0 13 11 0 30 -8 12 -10 11 -10 -7z"/>
<path d="M10190 5071 c0 -21 22 -33 45 -25 18 7 19 16 3 32 -19 19 -48 15 -48
-7z"/>
<path d="M5750 5064 c0 -8 5 -12 10 -9 6 4 8 11 5 16 -9 14 -15 11 -15 -7z"/>
<path d="M2644 5048 l-19 -23 25 20 c14 11 27 21 29 22 2 2 0 3 -6 3 -5 0 -18
-10 -29 -22z"/>
<path d="M4356 5053 c6 -4 14 -15 17 -23 5 -11 6 -9 4 4 -1 11 -9 21 -17 23
-10 3 -11 2 -4 -4z"/>
<path d="M4516 5037 c3 -10 9 -15 12 -12 3 3 0 11 -7 18 -10 9 -11 8 -5 -6z"/>
<path d="M4470 5020 c0 -5 5 -10 10 -10 6 0 10 5 10 10 0 6 -4 10 -10 10 -5 0
-10 -4 -10 -10z"/>
<path d="M5740 5005 c0 -8 4 -15 8 -15 5 0 9 7 9 15 0 8 -4 15 -9 15 -4 0 -8
-7 -8 -15z"/>
<path d="M4490 4991 c0 -5 5 -13 10 -16 6 -3 10 -2 10 4 0 5 -4 13 -10 16 -5
3 -10 2 -10 -4z"/>
<path d="M3885 4970 c10 -11 20 -18 23 -15 7 6 -18 35 -31 35 -5 0 -2 -9 8
-20z"/>
<path d="M9375 4944 c-3 -20 -9 -33 -13 -29 -7 6 -8 10 -11 36 0 5 -5 8 -10 5
-5 -4 -12 0 -14 6 -3 7 -6 2 -6 -10 -1 -15 -9 -26 -21 -29 -14 -4 -20 -14 -20
-34 0 -23 -4 -29 -22 -29 -29 -1 -62 -25 -53 -40 5 -8 11 -6 19 5 8 11 22 15
41 12 30 -4 30 -4 -3 -6 -28 -1 -32 -4 -27 -20 4 -14 0 -23 -15 -31 -25 -13
-26 -37 -3 -62 17 -19 16 -20 -4 -36 -11 -9 -26 -28 -34 -42 -11 -23 -9 -22
25 8 41 36 59 43 31 12 -21 -23 -9 -26 19 -5 11 8 26 15 34 15 12 0 12 -3 2
-15 -7 -9 -19 -14 -27 -11 -7 3 -13 1 -13 -5 0 -6 -10 -9 -22 -7 -29 4 -31
-24 -3 -32 27 -7 27 -59 1 -81 -12 -10 -16 -21 -11 -28 6 -11 9 -10 17 0 8 11
9 11 5 -1 -3 -11 -15 -14 -42 -12 -56 5 -85 -5 -85 -28 0 -11 4 -20 8 -20 5 0
15 -11 22 -25 7 -13 29 -32 49 -41 20 -9 46 -23 58 -31 l22 -15 -35 -75 c-40
-89 -41 -100 -11 -105 16 -3 33 8 63 39 36 38 47 43 78 41 20 -1 36 -6 36 -11
0 -4 5 -5 10 -2 6 3 10 -1 10 -9 0 -20 19 -21 26 -1 4 8 10 13 14 10 14 -9 90
76 90 101 0 22 -4 24 -56 24 -40 0 -70 -7 -106 -25 -56 -28 -65 -30 -50 -12 5
6 13 27 17 45 8 40 36 49 89 27 61 -26 128 2 96 40 -5 6 -7 15 -3 18 8 9 -27
47 -44 47 -7 0 -13 8 -13 17 0 13 3 14 12 5 19 -19 27 -14 34 23 3 20 12 35
20 35 20 0 37 39 30 70 -4 21 -1 27 11 26 23 -1 42 62 23 74 -9 6 -13 28 -11
75 3 72 -11 104 -35 84 -11 -9 -15 -7 -19 5 -3 9 -7 23 -10 31 -4 12 -9 13
-24 6 -16 -9 -19 -6 -25 19 -3 17 -10 30 -16 30 -7 0 -9 -8 -5 -20 4 -11 2
-20 -4 -20 -6 0 -11 -7 -11 -16 0 -8 -5 -12 -10 -9 -7 4 -7 12 0 25 14 26 13
35 -3 22 -10 -8 -16 -6 -25 9 -18 28 -29 23 -37 -17z m48 -47 c22 -70 22 -79
-5 -75 -21 3 -23 9 -26 66 -2 34 1 62 6 62 4 0 16 -24 25 -53z m57 9 c0 -7 -7
-19 -15 -26 -9 -8 -15 -9 -15 -2 0 6 5 14 10 17 6 4 8 11 5 16 -4 5 -1 9 4 9
6 0 11 -6 11 -14z m-160 -16 c0 -5 7 -10 15 -10 8 0 22 -16 31 -36 16 -32 16
-37 1 -51 -15 -15 -18 -14 -38 12 -24 29 -37 95 -19 95 5 0 10 -4 10 -10z m60
0 c0 -5 -5 -10 -11 -10 -5 0 -7 5 -4 10 3 6 8 10 11 10 2 0 4 -4 4 -10z m146
-43 c-3 -19 -15 -42 -24 -51 -17 -15 -19 -14 -32 9 -11 20 -11 27 0 40 7 8 9
15 4 15 -5 0 2 9 16 20 31 24 44 12 36 -33z m55 -20 c-10 -9 -11 -8 -5 6 3 10
9 15 12 12 3 -3 0 -11 -7 -18z m-1 -45 c0 -35 -64 -73 -74 -46 -12 30 -6 41
27 52 45 14 47 14 47 -6z m-261 -28 c26 -6 30 -10 25 -28 -4 -11 -8 -23 -10
-25 -9 -10 -85 22 -94 39 -10 18 -7 20 18 20 16 0 44 -3 61 -6z m219 -117 c24
-22 29 -47 10 -47 -19 0 -58 42 -58 62 0 21 11 18 48 -15z m-174 5 c15 -18 15
-20 -1 -34 -18 -16 -77 -48 -88 -48 -22 0 38 99 61 100 6 0 18 -8 28 -18z m84
-62 c2 -18 1 -44 -3 -57 -5 -20 -8 -23 -20 -13 -15 13 -21 91 -8 104 14 14 28
-2 31 -34z m-108 -83 c0 -5 -4 -5 -10 -2 -5 3 -10 14 -10 23 0 15 2 15 10 2 5
-8 10 -19 10 -23z m-40 -98 c0 -16 -3 -18 -18 -10 -10 5 -18 19 -19 30 -2 18
1 19 18 11 10 -6 19 -20 19 -31z m200 37 c0 -2 -7 -7 -16 -10 -8 -3 -12 -2 -9
4 6 10 25 14 25 6z m-255 -16 c3 -5 1 -10 -4 -10 -6 0 -11 5 -11 10 0 6 2 10
4 10 3 0 8 -4 11 -10z m75 -94 c0 -3 -4 -8 -10 -11 -5 -3 -10 -1 -10 4 0 6 5
11 10 11 6 0 10 -2 10 -4z m97 -52 c-3 -3 -12 -4 -19 -1 -8 3 -5 6 6 6 11 1
17 -2 13 -5z"/>
<path d="M4510 4950 c0 -5 5 -10 11 -10 5 0 7 5 4 10 -3 6 -8 10 -11 10 -2 0
-4 -4 -4 -10z"/>
<path d="M3017 4933 c-10 -9 -9 -33 1 -33 4 0 8 9 9 20 2 21 0 24 -10 13z"/>
<path d="M3080 4909 c0 -5 -4 -7 -10 -4 -5 3 -10 -1 -10 -9 0 -23 25 -19 27 4
1 11 0 20 -3 20 -2 0 -4 -5 -4 -11z"/>
<path d="M4540 4909 c0 -5 9 -9 20 -9 11 0 20 2 20 4 0 2 -9 6 -20 9 -11 3
-20 1 -20 -4z"/>
<path d="M5787 4914 c-10 -11 2 -24 17 -18 7 3 19 -2 26 -10 7 -9 16 -13 21
-10 5 3 6 -1 4 -8 -6 -16 -55 -22 -55 -7 0 19 -18 0 -28 -31 -11 -29 -10 -29
21 -23 18 3 35 11 39 17 5 8 8 7 8 -1 0 -14 41 -8 50 8 4 6 10 10 14 9 3 0 14
3 22 8 13 7 14 13 6 28 -7 12 -12 14 -12 5 0 -11 -3 -11 -15 -1 -12 10 -15 9
-15 -6 -1 -18 -1 -18 -11 -1 -6 11 -26 25 -45 33 -38 16 -39 16 -47 8z"/>
<path d="M6000 4902 c0 -10 -4 -12 -12 -5 -20 16 -50 12 -43 -4 3 -8 5 -22 5
-31 0 -12 3 -13 12 -4 36 36 35 -23 -1 -98 -20 -41 -20 -60 0 -60 5 0 9 9 9
20 0 11 5 20 10 20 6 0 10 14 10 30 0 17 5 30 10 30 6 0 10 6 10 14 0 8 7 17
16 20 8 3 13 10 9 16 -3 5 -2 18 4 28 5 10 7 23 3 29 -10 15 -42 12 -42 -5z"/>
<path d="M9045 4880 c-5 -14 -12 -19 -25 -15 -19 6 -35 -19 -23 -38 4 -6 0 -8
-10 -4 -26 10 -47 -3 -47 -28 0 -13 -7 -26 -16 -29 -11 -4 -15 -14 -12 -31 3
-14 0 -26 -7 -29 -8 -3 -13 -24 -13 -55 0 -63 21 -86 67 -74 28 7 37 20 81
117 54 118 61 163 31 190 -18 17 -20 16 -26 -4z m5 -92 c0 -5 -4 -8 -8 -8 -12
0 -32 46 -24 54 6 6 31 -31 32 -46z m-47 -2 c9 -7 17 -24 17 -37 l-1 -24 -24
28 c-37 41 -32 63 8 33z m-9 -68 c-3 -4 -8 -7 -12 -5 -4 2 -15 7 -25 10 -10 4
-16 11 -12 17 4 6 15 5 30 -2 13 -6 22 -15 19 -20z m-19 -38 c-3 -5 -16 -10
-28 -9 -21 0 -21 1 -2 9 28 12 37 12 30 0z"/>
<path d="M3025 4870 c-8 -12 25 -21 42 -11 12 6 10 9 -11 13 -15 3 -29 2 -31
-2z"/>
<path d="M4020 4870 c0 -5 5 -10 11 -10 5 0 7 5 4 10 -3 6 -8 10 -11 10 -2 0
-4 -4 -4 -10z"/>
<path d="M4550 4873 c0 -4 9 -14 21 -21 18 -12 20 -11 17 5 -3 17 -38 32 -38
16z"/>
<path d="M6070 4871 c0 -5 5 -13 10 -16 6 -3 10 -2 10 4 0 5 -4 13 -10 16 -5
3 -10 2 -10 -4z"/>
<path d="M10303 4861 c-16 -10 -37 -31 -48 -47 -10 -16 -31 -42 -46 -58 -25
-26 -32 -28 -54 -18 -13 6 -33 9 -42 5 -15 -5 -16 -4 -5 8 7 7 30 14 52 14 46
0 53 11 12 20 -36 8 -75 -7 -96 -36 -18 -26 -3 -44 24 -29 12 6 17 5 17 -6 0
-7 -3 -14 -7 -14 -16 0 -74 -58 -95 -95 -33 -57 -40 -99 -20 -119 24 -23 32
-20 59 23 14 22 34 46 46 54 11 7 18 16 15 19 -3 2 2 5 10 5 18 0 20 -13 4
-23 -36 -22 -64 -165 -40 -203 21 -33 59 -15 65 31 5 39 18 82 28 95 6 7 8 19
5 26 -3 8 0 14 7 14 9 0 11 -11 6 -37 -4 -22 -1 -59 7 -90 7 -29 12 -53 11
-54 -84 -36 -130 -66 -205 -131 -56 -50 -74 -154 -29 -171 20 -8 93 32 107 58
7 13 13 44 13 69 1 26 4 45 9 42 4 -2 7 0 7 5 0 15 95 62 108 53 10 -6 13 -39
11 -120 -2 -130 8 -153 58 -135 27 9 28 13 33 84 l5 75 18 -27 c10 -14 25 -29
33 -32 19 -7 61 20 69 45 5 16 12 19 36 14 57 -13 100 25 78 67 -15 27 -39 52
-63 65 -25 14 -92 0 -127 -26 -15 -11 -31 -21 -34 -21 -3 0 -5 27 -5 60 0 59
1 60 24 54 53 -13 77 95 35 162 -13 21 -16 32 -7 29 7 -3 24 -23 37 -45 30
-48 44 -54 73 -31 21 18 21 21 8 60 -15 46 -60 91 -91 91 -21 0 -23 8 -9 30 7
12 10 12 10 1 0 -7 6 -11 15 -7 8 3 15 0 15 -6 0 -6 3 -9 6 -5 4 3 26 -7 50
-23 23 -17 49 -30 57 -30 46 0 10 83 -58 135 -29 21 -49 28 -82 28 -43 0 -43
0 -25 21 11 12 22 31 25 44 8 34 -20 28 -60 -14 -19 -20 -36 -34 -39 -31 -4 3
3 16 15 28 42 46 17 81 -36 50z m21 -38 c-31 -48 -75 -73 -53 -30 18 34 41 57
57 57 12 0 11 -5 -4 -27z m74 -15 c-8 -12 -25 -29 -39 -37 -23 -15 -24 -15 -9
4 29 40 43 55 53 55 5 0 3 -10 -5 -22z m99 -98 c12 -10 19 -20 16 -24 -3 -3
-1 -6 5 -6 7 0 12 -4 12 -9 0 -5 -17 0 -37 10 -21 10 -52 19 -70 19 -22 0 -33
5 -33 14 0 30 67 27 107 -4z m-342 -58 c-3 -8 -5 -17 -5 -22 0 -4 -15 -13 -32
-21 -18 -7 -46 -26 -61 -42 -60 -60 -40 5 22 75 37 42 44 46 62 35 10 -6 17
-18 14 -25z m287 -56 c19 -14 42 -66 30 -66 -4 0 -26 18 -47 40 -32 33 -36 40
-20 40 11 0 28 -6 37 -14z m-283 -83 c-17 -29 -35 -66 -39 -81 -8 -26 -8 -26
-9 7 -1 47 44 142 64 135 13 -5 10 -16 -16 -61z m217 1 c8 -20 14 -48 12 -63
-3 -23 -7 -18 -34 37 -28 56 -29 62 -12 62 12 0 24 -13 34 -36z m-110 -65 c0
-43 -2 -79 -6 -79 -14 0 -29 67 -24 105 14 96 29 83 30 -26z m52 -2 c-4 -51
-18 -34 -18 21 1 35 3 43 10 30 6 -9 9 -32 8 -51z m-16 -145 c1 -18 6 -32 10
-32 4 0 8 -5 8 -11 0 -5 -4 -7 -10 -4 -5 3 -10 -3 -10 -14 0 -11 -3 -22 -7
-24 -5 -3 -8 14 -7 36 0 23 -4 48 -10 55 -7 10 -6 16 4 22 18 11 19 10 22 -28z
m-92 11 c0 -5 -20 -17 -43 -27 -23 -11 -52 -30 -65 -43 -13 -13 -27 -23 -33
-23 -6 0 -7 -5 -3 -12 4 -6 3 -8 -4 -4 -6 3 -13 -3 -17 -14 -3 -11 -10 -20
-15 -20 -5 0 -7 8 -4 18 5 14 3 14 -11 -3 -11 -12 -16 -14 -13 -5 5 15 104 87
167 120 42 22 41 22 41 13z m120 3 c0 -3 -4 -8 -10 -11 -5 -3 -10 -1 -10 4 0
6 5 11 10 11 6 0 10 -2 10 -4z m193 -45 c24 -15 26 -19 11 -25 -16 -6 -40 6
-56 29 -4 6 -8 0 -8 -12 0 -14 10 -28 28 -37 16 -9 21 -16 12 -17 -29 -3 -45
3 -67 24 l-23 20 -1 -24 c-1 -13 -1 -27 -1 -30 1 -4 -7 -5 -18 -2 -11 3 -17 9
-14 14 5 9 -9 13 -35 9 -13 -1 -13 1 -2 14 7 9 17 13 22 10 5 -3 9 0 9 6 0 14
57 39 90 40 14 0 38 -8 53 -19z m-256 -43 c-3 -7 -5 -2 -5 12 0 14 2 19 5 13
2 -7 2 -19 0 -25z m44 -45 c-22 -17 -32 -16 -25 2 4 8 10 12 15 9 5 -3 9 5 10
18 0 21 1 22 8 3 6 -14 3 -24 -8 -32z m-237 -9 c3 -8 2 -12 -4 -9 -6 3 -10 10
-10 16 0 14 7 11 14 -7z m183 -26 c-3 -7 -5 -2 -5 12 0 14 2 19 5 13 2 -7 2
-19 0 -25z m63 12 c0 -5 -6 -10 -14 -10 -9 0 -16 -13 -19 -32 l-4 -33 -1 37
c-2 27 2 38 16 41 9 3 18 5 20 6 1 0 2 -3 2 -9z m-290 -59 c0 -5 -7 -11 -15
-15 -9 -3 -15 0 -15 9 0 8 7 15 15 15 8 0 15 -4 15 -9z"/>
<path d="M3149 4845 c-1 -3 -2 -11 -3 -17 -1 -7 -7 -12 -14 -10 -18 3 -15 -55
4 -62 24 -9 49 -7 61 5 17 17 0 71 -25 80 -12 5 -23 6 -23 4z m21 -55 c0 -5
-4 -10 -10 -10 -5 0 -10 5 -10 10 0 6 5 10 10 10 6 0 10 -4 10 -10z"/>
<path d="M6683 4839 c9 -5 17 -18 18 -27 0 -11 2 -12 6 -4 6 15 -14 42 -31 42
-6 0 -3 -5 7 -11z"/>
<path d="M6060 4830 c0 -5 4 -10 9 -10 6 0 13 5 16 10 3 6 -1 10 -9 10 -9 0
-16 -4 -16 -10z"/>
<path d="M6636 4803 c-6 -14 -5 -15 5 -6 7 7 10 15 7 18 -3 3 -9 -2 -12 -12z"/>
<path d="M6039 4805 c-1 -3 -3 -9 -4 -15 -1 -5 -3 -15 -4 -21 0 -5 -5 -7 -11
-4 -6 3 -7 -1 -4 -10 4 -8 1 -21 -4 -28 -8 -10 -6 -13 8 -13 25 0 50 64 30 76
-9 6 -9 9 1 13 10 4 10 6 2 6 -7 1 -14 -1 -14 -4z"/>
<path d="M5906 4785 c-3 -8 -1 -15 4 -15 13 0 22 18 11 24 -5 3 -11 -1 -15 -9z"/>
<path d="M5730 4780 c0 -5 9 -10 21 -10 11 0 17 5 14 10 -3 6 -13 10 -21 10
-8 0 -14 -4 -14 -10z"/>
<path d="M4096 4745 c14 -10 15 -14 5 -15 -21 0 -1 -16 29 -23 21 -5 26 -3 26
13 0 10 -4 16 -8 14 -4 -3 -18 2 -30 10 -28 20 -48 21 -22 1z"/>
<path d="M3665 4700 c-3 -5 -2 -10 4 -10 5 0 13 5 16 10 3 6 2 10 -4 10 -5 0
-13 -4 -16 -10z"/>
<path d="M5934 4689 c-3 -5 9 -9 25 -9 17 0 31 2 31 4 0 8 -51 13 -56 5z"/>
<path d="M5680 4681 c0 -5 7 -12 16 -15 14 -5 15 -4 4 9 -14 17 -20 19 -20 6z"/>
<path d="M3285 4670 c3 -5 10 -10 16 -10 5 0 9 5 9 10 0 6 -7 10 -16 10 -8 0
-12 -4 -9 -10z"/>
<path d="M3356 4671 c-10 -16 62 -43 119 -43 28 0 82 -11 122 -24 39 -13 78
-21 86 -18 8 3 21 -2 30 -10 17 -18 47 -21 47 -6 0 6 -7 10 -15 10 -8 0 -15 9
-15 20 0 11 -5 20 -11 20 -5 0 -8 4 -5 9 3 5 -1 14 -9 21 -8 7 -16 9 -16 4 -1
-5 -2 -15 -3 -23 -1 -17 -26 -28 -26 -12 0 6 -6 11 -14 11 -8 0 -21 6 -28 14
-8 7 -27 14 -43 14 -17 0 -34 1 -40 2 -5 2 -26 4 -45 6 -19 1 -56 6 -81 10
-30 4 -49 2 -53 -5z"/>
<path d="M5799 4675 c-1 -3 -2 -8 -3 -12 -1 -5 -5 -14 -10 -21 -15 -25 -1 -20
27 9 26 27 27 29 8 29 -12 0 -22 -2 -22 -5z"/>
<path d="M6195 4650 c-3 -5 -1 -10 4 -10 6 0 11 5 11 10 0 6 -2 10 -4 10 -3 0
-8 -4 -11 -10z"/>
<path d="M3296 4643 c-11 -11 -6 -23 8 -23 8 0 17 4 20 9 7 10 -19 23 -28 14z"/>
<path d="M4880 4643 c0 -5 5 -15 10 -23 8 -12 10 -11 10 8 0 12 -4 22 -10 22
-5 0 -10 -3 -10 -7z"/>
<path d="M3323 4613 c-16 -6 -17 -33 -2 -33 6 0 9 -6 6 -14 -3 -8 1 -20 8 -26
8 -7 13 -16 10 -20 -3 -5 7 -19 22 -32 16 -12 36 -36 46 -51 10 -15 23 -25 29
-21 7 4 8 3 4 -4 -4 -6 -2 -21 5 -33 14 -26 -3 -65 -33 -72 -16 -5 -17 -3 -7
9 6 8 9 17 7 20 -3 3 -16 -9 -28 -25 -12 -17 -27 -31 -34 -31 -23 0 -66 -25
-66 -38 0 -7 -4 -10 -10 -7 -5 3 -10 -1 -10 -9 0 -9 8 -16 18 -17 14 0 13 -3
-5 -16 -13 -8 -23 -22 -23 -30 0 -8 -5 -11 -11 -8 -6 4 -8 14 -5 22 4 9 1 13
-6 11 -7 -3 -15 -16 -18 -29 -3 -13 -13 -39 -23 -57 -13 -24 -16 -42 -11 -65
4 -18 7 -38 5 -46 -3 -17 17 -68 41 -103 13 -19 15 -28 7 -28 -7 0 -9 -3 -6
-7 4 -3 -1 -12 -11 -19 -9 -7 -14 -15 -10 -19 3 -4 16 3 27 14 24 24 51 28 51
6 0 -8 3 -14 8 -13 4 1 16 -3 27 -9 11 -6 42 -13 70 -15 41 -3 52 -8 62 -28 8
-17 9 -26 1 -31 -7 -5 -7 -9 1 -13 17 -11 14 -56 -4 -56 -8 0 -15 -4 -15 -10
0 -5 6 -10 14 -10 22 0 25 -11 16 -55 -5 -27 -8 -32 -9 -15 -2 36 -14 51 -31
40 -21 -14 -30 -12 -30 4 0 8 -13 17 -30 21 -16 4 -30 11 -30 16 0 5 -6 9 -13
9 -7 0 -29 11 -50 25 -20 14 -41 23 -46 20 -6 -3 -12 -1 -16 5 -3 5 -1 10 6
10 20 0 1 13 -38 26 -38 13 -52 7 -53 -22 0 -31 114 -104 208 -134 63 -20 66
-30 23 -78 -21 -23 -43 -42 -50 -42 -7 0 -9 -4 -6 -10 3 -5 8 -18 10 -27 2
-10 6 -26 10 -35 5 -12 2 -20 -8 -24 -8 -3 -34 -23 -58 -45 -23 -21 -48 -39
-55 -39 -8 0 -11 -6 -8 -14 3 -7 -7 -21 -21 -30 -14 -9 -23 -21 -20 -26 3 -5
8 -28 10 -52 3 -24 7 -52 9 -63 3 -11 5 -28 5 -39 1 -12 6 -16 15 -13 10 4 13
1 10 -7 -4 -9 3 -13 20 -11 15 2 26 -2 26 -8 0 -7 5 -5 10 3 8 13 10 12 10 -3
0 -10 4 -16 9 -13 5 4 11 1 13 -6 3 -8 11 -7 27 4 19 14 26 14 48 3 29 -15 53
-10 53 12 0 8 5 11 10 8 7 -4 8 10 5 39 -5 39 -3 45 15 51 17 5 19 10 9 21 -9
11 -9 17 1 29 17 20 44 20 36 0 -7 -20 14 -55 33 -55 11 0 10 -4 -4 -13 -10
-8 -15 -19 -11 -25 7 -11 -6 -17 -27 -13 -5 1 -6 -3 -2 -9 3 -5 1 -10 -6 -10
-7 0 -10 -3 -6 -6 3 -3 -8 -19 -25 -34 -34 -31 -82 -43 -140 -35 -20 2 -39 1
-42 -4 -3 -5 4 -9 17 -10 45 -2 112 -9 117 -11 3 -1 8 -2 13 -1 11 2 8 -37 -4
-45 -8 -5 -8 -9 1 -14 7 -4 9 -17 4 -34 -4 -18 -9 -24 -14 -16 -6 9 -9 9 -15
1 -4 -7 -1 -19 7 -28 8 -10 8 -14 1 -10 -6 4 -14 3 -18 -3 -3 -5 -1 -10 4 -10
17 0 13 -35 -8 -61 -22 -29 -26 -126 -6 -173 11 -27 63 -69 80 -66 11 2 80
-63 87 -82 4 -10 12 -18 18 -18 8 0 8 6 0 20 -13 24 -5 40 19 40 27 0 44 -23
28 -39 -10 -11 -8 -11 10 -2 31 16 60 14 67 -5 10 -26 7 -45 -6 -43 -7 1 -22
1 -32 0 -18 -1 -18 -2 -2 -20 15 -17 22 -18 49 -9 23 9 32 8 35 0 2 -7 14 -12
26 -12 31 0 47 -19 36 -41 -6 -10 -8 -28 -6 -41 3 -18 9 -23 30 -21 14 1 26
-2 26 -8 0 -14 23 -11 59 7 17 9 38 13 46 10 9 -3 21 5 31 19 10 15 26 25 40
25 13 0 28 9 34 20 6 11 16 20 22 20 6 0 21 11 34 26 13 14 24 20 24 14 0 -8
17 -10 55 -6 32 3 57 1 61 -5 4 -6 10 -7 18 0 15 13 233 14 241 1 3 -6 13 -10
21 -10 15 0 48 -29 57 -51 3 -8 6 -5 6 8 1 12 -3 24 -9 28 -20 12 3 36 34 34
17 -1 39 2 49 6 10 4 29 3 43 -4 21 -9 23 -14 14 -31 -6 -11 -19 -20 -28 -20
-10 0 -27 -6 -37 -14 -18 -13 -16 -15 25 -24 25 -5 36 -10 24 -11 -34 -2 -88
20 -73 30 7 4 10 11 6 15 -4 4 -15 0 -25 -10 -16 -16 -16 -18 2 -31 11 -8 34
-18 53 -21 18 -3 36 -10 39 -15 8 -13 64 19 64 36 0 8 7 15 15 15 14 0 19 11
16 36 -1 6 5 17 13 23 14 12 10 55 -4 46 -4 -3 -13 1 -19 9 -8 10 -1 23 31 58
26 29 48 66 58 99 l17 53 17 -36 c10 -20 25 -39 34 -43 11 -4 13 -8 5 -13 -8
-5 -5 -15 9 -32 l21 -25 -8 25 c-4 16 4 8 24 -21 29 -43 35 -47 66 -44 19 2
35 -1 35 -6 0 -6 -11 -9 -24 -7 -17 2 -34 -7 -57 -32 -49 -51 -46 -89 7 -90
12 0 27 -7 34 -15 6 -8 24 -14 38 -13 15 0 41 -5 58 -12 26 -11 34 -11 58 5
16 11 42 20 60 21 47 2 49 3 43 18 -9 23 11 29 128 41 39 4 74 11 80 16 5 5
24 9 41 9 18 0 44 4 58 10 19 7 26 6 26 -3 0 -8 4 -7 10 3 8 12 13 12 44 -3
21 -10 36 -24 36 -34 0 -10 17 -32 38 -49 69 -57 99 -62 165 -28 29 15 62 32
75 38 24 12 38 46 29 70 -7 17 18 41 53 51 21 7 23 6 13 -6 -16 -20 -4 -35 32
-43 25 -5 33 -1 49 21 18 25 18 28 3 55 -14 24 -14 29 -1 43 8 8 26 39 39 69
25 57 47 76 87 76 36 0 63 24 78 70 13 38 12 43 -3 52 -14 7 -15 13 -6 30 8
15 8 22 -1 28 -8 5 -9 9 -1 11 7 3 6 13 -4 32 -10 19 -10 26 -2 22 7 -4 1 3
-12 14 -13 12 -18 21 -12 21 8 0 6 10 -4 30 -9 17 -20 30 -25 30 -6 0 -10 8
-10 18 0 9 -12 31 -26 47 -25 29 -25 29 -19 5 3 -14 8 -37 11 -52 4 -16 10
-28 15 -28 5 0 9 -5 9 -10 0 -6 -10 -8 -24 -4 -14 3 -29 0 -38 -9 -13 -13 -89
-41 -94 -34 -1 1 -8 15 -16 31 -12 23 -16 25 -21 12 -4 -9 -2 -16 3 -16 6 0
10 -9 10 -19 0 -10 7 -22 16 -25 10 -4 14 -14 11 -26 -3 -11 -1 -22 4 -25 4
-3 5 -13 2 -22 -4 -10 -2 -14 4 -10 6 4 14 1 16 -5 4 -8 6 -7 6 4 1 9 -3 20
-9 23 -12 8 -13 25 -1 25 5 0 14 -12 20 -27 7 -16 22 -35 35 -45 25 -18 91
-28 91 -13 0 6 4 16 8 23 5 6 4 12 -2 12 -5 0 -12 -4 -16 -9 -10 -17 -58 -1
-81 27 -13 14 -21 29 -18 32 3 3 12 -4 20 -14 13 -19 14 -18 14 8 0 23 4 27
23 24 16 -2 22 -10 22 -30 1 -36 7 -40 39 -28 28 10 34 5 40 -34 1 -8 5 -18 9
-22 3 -3 0 -13 -8 -20 -8 -8 -12 -21 -9 -29 4 -9 0 -15 -7 -15 -12 0 -12 -2 0
-9 10 -6 5 -11 -20 -16 -51 -12 -101 -7 -118 9 -13 14 -13 18 4 36 16 18 16
20 2 20 -10 0 -17 -7 -17 -15 0 -8 -5 -15 -11 -15 -5 0 -8 4 -5 9 4 5 -3 7
-14 4 -22 -6 -27 -23 -7 -23 8 0 15 -6 16 -12 11 -71 12 -108 3 -108 -6 0 -14
-10 -18 -22 -9 -31 -70 -87 -102 -95 -34 -8 -74 -38 -64 -48 4 -4 -44 -5 -106
-3 -102 3 -140 -3 -94 -15 9 -3 -1 -5 -23 -5 -22 0 -32 2 -22 5 9 2 17 8 17
13 0 28 -164 31 -252 5 -38 -11 -68 -25 -68 -31 0 -14 -102 -25 -115 -12 -6 6
-4 7 7 3 9 -4 25 -2 35 4 14 8 0 10 -59 8 -43 -2 -78 0 -78 5 0 4 -12 8 -26 8
-14 0 -23 -4 -19 -10 3 -6 2 -10 -4 -10 -5 0 -13 5 -16 10 -3 6 -1 10 5 10 21
0 4 23 -19 27 -19 3 -21 1 -13 -10 9 -11 6 -13 -17 -9 -21 3 -27 8 -24 21 6
25 -54 51 -68 30 -7 -10 -8 -5 -3 14 3 15 2 27 -4 27 -5 0 -23 12 -40 28 -29
26 -48 77 -43 115 1 9 -3 17 -9 17 -6 0 -8 10 -5 23 3 12 7 39 9 59 2 20 10
44 19 53 9 8 14 22 11 30 -4 8 -1 15 5 15 7 0 11 6 9 14 -2 8 14 37 35 65 40
52 42 73 7 64 -11 -3 -20 0 -20 6 0 6 13 11 30 11 21 0 28 4 24 14 -3 8 -12
12 -21 9 -11 -4 -14 -1 -11 13 3 18 40 35 37 17 -4 -26 1 -35 15 -24 17 14 39
71 28 71 -4 0 -8 9 -8 20 0 15 5 19 21 15 11 -3 14 -2 7 1 -18 8 -4 24 15 17
12 -5 14 -3 8 8 -13 20 -13 50 -1 46 6 -2 16 3 22 11 9 12 19 13 60 4 92 -21
134 -19 134 7 0 20 -32 39 -38 22 -2 -6 -18 -10 -35 -10 l-32 1 30 7 c29 7 29
7 -19 19 -52 14 -75 9 -35 -7 13 -5 19 -10 12 -10 -21 -2 -43 11 -43 24 0 14
-69 32 -104 27 -11 -1 -17 1 -13 4 4 4 0 16 -9 26 -13 14 -20 15 -31 7 -7 -6
-13 -8 -13 -4 0 4 8 14 18 21 16 12 16 13 0 14 -21 0 -58 46 -58 71 0 11 -8
27 -17 37 -14 13 -18 33 -18 80 1 36 -3 62 -10 62 -6 0 -6 3 1 8 12 8 37 75
40 107 1 11 9 40 18 65 8 25 16 51 16 59 0 8 8 23 17 33 15 17 15 20 3 28 -10
7 -11 10 -2 10 6 0 12 9 12 20 0 11 5 20 11 20 5 0 7 5 4 10 -4 6 -11 8 -16 5
-5 -4 -6 6 -3 22 12 61 8 93 -11 93 -15 0 -20 17 -16 55 1 15 -1 17 -11 7 -17
-17 -28 -15 -28 6 0 10 -3 22 -7 25 -26 27 14 172 44 160 7 -3 13 -1 13 4 0
19 129 68 143 54 5 -5 15 -7 21 -5 7 3 20 -4 30 -15 11 -12 25 -17 38 -13 17
4 19 2 13 -18 -6 -19 -4 -22 9 -17 11 5 16 1 16 -12 0 -11 4 -21 10 -23 5 -1
11 -24 14 -50 4 -44 3 -47 -17 -45 -12 1 -24 11 -27 21 -3 10 -17 25 -30 34
-22 12 -23 12 -7 -1 9 -8 17 -17 17 -19 0 -14 -36 -1 -42 15 -4 9 -14 17 -22
17 -22 0 -64 -43 -59 -60 2 -8 -7 -1 -21 15 -25 29 -26 29 -26 7 0 -13 4 -20
10 -17 6 3 10 -3 10 -14 0 -12 5 -21 12 -21 6 0 9 -3 6 -6 -4 -3 -15 -1 -27 5
-24 13 -34 2 -36 -40 -1 -23 4 -30 29 -39 25 -9 37 -7 64 7 18 10 30 23 27 31
-2 7 3 15 13 18 9 3 26 10 37 16 11 6 17 7 13 3 -4 -4 -1 -13 6 -21 12 -11 52
-16 119 -14 23 1 33 26 18 44 -6 7 -8 16 -5 19 4 3 8 25 9 48 2 28 0 37 -6 28
-7 -11 -9 -11 -9 4 0 9 7 17 15 17 8 0 15 4 15 9 0 5 -10 7 -21 4 -18 -5 -20
-3 -14 16 4 15 2 21 -8 21 -8 0 -17 10 -21 23 -5 21 -45 50 -71 52 -5 0 -15 7
-22 15 -7 8 -13 11 -13 6 0 -5 -6 -4 -13 2 -14 12 -35 11 -54 -1 -8 -5 -13 -3
-13 3 0 8 -6 8 -20 0 -11 -6 -25 -8 -30 -5 -5 3 -21 -2 -35 -11 -21 -14 -24
-14 -20 -2 8 20 50 42 64 34 6 -4 19 2 31 14 22 22 40 26 40 8 0 -6 6 -4 13 6
11 16 22 17 65 11 29 -4 59 -13 67 -21 7 -8 20 -14 27 -14 7 0 20 -8 28 -18
37 -44 70 -92 70 -100 0 -6 5 -12 10 -14 7 -2 7 -14 1 -36 -6 -19 -6 -32 -1
-32 10 0 3 -87 -7 -104 -7 -10 66 1 82 13 22 17 44 20 39 6 -6 -15 23 -34 48
-30 9 2 19 -3 22 -10 6 -17 158 -13 164 4 2 6 -1 11 -7 11 -19 0 -12 18 10 25
11 4 18 13 15 20 -2 7 -2 16 2 20 4 3 7 12 8 18 0 7 2 19 2 28 1 9 28 44 60
78 l57 62 75 1 c85 1 153 -8 158 -22 2 -6 10 -10 18 -10 8 0 14 -5 14 -11 0
-7 8 -18 18 -25 14 -11 15 -13 1 -14 -8 0 -20 5 -26 11 -6 6 -33 10 -61 8 -31
-3 -54 1 -61 9 -16 17 -34 15 -27 -3 3 -9 0 -15 -9 -15 -8 0 -15 7 -15 16 0 8
-5 12 -10 9 -6 -3 -7 -18 -4 -33 l7 -27 -21 24 c-19 21 -22 22 -28 6 -4 -9 -2
-20 4 -24 14 -8 -37 -71 -57 -71 -8 0 -11 -6 -7 -15 3 -9 -3 -24 -13 -34 -18
-18 -19 -18 -29 3 -9 20 -9 19 -9 -7 0 -17 7 -32 18 -38 16 -8 19 -6 19 10 0
11 5 23 10 26 6 4 10 -11 10 -38 0 -41 3 -46 29 -55 16 -6 31 -8 34 -6 7 7
129 -27 154 -43 13 -9 23 -24 23 -35 0 -11 9 -31 19 -44 15 -19 19 -39 17 -96
-1 -46 -6 -73 -14 -76 -6 -2 -12 -8 -12 -13 0 -6 5 -7 11 -3 6 3 15 1 19 -6 9
-14 4 -225 -5 -240 -3 -6 -3 -10 1 -10 4 0 -1 -9 -12 -21 -15 -16 -16 -22 -4
-29 11 -7 10 -11 -4 -25 -9 -10 -15 -24 -12 -31 3 -8 0 -14 -7 -14 -19 -1 -69
-49 -62 -60 4 -6 11 -7 17 -4 7 4 8 2 4 -4 -4 -6 -13 -9 -21 -5 -9 3 -15 -1
-15 -11 0 -9 -6 -13 -14 -10 -8 3 -19 -3 -25 -14 -12 -22 -54 -52 -82 -57 -10
-2 -24 -7 -31 -11 -7 -4 -8 -3 -4 4 9 15 9 15 -54 1 -27 -6 -48 -14 -45 -19 3
-4 -29 -6 -71 -3 -63 5 -76 3 -72 -8 3 -8 15 -13 27 -12 11 2 21 -1 21 -6 0
-5 30 -8 66 -7 41 1 69 -3 75 -11 6 -6 18 -9 26 -6 10 4 14 2 10 -4 -4 -6 0
-18 8 -26 8 -9 15 -22 15 -30 0 -7 3 -17 8 -21 4 -4 7 -11 8 -14 2 -16 18 -48
31 -64 8 -9 16 -22 17 -30 2 -13 70 -153 103 -215 10 -18 21 -33 26 -33 13 0
8 16 -13 43 -11 14 -20 29 -20 34 0 5 -9 26 -20 48 -11 22 -18 48 -15 60 3 11
2 14 -1 6 -4 -9 -17 7 -34 43 -16 31 -33 62 -38 69 -13 15 -43 117 -35 117 3
0 -1 8 -10 18 -21 23 -12 34 16 21 25 -11 63 -82 53 -97 -3 -6 3 -14 15 -17
14 -5 19 -13 16 -26 -3 -12 0 -19 10 -19 8 0 11 5 7 12 -4 7 -3 8 4 4 17 -11
15 9 -3 24 -8 7 -15 18 -15 25 0 8 -6 16 -12 18 -10 4 -10 6 0 6 8 1 4 13 -12
34 -36 46 -33 61 17 90 23 14 53 35 66 46 36 31 54 27 79 -18 9 -16 10 -27 4
-33 -6 -6 -8 -17 -5 -24 3 -8 0 -14 -6 -14 -6 0 -8 -6 -6 -12 3 -7 -11 -31
-30 -52 -19 -22 -35 -43 -35 -47 0 -4 -9 -5 -20 -2 -24 6 -25 0 -3 -22 11 -11
13 -19 5 -24 -6 -3 -15 -19 -21 -34 -16 -42 13 -35 33 8 9 19 23 35 31 35 8 0
15 9 15 20 0 11 3 19 8 18 4 0 16 3 26 7 13 6 21 4 24 -3 6 -18 49 -15 49 3 0
16 -12 20 -20 8 -2 -5 -2 -2 -1 4 2 7 -5 17 -14 22 -16 9 -16 10 0 16 9 4 14
13 11 21 -3 8 1 14 11 14 9 0 16 6 16 13 0 6 8 2 18 -9 9 -12 28 -25 41 -29
l23 -7 -18 33 c-11 19 -22 36 -27 37 -4 2 -4 9 0 14 4 7 -1 9 -15 6 -18 -5
-21 -2 -18 15 1 11 -6 29 -17 40 -11 11 -17 27 -14 38 3 10 1 17 -4 13 -5 -3
-9 2 -9 11 0 12 -5 15 -17 11 -14 -6 -14 -4 2 16 11 13 21 25 23 28 2 2 7 -2
12 -10 8 -12 10 -9 10 11 0 19 -7 29 -22 34 -22 6 -21 7 9 16 23 7 31 14 26
24 -3 9 0 22 7 30 10 13 9 19 -6 36 -16 18 -16 19 -1 13 13 -5 16 -2 11 10 -4
10 3 24 17 37 13 11 18 18 12 14 -9 -4 -13 1 -13 15 0 12 -5 30 -10 40 -8 15
-6 21 7 29 10 6 12 11 6 11 -7 0 -13 7 -13 15 0 8 6 15 13 15 7 0 8 3 2 8 -9
6 -19 32 -13 32 2 0 25 -11 52 -25 55 -28 71 -30 82 -13 5 7 3 8 -5 3 -7 -4
-23 -2 -34 4 -12 6 -34 15 -49 20 -28 11 -63 64 -53 81 3 6 15 10 27 10 16 0
18 -3 9 -14 -9 -11 -4 -14 30 -14 42 -1 73 -22 80 -55 3 -13 9 -13 32 -4 29
12 29 12 9 34 -10 13 -22 20 -25 16 -4 -3 -9 2 -13 11 -3 9 -12 16 -20 16 -8
0 -14 7 -14 16 0 8 -4 13 -9 10 -5 -3 -23 -1 -41 6 -25 8 -38 8 -51 -1 -11 -6
-19 -8 -19 -4 1 19 29 56 51 67 21 10 24 18 23 64 0 29 3 52 8 52 4 0 8 5 8
11 0 7 8 17 17 24 15 11 15 15 4 29 -21 25 -7 44 31 41 32 -3 32 -3 7 7 -24
10 -39 29 -54 70 -4 9 -15 18 -26 21 -10 3 -17 1 -13 -4 3 -5 -2 -6 -10 -3
-18 7 -11 24 10 24 20 0 18 27 -3 40 -16 10 -15 10 4 5 17 -5 30 2 52 27 37
40 37 43 6 44 -18 2 -23 -1 -16 -10 6 -7 5 -17 -3 -29 -17 -22 -33 -22 -45 1
-8 15 -2 25 30 53 21 18 39 40 39 48 0 8 -3 11 -6 8 -4 -3 -15 -2 -25 4 -13 6
-25 6 -39 -1 -16 -8 -20 -8 -18 2 3 14 -5 14 -36 2 -12 -5 -17 -4 -13 3 4 6
-8 9 -28 8 -18 0 -31 3 -29 7 9 13 -30 8 -50 -7 -10 -7 -15 -19 -11 -25 5 -9
1 -10 -14 -5 -27 8 -109 13 -116 7 -2 -3 -18 -6 -35 -7 -31 -3 -63 -22 -56
-34 3 -4 -5 -8 -16 -8 -21 -2 -87 -68 -88 -87 0 -6 -10 -20 -22 -33 l-22 -24
22 -6 c24 -6 27 -34 4 -39 -7 -1 -8 0 -2 3 15 7 12 23 -5 23 -8 0 -19 -16 -25
-39 -10 -37 -42 -63 -57 -47 -4 3 -1 6 5 6 7 0 12 6 12 13 0 14 -51 47 -72 46
-7 0 -4 -4 7 -9 19 -8 19 -9 -1 -9 -12 -1 -25 7 -28 16 -4 10 -10 13 -14 8
-11 -16 -45 -19 -37 -3 3 7 1 6 -7 -3 -7 -8 -22 -18 -33 -22 -19 -7 -19 -6 -2
7 22 17 22 27 0 19 -12 -5 -15 -2 -10 10 3 9 2 19 -3 22 -5 3 -7 30 -5 59 3
45 0 58 -17 73 -11 10 -22 17 -24 16 -11 -7 -22 -1 -28 14 -4 9 -1 20 5 24 8
4 4 11 -12 20 -22 11 -23 11 -10 -4 7 -10 9 -17 3 -17 -5 0 -15 7 -22 15 -7 8
-9 15 -4 15 5 0 -7 11 -26 24 -23 16 -37 20 -42 13 -5 -8 -13 -6 -25 5 -13 11
-30 15 -59 11 -34 -4 -44 -1 -56 16 -13 19 -17 20 -28 6 -7 -8 -19 -15 -26
-15 -8 0 -14 -5 -14 -11 0 -7 -9 -9 -21 -6 -18 5 -65 -18 -89 -43 -3 -3 -17
-11 -32 -17 -19 -8 -26 -17 -22 -28 5 -12 -1 -15 -27 -15 -19 0 -29 -4 -24 -8
11 -8 13 -32 3 -48 -4 -5 -9 -32 -12 -60 -3 -27 -7 -59 -10 -71 -3 -13 -1 -23
5 -23 5 0 9 -11 9 -25 0 -14 9 -44 20 -65 11 -22 17 -40 13 -41 -5 0 2 -4 15
-10 13 -5 21 -13 18 -18 -4 -5 1 -16 9 -25 13 -13 15 -49 5 -76 -4 -10 -7 -26
-8 -47 -2 -30 -22 -29 -68 2 -20 14 -49 25 -64 25 -15 0 -35 9 -46 21 -13 15
-27 19 -49 16 -16 -3 -38 0 -48 5 -15 8 -20 5 -24 -11 -8 -32 -28 -25 -42 15
-7 19 -19 38 -27 41 -8 3 -14 11 -14 19 0 8 -4 14 -9 14 -19 0 -2 27 52 84 31
32 54 63 51 67 -3 5 2 9 11 9 12 0 15 5 9 23 -4 12 -6 27 -6 32 8 45 5 132 -3
129 -5 -2 -21 12 -35 31 -14 19 -31 35 -38 35 -10 0 -12 8 -7 29 5 26 4 28
-17 24 -16 -3 -32 4 -51 23 -15 15 -27 21 -27 14 0 -8 -12 -11 -35 -8 -19 2
-35 0 -35 -4 0 -4 -10 -8 -22 -7 -22 0 -22 1 -3 9 16 7 13 9 -17 9 -23 1 -37
-3 -35 -10 1 -6 -4 -14 -12 -17 -9 -3 -11 0 -7 7 17 27 -48 -4 -80 -38 -19
-20 -31 -28 -28 -18 3 9 2 17 -3 17 -16 0 -53 -31 -48 -40 3 -5 -2 -30 -11
-55 -8 -26 -13 -53 -10 -60 2 -7 -2 -16 -10 -19 -26 -10 -34 -7 -34 13 0 20
-14 21 -180 9 -34 -3 -79 25 -72 45 1 5 -2 6 -7 2 -6 -3 -13 5 -17 19 -3 14
-15 28 -25 31 -10 4 -19 15 -19 25 0 9 -8 20 -17 24 -10 3 -23 8 -29 11 -6 3
-11 -1 -11 -10 0 -8 9 -17 19 -21 21 -6 24 -20 6 -27 -8 -3 -6 -6 4 -6 9 -1
31 -16 47 -33 27 -29 28 -34 13 -39 -15 -5 -14 -7 6 -13 12 -4 22 -12 22 -17
0 -5 7 -9 15 -9 8 0 15 -4 15 -10 0 -5 -7 -7 -15 -4 -11 5 -14 2 -9 -12 4 -11
4 -16 -1 -12 -4 4 -15 2 -23 -5 -13 -9 -14 -9 -8 1 12 19 -12 14 -34 -8 -23
-23 -46 -26 -54 -7 -5 10 -7 10 -12 0 -9 -20 -24 -15 -24 7 0 16 -6 20 -22 18
-13 -2 -24 0 -26 4 -8 21 -51 57 -73 60 -13 2 -30 7 -37 11 -7 5 -22 5 -33 2
-12 -4 -19 -3 -16 2 7 11 -27 43 -46 43 -8 0 -7 4 3 10 12 8 11 11 -8 16 -18
5 -21 9 -10 16 9 7 4 8 -14 4 -25 -6 -33 1 -25 20 1 4 -9 11 -22 15 -18 7 -21
12 -12 23 9 11 8 15 -5 20 -9 3 -20 4 -24 1 -5 -3 -7 7 -5 21 2 20 -1 25 -14
21 -11 -3 -17 2 -18 14 -1 11 3 19 8 19 6 0 7 5 4 10 -7 11 -13 11 -32 3z
m1210 -137 c2 2 10 -2 16 -10 10 -12 8 -16 -9 -21 -14 -4 -19 -12 -16 -22 5
-11 2 -13 -9 -9 -18 7 -77 -33 -69 -45 3 -5 -1 -7 -8 -4 -8 3 -22 -14 -37 -47
-30 -64 -35 -87 -21 -103 8 -9 7 -15 -2 -19 -9 -4 -9 -5 2 -4 43 4 76 -17 71
-44 0 -5 8 -8 19 -8 11 0 20 -4 20 -8 0 -5 23 -32 50 -60 28 -28 50 -55 50
-60 0 -5 7 -15 15 -22 9 -7 14 -19 11 -27 -3 -7 -1 -13 4 -13 6 0 10 -11 10
-25 0 -14 5 -25 11 -25 6 0 9 -9 6 -20 -3 -11 0 -20 6 -20 6 0 7 -3 4 -6 -3
-4 -1 -16 5 -28 7 -11 13 -36 13 -55 1 -18 8 -37 16 -42 10 -6 10 -9 1 -9 -6
0 -11 -3 -11 -7 1 -5 1 -10 -1 -13 -3 -9 -5 -80 -2 -80 2 0 12 5 23 11 19 10
20 9 9 -11 -6 -11 -15 -18 -20 -15 -6 4 -6 -5 0 -21 9 -22 8 -25 -5 -20 -8 3
-15 1 -15 -5 0 -6 -11 -25 -25 -43 -14 -18 -25 -38 -25 -44 0 -6 -18 -29 -40
-51 -22 -22 -40 -46 -41 -53 0 -10 -2 -10 -6 0 -2 6 -9 12 -14 12 -6 0 -7 -4
-4 -10 3 -5 2 -10 -4 -10 -6 0 -8 -7 -4 -16 4 -12 14 -14 39 -10 27 6 39 1 71
-26 59 -51 65 -57 59 -66 -3 -5 6 -15 19 -22 14 -7 25 -17 25 -22 0 -4 10 -20
23 -34 77 -90 76 -89 89 -76 10 10 9 19 -6 45 -35 60 -83 101 -70 60 4 -14 2
-13 -7 2 -7 11 -14 27 -14 37 -2 25 -35 70 -56 75 -10 3 -16 9 -13 14 3 5 1 9
-5 9 -5 0 -12 -6 -15 -12 -3 -7 -3 -3 -1 8 4 16 -2 26 -22 39 l-27 18 28 23
c15 13 24 24 20 24 -3 0 0 7 7 16 7 9 14 26 16 37 2 12 9 27 17 32 13 10 16
16 16 36 0 6 16 10 38 8 57 -3 65 -1 95 27 20 18 36 24 60 22 l32 -3 0 -69 c0
-45 4 -71 12 -73 7 -2 9 -11 6 -19 -3 -8 2 -23 11 -33 9 -10 13 -20 10 -24 -3
-3 3 -19 15 -35 12 -17 21 -34 21 -39 0 -5 15 -16 33 -25 l32 -16 -25 -10
c-14 -6 -40 -25 -59 -41 -18 -17 -36 -31 -40 -31 -3 0 -19 -21 -36 -45 -16
-25 -36 -45 -42 -45 -7 0 -13 -7 -13 -15 0 -8 -4 -15 -10 -15 -12 0 6 -52 21
-61 6 -3 12 -18 13 -33 3 -27 -17 -47 -46 -45 -7 0 -4 4 7 9 18 8 18 9 -5 10
-77 6 -93 9 -103 19 -9 9 -7 10 8 5 11 -4 17 -4 14 0 -4 4 -24 9 -44 12 -33 4
-36 3 -25 -11 7 -8 18 -15 25 -15 8 0 22 -11 33 -25 11 -14 26 -25 33 -25 11
0 11 -3 -1 -10 -10 -6 -11 -10 -2 -10 6 0 11 -3 10 -7 -1 -5 2 -19 5 -33 4
-14 8 -35 10 -47 2 -11 8 -27 14 -35 15 -17 25 -78 28 -160 1 -61 -1 -69 -27
-97 -16 -17 -26 -36 -22 -43 4 -6 3 -8 -4 -5 -17 11 -41 -3 -37 -23 2 -11 -4
-20 -16 -23 -11 -3 -17 -1 -13 5 4 6 1 8 -7 6 -8 -3 -13 -10 -12 -16 2 -6 -14
-16 -35 -22 -47 -13 -62 -13 -62 0 0 6 -5 10 -11 10 -5 0 -7 -5 -4 -11 5 -7
-12 -9 -53 -7 -34 1 -58 7 -55 12 4 6 -2 6 -13 2 -39 -16 -70 -17 -106 -5 -21
7 -38 15 -38 19 0 12 -54 -2 -65 -17 -5 -7 -37 -15 -70 -18 -40 -4 -55 -2 -45
4 8 5 17 8 21 5 4 -2 10 0 13 5 10 16 -43 5 -63 -13 -12 -11 -27 -14 -49 -10
-25 5 -32 3 -32 -9 0 -18 -49 -32 -63 -18 -6 6 -20 11 -32 10 -20 0 -20 -1 0
-8 17 -7 17 -8 -8 -13 -15 -3 -39 1 -53 8 -33 17 -47 18 -38 2 6 -10 5 -10 -8
-1 -8 7 -18 10 -21 6 -4 -3 -7 3 -7 15 0 12 -4 22 -9 22 -5 0 -26 21 -46 46
-63 76 -64 163 -3 195 12 7 33 22 47 35 14 13 29 24 34 24 4 0 5 5 2 10 -3 6
-1 10 4 10 6 0 11 7 11 15 0 7 6 18 14 22 35 20 97 215 74 230 -5 3 -7 16 -4
28 4 14 1 25 -7 29 -9 3 -7 9 6 19 9 8 17 20 17 27 0 7 10 27 23 44 12 17 21
38 21 46 -1 8 -2 28 -3 44 -1 21 -5 27 -16 22 -8 -3 -14 0 -12 6 3 14 -46 18
-55 4 -4 -6 -17 -11 -30 -11 -13 0 -23 -6 -23 -14 0 -8 -6 -16 -14 -19 -10 -3
-12 1 -8 17 5 19 2 22 -21 20 -15 -1 -44 1 -65 6 -31 6 -38 11 -34 26 6 20
-26 54 -42 44 -6 -3 -9 0 -5 8 3 8 -2 17 -11 21 -9 3 -13 2 -10 -4 3 -6 2 -10
-3 -10 -4 0 -16 17 -26 37 -15 31 -15 35 -1 23 13 -11 15 -10 10 3 -4 8 -15
17 -26 20 -16 4 -18 11 -13 32 8 31 -12 51 -33 33 -9 -7 -13 -7 -13 0 0 5 7
13 16 16 8 3 12 11 8 17 -3 6 -8 30 -9 53 -2 22 -8 68 -14 101 -16 89 1 243
28 253 9 3 25 15 36 25 11 11 15 17 9 14 -7 -4 -14 0 -18 8 -3 9 1 16 9 16 8
1 20 2 27 3 23 2 20 26 -4 26 l-23 1 25 14 c17 10 20 14 9 15 -17 0 -36 30
-20 30 5 0 12 -6 14 -12 3 -8 6 -6 6 5 1 9 -4 17 -9 17 -18 0 -56 40 -39 40 8
1 -1 7 -18 15 -18 8 -33 17 -33 20 0 3 6 3 13 -1 7 -4 9 -3 4 2 -5 5 -13 10
-18 10 -5 1 -14 2 -20 3 -5 0 -7 6 -4 11 4 6 3 10 -2 9 -4 -1 -17 -1 -28 1
l-20 1 20 9 c14 6 4 9 -37 9 -38 1 -58 -3 -58 -11 0 -6 3 -8 7 -5 3 4 11 -1
18 -9 6 -9 22 -18 36 -19 13 -1 29 -3 35 -4 5 0 20 -10 32 -21 12 -12 22 -18
22 -14 0 4 11 -6 24 -21 29 -33 40 -75 20 -75 -8 0 -14 3 -14 8 0 4 -12 8 -27
9 -17 1 -22 -2 -13 -7 9 -6 2 -10 -21 -12 -26 -2 -34 -8 -35 -24 -1 -11 -6
-29 -11 -39 -11 -20 -6 -55 8 -55 5 0 9 -8 9 -19 0 -13 -10 -20 -32 -25 -35
-7 -50 0 -28 14 8 5 11 12 7 16 -3 4 -13 2 -20 -5 -11 -8 -20 -6 -41 14 -15
13 -35 29 -46 35 -21 11 -53 64 -44 73 3 3 1 15 -6 26 -9 17 -8 22 5 27 8 3
15 12 15 18 0 14 49 60 65 62 6 0 20 2 33 2 12 1 22 9 22 17 0 11 -12 15 -50
15 l-51 0 21 22 c11 12 20 26 20 30 0 5 3 7 8 4 4 -2 27 10 52 26 65 45 130
60 185 44 24 -8 50 -20 59 -27 31 -26 42 -34 61 -45 12 -7 22 -27 26 -49 3
-20 12 -41 20 -46 14 -9 49 -12 49 -5 0 2 3 12 7 21 5 15 3 16 -14 7 -21 -12
-33 -7 -33 12 0 6 4 5 9 -2 6 -11 11 -10 25 3 11 11 16 12 16 4 0 -7 15 1 33
18 34 32 89 55 66 27 -6 -7 -16 -11 -23 -7 -6 4 -5 -1 3 -10 7 -9 16 -17 20
-17 3 0 30 23 59 50 32 30 58 47 65 43 8 -5 6 -9 -5 -11 -24 -5 -23 -18 3 -25
14 -4 27 2 42 19 25 29 37 31 37 5 0 -13 6 -18 18 -16 9 1 16 7 15 13 -1 5 7
8 17 5 11 -3 20 -10 20 -15 0 -6 7 -7 15 -4 9 3 18 -1 21 -9 4 -8 12 -15 19
-15 18 0 28 32 13 42 -10 6 -10 8 0 8 8 0 10 8 6 26 -4 17 -2 30 7 36 11 8 10
9 -3 4 -11 -3 -18 0 -18 8 0 8 5 16 12 18 16 6 19 41 5 51 -8 6 -7 7 4 4 10
-3 26 5 40 19 12 13 27 24 31 24 5 0 16 7 25 15 8 9 23 13 33 10 9 -3 28 -1
41 3 16 6 37 5 61 -4 20 -7 38 -10 41 -8z m877 -6 c0 -6 -9 -2 -20 7 -11 10
-20 19 -20 21 0 1 9 -2 20 -8 11 -6 20 -15 20 -20z m-320 5 c-7 -9 -15 -13
-19 -10 -3 3 1 10 9 15 21 14 24 12 10 -5z m-457 -82 c10 -3 17 -15 17 -29 0
-14 5 -23 13 -21 8 1 12 -12 11 -43 -3 -77 -8 -100 -26 -106 -9 -3 -20 -14
-23 -25 -4 -10 -9 -19 -13 -20 -51 -5 -72 -16 -72 -36 -1 -17 -1 -17 -11 0 -8
14 -7 21 3 30 8 7 21 23 30 37 18 29 12 41 -38 76 -26 19 -33 20 -54 9 -48
-26 -49 11 -3 73 13 17 21 37 18 42 -3 6 1 7 10 4 8 -4 21 -2 28 4 15 13 57
21 77 14 8 -2 23 -7 33 -9z m1258 -46 c-10 -9 -11 -8 -5 6 3 10 9 15 12 12 3
-3 0 -11 -7 -18z m-2291 -17 c8 -5 11 -10 5 -10 -5 0 -17 5 -25 10 -8 5 -10
10 -5 10 6 0 17 -5 25 -10z m-120 -10 c0 -5 -5 -10 -11 -10 -5 0 -7 5 -4 10 3
6 8 10 11 10 2 0 4 -4 4 -10z m171 -7 c13 -16 12 -17 -3 -4 -17 13 -22 21 -14
21 2 0 10 -8 17 -17z m2544 -4 c18 -9 18 -9 -3 -5 -15 3 -22 0 -19 -7 4 -14
32 -16 65 -5 12 4 22 3 22 -1 0 -5 13 -23 29 -39 21 -20 32 -45 39 -82 6 -30
8 -59 6 -64 -2 -6 -6 -24 -8 -40 -5 -29 -16 -48 -16 -28 0 7 -11 12 -25 12
-19 0 -25 5 -25 23 0 21 -20 63 -20 43 0 -6 -6 -2 -13 9 -9 11 -19 15 -27 10
-8 -5 -11 -4 -7 2 4 6 0 16 -8 23 -12 10 -15 9 -15 -6 0 -16 -2 -17 -11 -4 -7
11 -12 12 -15 3 -3 -7 -11 -10 -18 -7 -7 3 -20 -4 -29 -14 -12 -13 -26 -18
-43 -14 -16 3 -21 7 -14 12 8 5 5 13 -10 28 -20 19 -21 24 -11 50 7 17 30 39
54 52 23 13 45 28 49 34 4 6 13 5 24 -5 16 -13 17 -12 12 9 -7 24 4 27 37 11z
m-1225 -6 c0 -5 -5 -15 -10 -23 -7 -12 -9 -10 -7 8 1 19 17 33 17 15z m-1026
-39 c3 -8 2 -12 -4 -9 -6 3 -10 10 -10 16 0 14 7 11 14 -7z m1896 12 c0 -3 -4
-8 -10 -11 -5 -3 -10 -1 -10 4 0 6 5 11 10 11 6 0 10 -2 10 -4z m527 -58 c-3
-8 -6 -5 -6 6 -1 11 2 17 5 13 3 -3 4 -12 1 -19z m-2562 3 c8 -14 -37 -43 -49
-31 -7 7 -3 15 10 25 23 17 31 18 39 6z m1490 -59 c-3 -3 -11 0 -18 7 -9 10
-8 11 6 5 10 -3 15 -9 12 -12z m-337 -17 c-3 -3 -9 2 -12 12 -6 14 -5 15 5 6
7 -7 10 -15 7 -18z m-1638 7 c0 -5 -7 -9 -15 -9 -8 0 -15 4 -15 9 0 4 7 8 15
8 8 0 15 -4 15 -8z m-77 -35 c3 -8 -1 -14 -8 -14 -7 0 -11 6 -8 14 3 7 6 13 8
13 2 0 5 -6 8 -13z m-16 -129 c-3 -8 -6 -5 -6 6 -1 11 2 17 5 13 3 -3 4 -12 1
-19z m1570 -70 c14 -23 12 -96 -3 -109 -7 -6 -11 -16 -7 -21 3 -6 0 -9 -8 -6
-9 3 -14 18 -13 41 1 32 -2 37 -22 37 -21 0 -22 -3 -14 -24 11 -30 2 -66 -17
-66 -8 0 -11 5 -7 11 3 6 0 15 -7 20 -11 6 -11 11 -2 20 10 10 10 16 -2 29
-13 14 -12 18 7 30 12 8 28 23 37 32 19 20 47 23 58 6z m1503 2 c0 -5 -5 -10
-11 -10 -5 0 -7 5 -4 10 3 6 8 10 11 10 2 0 4 -4 4 -10z m-2770 -9 c0 -5 -6
-14 -14 -20 -12 -10 -13 -8 -9 8 5 21 23 30 23 12z m1375 -21 c3 -6 -1 -7 -9
-4 -18 7 -21 14 -7 14 6 0 13 -4 16 -10z m-1558 -46 c-7 -7 -37 7 -37 17 0 6
9 5 21 -1 11 -7 19 -14 16 -16z m1609 -14 c19 0 18 -36 -2 -44 -8 -3 -22 1
-30 9 -9 8 -23 15 -33 15 -26 0 -23 -36 5 -50 33 -18 57 -58 48 -78 -4 -9 -6
-20 -6 -24 3 -12 -23 -9 -36 4 -7 7 -12 8 -12 4 0 -5 8 -15 18 -23 16 -14 16
-14 -3 -7 -11 4 -30 8 -42 8 -13 1 -18 5 -13 11 5 6 -1 19 -15 33 -12 12 -25
33 -28 48 -6 31 30 101 56 108 12 3 16 9 11 17 -4 7 9 3 30 -9 20 -12 44 -22
52 -22z m-1436 26 c0 -3 -4 -8 -10 -11 -5 -3 -10 -1 -10 4 0 6 5 11 10 11 6 0
10 -2 10 -4z m2750 -16 c0 -5 -5 -10 -11 -10 -5 0 -7 5 -4 10 3 6 8 10 11 10
2 0 4 -4 4 -10z m-2859 -18 c-7 -2 -18 1 -23 6 -8 8 -4 9 13 5 13 -4 18 -8 10
-11z m2856 -44 c-3 -7 -5 -2 -5 12 0 14 2 19 5 13 2 -7 2 -19 0 -25z m-1532
-119 c-6 -9 -35 -1 -35 10 0 4 3 11 7 14 8 9 34 -13 28 -24z m-1217 -18 c1
-17 -1 -31 -6 -31 -4 0 -8 16 -9 35 -1 43 12 39 15 -4z m1304 14 c6 -28 -12
-70 -27 -64 -5 2 -10 16 -10 31 0 14 -3 30 -7 34 -15 14 -8 24 16 24 17 0 25
-7 28 -25z m1455 -7 c-3 -8 -6 -5 -6 6 -1 11 2 17 5 13 3 -3 4 -12 1 -19z
m-1518 -70 c1 -12 -47 -10 -54 2 -3 6 1 10 10 10 8 0 19 8 22 17 6 15 7 15 14
-3 4 -10 8 -22 8 -26z m-1242 6 c-3 -3 -12 -4 -19 -1 -8 3 -5 6 6 6 11 1 17
-2 13 -5z m-22 -79 c0 -19 3 -35 7 -35 4 0 8 -9 8 -20 0 -11 7 -20 15 -20 8 0
15 -4 15 -10 0 -5 -7 -6 -17 -3 -12 5 -14 3 -9 -8 4 -8 -6 1 -22 19 -15 17
-34 32 -40 32 -18 0 -14 -27 6 -42 19 -13 26 -48 11 -48 -14 0 -93 43 -113 62
-20 18 -20 18 0 32 10 8 19 20 19 27 0 16 54 44 91 47 29 2 31 0 29 -33z m45
-144 c0 -9 6 -23 13 -30 10 -11 9 -13 -6 -7 -10 3 -22 6 -27 6 -16 0 -39 30
-34 44 7 19 54 8 54 -13z m-154 4 c16 -8 36 -12 45 -10 23 8 38 -15 42 -64 3
-34 -1 -46 -18 -59 -21 -17 -25 -23 -25 -43 0 -5 -4 -7 -10 -4 -6 4 -7 -1 -3
-11 4 -11 3 -15 -4 -11 -7 5 -9 0 -6 -12 3 -14 0 -19 -13 -18 -12 1 -19 -5
-20 -19 -2 -44 -17 -49 -30 -10 -11 31 -11 44 2 82 16 46 13 64 -11 64 -9 0
-12 -6 -8 -15 3 -10 0 -15 -8 -13 -10 2 -13 -5 -11 -24 2 -17 -1 -28 -9 -28
-9 0 -8 -4 1 -15 7 -8 10 -22 6 -30 -3 -8 -1 -15 5 -15 6 0 7 -5 3 -11 -4 -8
-9 -7 -15 2 -4 7 -5 17 -3 21 3 4 0 8 -6 8 -6 0 -10 -6 -9 -12 3 -27 -2 -38
-16 -38 -8 0 -15 -6 -15 -12 0 -7 -5 -5 -11 5 -6 9 -14 15 -19 12 -6 -4 -7 7
-3 26 4 21 3 30 -4 26 -7 -4 -10 3 -9 18 0 14 7 25 14 25 7 0 12 14 12 38 0
38 12 53 98 122 22 17 28 27 19 32 -22 14 9 9 39 -7z m220 -60 c16 -8 22 -15
14 -16 -8 0 -2 -6 14 -13 19 -9 25 -16 17 -21 -16 -10 -51 1 -81 25 -21 16
-22 20 -7 20 10 0 15 5 12 10 -8 14 -2 13 31 -5z m-56 -40 c10 -19 21 -25 46
-25 23 0 33 -5 37 -20 3 -12 0 -20 -7 -20 -7 0 -22 -9 -34 -20 -35 -33 -80
-25 -61 11 5 11 6 19 2 19 -4 0 -8 18 -8 40 0 46 6 50 25 15z m1145 14 c11
-16 1 -19 -13 -3 -7 8 -8 14 -3 14 5 0 13 -5 16 -11z m-1475 -23 c0 -3 -4 -8
-10 -11 -5 -3 -10 -1 -10 4 0 6 5 11 10 11 6 0 10 -2 10 -4z m-10 -30 c0 -2
-7 -7 -16 -10 -8 -3 -12 -2 -9 4 6 10 25 14 25 6z m1922 -21 c-2 -11 -8 -22
-13 -23 -5 -2 -6 -8 -3 -13 3 -6 -1 -20 -9 -32 -8 -12 -13 -36 -11 -52 4 -36
-4 -65 -17 -65 -6 0 -7 5 -4 10 3 6 0 13 -9 16 -8 3 -13 14 -11 25 2 10 -2 19
-8 20 -7 0 -2 4 11 9 17 7 22 18 23 47 1 21 1 42 0 46 -2 14 24 37 39 34 9 -2
14 -11 12 -22z m38 5 c0 -5 -5 -10 -11 -10 -5 0 -7 5 -4 10 3 6 8 10 11 10 2
0 4 -4 4 -10z m-132 -35 c-1 -19 5 -41 12 -50 11 -13 10 -15 -3 -10 -10 4 -18
-1 -23 -17 -4 -13 -7 -26 -6 -30 1 -5 -5 -8 -13 -8 -8 0 -12 -6 -9 -14 3 -7
-2 -16 -11 -20 -9 -3 -13 -10 -10 -16 14 -22 -43 -8 -64 15 -21 25 -21 27 -4
48 20 25 127 137 130 137 1 0 2 -16 1 -35z m-1308 5 c0 -5 -5 -10 -11 -10 -5
0 -7 5 -4 10 3 6 8 10 11 10 2 0 4 -4 4 -10z m-46 -15 c3 -8 1 -15 -4 -15 -6
0 -10 7 -10 15 0 8 2 15 4 15 2 0 6 -7 10 -15z m151 -67 c4 -34 0 -49 -14 -65
-11 -12 -17 -24 -14 -27 4 -3 1 -6 -6 -6 -7 0 -11 -6 -8 -14 3 -8 -1 -17 -9
-20 -9 -3 -13 -10 -10 -15 3 -5 -1 -11 -9 -15 -9 -3 -12 -12 -8 -23 3 -10 3
-15 -2 -11 -4 4 -14 3 -21 -3 -24 -20 -63 -1 -79 37 -26 62 -20 88 31 136 51
48 125 90 137 79 4 -5 10 -28 12 -53z m71 24 c-10 -10 -29 15 -21 28 6 9 10 8
17 -4 6 -10 7 -20 4 -24z m909 -2 c10 -11 16 -20 13 -20 -3 0 -13 9 -23 20
-10 11 -16 20 -13 20 3 0 13 -9 23 -20z m-1168 -16 c-3 -3 -12 -4 -19 -1 -8 3
-5 6 6 6 11 1 17 -2 13 -5z m-234 -18 c4 -10 1 -13 -8 -9 -8 3 -12 9 -9 14 7
12 11 11 17 -5z m197 -1 c0 -8 -4 -15 -8 -15 -5 0 -9 7 -9 15 0 8 4 15 9 15 4
0 8 -7 8 -15z m265 -14 c-3 -6 -11 -11 -16 -11 -5 0 -4 6 3 14 14 16 24 13 13
-3z m-558 -23 c-3 -7 -5 -2 -5 12 0 14 2 19 5 13 2 -7 2 -19 0 -25z m213 9
c-14 -8 -27 -12 -30 -10 -7 6 23 23 40 23 8 0 4 -6 -10 -13z m60 -48 c0 -11
-3 -11 -24 -3 -23 9 -20 23 4 17 11 -3 20 -9 20 -14z m-10 -29 c0 -5 -7 -10
-15 -10 -8 0 -15 5 -15 10 0 6 7 10 15 10 8 0 15 -4 15 -10z m255 -20 c3 -5 1
-10 -4 -10 -6 0 -11 5 -11 10 0 6 2 10 4 10 3 0 8 -4 11 -10z m-268 -24 c-20
-16 -6 -32 19 -22 9 3 12 2 9 -4 -4 -6 -21 -10 -40 -8 -32 2 -32 3 -18 25 9
13 23 23 32 23 14 -1 14 -2 -2 -14z m279 -48 c-3 -13 -5 -29 -5 -35 -1 -7 -8
-13 -17 -13 -8 0 -12 -5 -9 -11 10 -16 -15 -68 -35 -74 -11 -3 -20 -14 -22
-25 -2 -16 -6 -17 -20 -6 -15 11 -15 15 2 51 10 22 16 43 14 47 -3 5 0 8 6 8
7 0 10 6 7 13 -5 15 21 68 41 83 21 16 44 -7 38 -38z m1086 45 c-9 -4 -10 -9
-2 -18 8 -9 7 -14 -3 -18 -9 -3 -13 2 -11 16 3 29 2 27 17 26 9 0 9 -2 -1 -6z
m1388 -23 c0 -5 -7 -10 -16 -10 -8 0 -12 5 -9 10 3 6 10 10 16 10 5 0 9 -4 9
-10z m-2630 -32 c0 -4 -4 -8 -9 -8 -6 0 -12 4 -15 8 -3 5 1 9 9 9 8 0 15 -4
15 -9z m2497 -13 c0 -8 -6 -15 -14 -15 -14 0 -17 12 -6 23 11 11 20 8 20 -8z
m33 5 c0 -5 -4 -10 -10 -10 -5 0 -10 5 -10 10 0 6 5 10 10 10 6 0 10 -4 10
-10z m-2487 -20 c-3 -11 -10 -23 -16 -27 -5 -3 -8 -2 -5 3 3 5 8 17 11 27 9
24 16 22 10 -3z m1097 10 c0 -5 -2 -10 -4 -10 -3 0 -8 5 -11 10 -3 6 -1 10 4
10 6 0 11 -4 11 -10z m93 -9 c10 -1 15 -5 12 -11 -3 -5 -1 -10 4 -10 6 0 11
-7 11 -15 0 -8 -9 -15 -20 -15 -26 0 -38 -61 -19 -96 11 -21 11 -27 -1 -34 -9
-5 -19 -5 -27 2 -10 8 -12 7 -7 -6 3 -9 2 -16 -4 -16 -5 0 -12 16 -14 35 -3
26 -1 34 9 31 15 -6 17 6 3 20 -5 5 -10 24 -12 42 -1 19 -6 36 -10 38 -4 3 -8
13 -8 23 0 15 7 18 33 16 17 -2 40 -3 50 -4z m1437 -21 c0 -5 -10 -10 -22 -9
-22 0 -22 1 -3 9 11 5 21 9 23 9 1 1 2 -3 2 -9z m-2760 -42 c0 -13 -43 -6 -47
8 -2 7 6 10 22 7 14 -3 25 -10 25 -15z m-25 -28 c3 -5 2 -10 -4 -10 -5 0 -13
5 -16 10 -3 6 -2 10 4 10 5 0 13 -4 16 -10z m1348 -15 c-3 -9 -8 -14 -10 -11
-3 3 -2 9 2 15 9 16 15 13 8 -4z m1454 -40 c0 -8 -4 -12 -9 -9 -5 3 -6 10 -3
15 9 13 12 11 12 -6z m-2629 -12 c5 -18 -10 -16 -34 2 -18 15 -18 15 5 13 14
-2 26 -9 29 -15z m-183 -3 c3 -5 1 -10 -4 -10 -6 0 -11 5 -11 10 0 6 2 10 4
10 3 0 8 -4 11 -10z m135 -30 c0 -5 -5 -10 -11 -10 -5 0 -7 5 -4 10 3 6 8 10
11 10 2 0 4 -4 4 -10z m-120 -10 c0 -5 -15 -10 -32 -9 -31 1 -32 1 -8 9 35 11
40 11 40 0z m1290 -20 c0 -5 -2 -10 -4 -10 -3 0 -8 5 -11 10 -3 6 -1 10 4 10
6 0 11 -4 11 -10z m50 -7 c0 -10 -4 -14 -8 -8 -4 6 -11 13 -16 18 -5 4 -2 7 7
7 10 0 17 -8 17 -17z m-1237 -38 c-7 -21 -12 -19 -10 4 0 11 5 18 9 15 4 -3 5
-11 1 -19z m-133 -25 c16 -10 12 -12 -37 -23 -29 -6 -39 8 -16 22 22 13 34 13
53 1z m95 -20 c-3 -5 -12 -10 -18 -10 -7 0 -6 4 3 10 19 12 23 12 15 0z m57
-108 c9 -18 12 -29 6 -26 -18 11 -38 72 -37 111 l2 38 6 -45 c4 -25 14 -60 23
-78z m-196 73 c18 -13 18 -14 -4 -8 -12 3 -25 9 -28 14 -8 14 10 11 32 -6z
m119 5 c-3 -5 -14 -10 -23 -9 -14 0 -13 2 3 9 27 11 27 11 20 0z m20 -60 c3
-5 1 -10 -4 -10 -6 0 -11 5 -11 10 0 6 2 10 4 10 3 0 8 -4 11 -10z m665 -54
c0 -2 -9 -6 -20 -9 -11 -3 -18 -1 -14 4 5 9 34 13 34 5z m1330 -5 c0 -4 -11
-6 -25 -3 -14 2 -25 6 -25 8 0 2 11 4 25 4 14 0 25 -4 25 -9z m37 3 c-3 -3
-12 -4 -19 -1 -8 3 -5 6 6 6 11 1 17 -2 13 -5z m-491 -64 c7 -7 18 -9 23 -6
19 12 23 -15 5 -29 -14 -10 -22 -10 -32 -2 -17 13 -64 19 -57 6 4 -5 1 -9 -5
-9 -6 0 -14 8 -17 18 -4 9 -11 21 -17 25 -7 5 -2 7 11 4 15 -3 20 -1 16 9 -4
10 2 11 27 4 18 -5 38 -14 46 -20z m-406 6 c0 -3 -4 -8 -10 -11 -5 -3 -10 -1
-10 4 0 6 5 11 10 11 6 0 10 -2 10 -4z m1146 -7 c11 -19 -13 -34 -31 -19 -12
10 -19 10 -28 1 -9 -9 -9 -14 0 -19 7 -4 8 -13 4 -20 -6 -9 -12 -7 -26 8 -10
11 -24 20 -30 20 -18 0 -39 27 -25 32 27 8 130 6 136 -3z m51 5 c-3 -3 -12 -4
-19 -1 -8 3 -5 6 6 6 11 1 17 -2 13 -5z m-952 -32 c-7 -8 -35 7 -35 18 0 6 7
6 20 -2 10 -7 17 -14 15 -16z m-1105 -13 c8 -5 11 -9 5 -9 -5 -1 -27 -3 -47
-5 -36 -4 -50 9 -32 28 8 7 51 -1 74 -14z m790 1 c0 -5 -5 -10 -11 -10 -5 0
-7 5 -4 10 3 6 8 10 11 10 2 0 4 -4 4 -10z m385 -10 c2 -4 -7 -5 -20 -2 -14 2
-25 8 -25 12 0 10 38 1 45 -10z m721 -1 c19 -22 19 -22 -3 -10 -24 12 -39 31
-25 31 5 0 17 -10 28 -21z m-2009 -5 c-3 -3 -12 -4 -19 -1 -8 3 -5 6 6 6 11 1
17 -2 13 -5z m933 -4 c0 -5 -5 -10 -11 -10 -5 0 -7 5 -4 10 3 6 8 10 11 10 2
0 4 -4 4 -10z"/>
<path d="M3441 4004 c0 -11 3 -14 6 -6 3 7 2 16 -1 19 -3 4 -6 -2 -5 -13z"/>
<path d="M4380 3876 c0 -8 5 -16 12 -18 6 -2 8 -10 4 -16 -10 -17 -26 -5 -27
21 -1 20 -2 20 -6 2 -7 -25 -32 -44 -58 -44 -14 0 -11 4 13 14 17 8 32 19 32
24 0 10 -36 -2 -71 -24 -18 -11 -69 -82 -69 -96 0 -14 47 -10 53 4 6 16 63 33
140 42 41 5 60 13 67 26 13 23 13 32 0 24 -5 -3 -10 -2 -10 3 0 5 -11 7 -25 4
-14 -2 -25 0 -25 6 0 6 15 9 35 7 30 -3 34 -1 24 11 -7 8 -20 12 -30 9 -11 -4
-19 -2 -19 4 0 6 -9 11 -20 11 -11 0 -20 -6 -20 -14z"/>
<path d="M3807 3714 c-15 -8 -25 -20 -21 -26 4 -7 9 -6 15 3 7 12 9 12 9 1 0
-8 -9 -16 -20 -19 -11 -3 -20 -9 -20 -14 0 -5 -5 -9 -10 -9 -7 0 -7 6 0 19 14
27 13 31 -6 24 -11 -4 -14 -14 -10 -34 4 -22 1 -31 -14 -39 -16 -8 -20 -8 -20
4 0 8 5 16 12 18 6 2 9 10 7 17 -8 23 -38 -15 -32 -39 9 -34 62 -31 101 5 15
15 35 24 45 21 9 -2 17 1 17 6 0 7 24 8 69 4 55 -6 70 -4 74 7 4 11 -6 17 -36
22 -38 7 -39 8 -17 14 l25 7 -25 7 c-36 10 -43 9 -37 -7 4 -10 0 -12 -15 -8
-15 3 -16 7 -7 13 18 11 6 21 -15 13 -9 -3 -13 -11 -9 -17 3 -5 1 -7 -5 -3 -6
3 -13 2 -17 -4 -8 -13 -25 -13 -25 0 0 6 7 10 15 10 8 0 15 5 15 10 0 13 -10
12 -43 -6z"/>
<path d="M4362 3598 c-18 -18 -15 -36 8 -48 21 -11 21 -11 -2 -39 -13 -15 -30
-27 -38 -27 -8 1 -14 -4 -13 -10 1 -8 -6 -10 -19 -6 -14 3 -19 1 -14 -6 4 -7
2 -12 -3 -12 -6 0 -11 5 -11 10 0 6 -6 10 -14 10 -7 0 -19 7 -26 15 -7 8 -17
15 -22 15 -6 0 -5 -7 2 -15 11 -13 9 -15 -11 -13 -18 2 -25 -2 -27 -20 -5 -30
-45 -46 -92 -35 -35 9 -42 26 -29 73 3 9 -5 16 -20 18 -18 3 -22 0 -18 -12 4
-9 -1 -19 -10 -24 -37 -21 21 -114 62 -98 8 3 15 1 15 -4 0 -6 9 -10 20 -10
11 0 20 -4 20 -10 0 -18 71 -41 107 -34 34 6 93 62 93 88 0 8 22 31 49 50 43
32 49 41 48 69 -1 17 -7 32 -14 32 -6 0 -15 4 -20 8 -4 5 -3 8 2 7 21 -5 25 1
15 20 -12 23 -21 25 -38 8z m-332 -178 c0 -5 -2 -10 -4 -10 -3 0 -8 5 -11 10
-3 6 -1 10 4 10 6 0 11 -4 11 -10z m180 -32 c0 -13 -23 -5 -28 10 -2 7 2 10
12 6 9 -3 16 -11 16 -16z m-9 -26 c-7 -2 -18 1 -23 6 -8 8 -4 9 13 5 13 -4 18
-8 10 -11z m16 -28 c-3 -3 -12 -4 -19 -1 -8 3 -5 6 6 6 11 1 17 -2 13 -5z"/>
<path d="M4530 2399 c0 -5 9 -9 20 -9 11 0 20 2 20 4 0 2 -9 6 -20 9 -11 3
-20 1 -20 -4z"/>
<path d="M4610 2400 c0 -5 7 -10 16 -10 8 0 12 5 9 10 -3 6 -10 10 -16 10 -5
0 -9 -4 -9 -10z"/>
<path d="M4198 2393 c7 -3 16 -2 19 1 4 3 -2 6 -13 5 -11 0 -14 -3 -6 -6z"/>
<path d="M3878 2343 c6 -2 18 -2 25 0 6 3 1 5 -13 5 -14 0 -19 -2 -12 -5z"/>
<path d="M6267 4143 c-4 -3 -7 -13 -7 -22 1 -13 3 -13 11 2 11 19 8 33 -4 20z"/>
<path d="M6290 4120 c0 -5 5 -10 11 -10 5 0 7 5 4 10 -3 6 -8 10 -11 10 -2 0
-4 -4 -4 -10z"/>
<path d="M3285 3190 c-3 -5 -1 -10 4 -10 6 0 11 5 11 10 0 6 -2 10 -4 10 -3 0
-8 -4 -11 -10z"/>
<path d="M3405 4594 c9 -9 19 -13 23 -10 3 4 0 11 -8 16 -24 15 -33 11 -15 -6z"/>
<path d="M5611 4581 c-12 -8 -12 -11 1 -25 14 -14 16 -13 14 9 0 14 -1 25 -1
25 0 0 -6 -4 -14 -9z"/>
<path d="M4550 4569 c0 -5 5 -7 10 -4 6 3 10 8 10 11 0 2 -4 4 -10 4 -5 0 -10
-5 -10 -11z"/>
<path d="M2622 4556 c-17 -8 -22 -18 -20 -40 2 -16 10 -31 18 -33 11 -4 12 -2
2 5 -9 6 -2 14 28 27 22 10 40 22 40 26 0 8 -35 31 -42 28 -2 -1 -13 -7 -26
-13z"/>
<path d="M3729 4537 c6 -8 8 -16 5 -19 -3 -3 6 -5 20 -4 31 1 33 11 7 26 -29
15 -46 13 -32 -3z"/>
<path d="M11174 4529 c-5 -9 -2 -10 9 -6 31 12 18 -3 -15 -17 -63 -27 -170
-154 -112 -132 15 6 15 4 3 -10 -24 -30 69 27 122 75 40 35 49 49 47 70 -3 28
-40 42 -54 20z m8 -52 c-7 -8 -8 -17 -4 -21 4 -4 0 -6 -8 -4 -8 2 -14 -3 -12
-9 1 -7 -1 -13 -5 -14 -15 -1 -38 -7 -58 -14 -24 -9 38 55 70 73 24 13 32 8
17 -11z"/>
<path d="M8942 4500 c-12 -19 -22 -39 -22 -43 0 -5 -7 -1 -16 7 -19 19 -24 19
-46 2 -26 -19 -38 -60 -29 -94 5 -17 5 -36 -1 -46 -7 -12 -6 -22 2 -29 15 -15
50 27 69 81 7 20 27 59 43 85 16 27 27 54 25 60 -2 7 -14 -4 -25 -23z"/>
<path d="M2792 4502 c-18 -14 -22 -24 -17 -44 9 -37 45 -50 73 -28 28 23 28
55 0 74 -28 20 -28 20 -56 -2z"/>
<path d="M3468 4513 c7 -3 16 -2 19 1 4 3 -2 6 -13 5 -11 0 -14 -3 -6 -6z"/>
<path d="M4910 4489 c0 -6 -9 -9 -20 -6 -11 3 -20 1 -20 -4 0 -5 14 -8 30 -7
27 2 45 28 20 28 -5 0 -10 -5 -10 -11z"/>
<path d="M6634 4471 c3 -5 -2 -8 -12 -7 -9 0 -17 -5 -16 -11 1 -7 2 -22 3 -33
2 -31 36 -44 66 -24 33 22 35 69 3 78 -33 8 -50 7 -44 -3z"/>
<path d="M3665 4430 c3 -5 11 -10 16 -10 6 0 7 5 4 10 -3 6 -11 10 -16 10 -6
0 -7 -4 -4 -10z"/>
<path d="M3540 4421 c0 -14 18 -23 31 -15 8 4 7 9 -2 15 -18 11 -29 11 -29 0z"/>
<path d="M3610 4421 c0 -5 7 -11 15 -15 8 -3 15 -1 15 3 0 5 -7 11 -15 15 -8
3 -15 1 -15 -3z"/>
<path d="M5480 4421 c0 -5 5 -13 10 -16 6 -3 10 -2 10 4 0 5 -4 13 -10 16 -5
3 -10 2 -10 -4z"/>
<path d="M3246 4405 c-3 -9 -6 -22 -5 -28 0 -7 5 -1 10 12 5 13 8 26 5 28 -2
2 -6 -3 -10 -12z"/>
<path d="M4865 4410 c3 -5 8 -10 11 -10 2 0 4 5 4 10 0 6 -5 10 -11 10 -5 0
-7 -4 -4 -10z"/>
<path d="M3310 4391 c0 -10 -6 -22 -12 -24 -7 -3 -3 -6 10 -6 15 -1 22 5 22
18 0 11 -4 23 -10 26 -5 3 -10 -3 -10 -14z"/>
<path d="M3000 4385 c-7 -9 -9 -26 -5 -45 6 -26 11 -30 38 -30 38 0 69 36 45
51 -7 5 -8 9 -3 9 17 1 -28 30 -46 30 -9 0 -22 -7 -29 -15z"/>
<path d="M5421 4364 c0 -11 3 -14 6 -6 3 7 2 16 -1 19 -3 4 -6 -2 -5 -13z"/>
<path d="M11240 4369 c0 -5 5 -7 10 -4 6 3 10 8 10 11 0 2 -4 4 -10 4 -5 0
-10 -5 -10 -11z"/>
<path d="M6357 4363 c-10 -9 -9 -23 1 -23 5 0 9 7 9 15 0 17 -1 18 -10 8z"/>
<path d="M3235 4350 c-8 -13 15 -13 35 0 12 8 11 10 -7 10 -12 0 -25 -4 -28
-10z"/>
<path d="M3730 4340 c0 -5 10 -10 23 -10 18 0 19 2 7 10 -19 13 -30 13 -30 0z"/>
<path d="M11215 4341 c-3 -6 4 -8 16 -6 30 6 37 15 11 15 -11 0 -23 -4 -27 -9z"/>
<path d="M11293 4335 c0 -8 4 -12 9 -9 4 3 8 9 8 15 0 5 -4 9 -8 9 -5 0 -9 -7
-9 -15z"/>
<path d="M5162 4320 c0 -14 2 -19 5 -12 2 6 2 18 0 25 -3 6 -5 1 -5 -13z"/>
<path d="M10935 4330 c-8 -13 -9 -12 28 -28 33 -14 36 -47 5 -56 -19 -5 -21
-8 -8 -16 20 -13 33 -12 24 2 -5 8 -2 9 10 5 9 -4 15 -3 12 2 -3 5 1 11 9 14
19 8 1 63 -23 70 -9 3 -24 8 -33 12 -10 3 -20 1 -24 -5z"/>
<path d="M3818 4323 c7 -3 16 -2 19 1 4 3 -2 6 -13 5 -11 0 -14 -3 -6 -6z"/>
<path d="M10830 4310 c0 -5 7 -7 15 -4 8 4 15 8 15 10 0 2 -7 4 -15 4 -8 0
-15 -4 -15 -10z"/>
<path d="M11120 4304 l-35 -14 35 6 c36 6 46 11 39 18 -2 2 -20 -3 -39 -10z"/>
<path d="M11193 4298 c-10 -4 0 -6 26 -3 24 2 46 7 49 10 8 8 -52 3 -75 -7z"/>
<path d="M2460 4269 c0 -25 3 -29 19 -24 12 3 21 0 25 -10 3 -8 13 -15 23 -15
16 1 16 2 3 13 -8 7 -21 24 -29 40 -19 37 -41 35 -41 -4z"/>
<path d="M10850 4282 c0 -5 7 -13 16 -16 10 -4 14 -1 12 6 -5 15 -28 23 -28
10z"/>
<path d="M10900 4250 c20 -13 43 -13 35 0 -3 6 -16 10 -28 10 -18 0 -19 -2 -7
-10z"/>
<path d="M5071 4234 c0 -11 3 -14 6 -6 3 7 2 16 -1 19 -3 4 -6 -2 -5 -13z"/>
<path d="M11092 4239 c-48 -10 -102 -41 -103 -59 -4 -43 8 -63 22 -37 6 9 19
17 29 17 11 0 20 5 20 10 0 11 -13 14 -45 10 -15 -1 -17 1 -9 10 13 13 124 44
131 36 3 -2 -11 -8 -31 -11 -31 -6 -36 -11 -36 -36 0 -16 5 -29 11 -29 6 0 9
6 6 14 -4 9 4 13 25 14 35 1 78 27 78 47 0 8 -3 16 -7 17 -24 4 -62 4 -91 -3z"/>
<path d="M5912 4220 c0 -14 2 -19 5 -12 2 6 2 18 0 25 -3 6 -5 1 -5 -13z"/>
<path d="M2460 4199 c0 -12 8 -28 18 -35 21 -16 40 -18 25 -3 -6 6 -9 17 -6
24 2 8 -5 18 -16 25 -18 9 -21 8 -21 -11z"/>
<path d="M2530 4175 c-7 -9 -11 -17 -9 -20 3 -2 10 5 17 15 14 24 10 26 -8 5z"/>
<path d="M9380 4180 c0 -5 5 -10 10 -10 6 0 10 5 10 10 0 6 -4 10 -10 10 -5 0
-10 -4 -10 -10z"/>
<path d="M2462 4132 c5 -42 67 -42 68 1 0 5 -4 6 -8 3 -5 -3 -21 1 -36 9 -27
14 -27 14 -24 -13z"/>
<path d="M5570 4131 c0 -5 5 -13 10 -16 6 -3 10 -2 10 4 0 5 -4 13 -10 16 -5
3 -10 2 -10 -4z"/>
<path d="M5847 4123 c-4 -3 -7 -13 -7 -22 1 -13 3 -13 11 2 11 19 8 33 -4 20z"/>
<path d="M5530 4095 c0 -7 -8 -19 -17 -24 -16 -9 -16 -10 5 -11 17 0 22 6 22
25 0 14 -2 25 -5 25 -3 0 -5 -7 -5 -15z"/>
<path d="M5869 4105 c-8 -57 -6 -66 10 -37 6 11 6 24 0 33 -5 7 -9 10 -10 4z"/>
<path d="M5807 4093 c-4 -3 -7 -13 -7 -22 1 -13 3 -13 11 2 11 19 8 33 -4 20z"/>
<path d="M5550 4065 c0 -8 5 -15 10 -15 6 0 10 7 10 15 0 8 -4 15 -10 15 -5 0
-10 -7 -10 -15z"/>
<path d="M5765 4060 c-3 -5 -1 -10 4 -10 6 0 11 5 11 10 0 6 -2 10 -4 10 -3 0
-8 -4 -11 -10z"/>
<path d="M5583 4040 c1 -11 5 -20 9 -20 4 0 8 9 8 20 0 11 -4 20 -9 20 -6 0
-9 -9 -8 -20z"/>
<path d="M5725 4037 c-4 -10 -5 -21 -1 -24 10 -10 18 4 13 24 -4 17 -4 17 -12
0z"/>
<path d="M5791 4034 c0 -11 3 -14 6 -6 3 7 2 16 -1 19 -3 4 -6 -2 -5 -13z"/>
<path d="M5925 4040 c-3 -5 -1 -10 4 -10 6 0 11 5 11 10 0 6 -2 10 -4 10 -3 0
-8 -4 -11 -10z"/>
<path d="M5971 4034 c0 -11 3 -14 6 -6 3 7 2 16 -1 19 -3 4 -6 -2 -5 -13z"/>
<path d="M6420 4036 c0 -9 5 -16 10 -16 6 0 10 4 10 9 0 6 -4 13 -10 16 -5 3
-10 -1 -10 -9z"/>
<path d="M9370 4038 c-22 -10 -23 -12 -6 -15 10 -3 26 2 34 11 19 18 8 20 -28
4z"/>
<path d="M5820 4024 c0 -8 5 -12 10 -9 6 3 10 10 10 16 0 5 -4 9 -10 9 -5 0
-10 -7 -10 -16z"/>
<path d="M5880 4001 c0 -17 5 -33 11 -37 8 -4 9 1 4 15 -4 13 -1 28 5 36 10
12 9 15 -4 15 -11 0 -16 -9 -16 -29z"/>
<path d="M5992 4014 c2 -8 7 -14 12 -14 5 1 13 -4 17 -12 7 -11 9 -11 9 0 0
14 -24 42 -35 42 -4 0 -5 -7 -3 -16z"/>
<path d="M5540 4010 c0 -5 5 -10 10 -10 6 0 10 5 10 10 0 6 -4 10 -10 10 -5 0
-10 -4 -10 -10z"/>
<path d="M5617 4014 c-4 -4 -7 -14 -7 -23 0 -11 3 -12 11 -4 6 6 10 16 7 23
-2 6 -7 8 -11 4z"/>
<path d="M5780 4000 c0 -5 5 -10 11 -10 5 0 7 5 4 10 -3 6 -8 10 -11 10 -2 0
-4 -4 -4 -10z"/>
<path d="M5850 4000 c0 -5 5 -10 10 -10 6 0 10 5 10 10 0 6 -4 10 -10 10 -5 0
-10 -4 -10 -10z"/>
<path d="M6090 4000 c0 -5 5 -10 11 -10 5 0 7 5 4 10 -3 6 -8 10 -11 10 -2 0
-4 -4 -4 -10z"/>
<path d="M6155 4001 c-3 -5 -1 -12 5 -16 5 -3 10 1 10 9 0 18 -6 21 -15 7z"/>
<path d="M5570 3988 c0 -21 28 -50 42 -42 6 4 5 10 -3 18 -7 6 -19 18 -26 26
-11 13 -12 13 -13 -2z"/>
<path d="M5950 3973 c0 -10 -3 -29 -5 -43 -4 -17 -1 -14 8 8 10 27 15 30 26
20 11 -11 11 -9 0 10 -16 26 -29 29 -29 5z"/>
<path d="M6046 3972 c-8 -24 -3 -37 12 -31 4 2 5 15 2 29 l-6 25 -8 -23z"/>
<path d="M6957 3972 c-17 -18 -23 -53 -11 -64 3 -3 13 -4 23 -1 14 4 19 15 19
44 1 43 -7 48 -31 21z"/>
<path d="M5640 3958 c0 -19 2 -20 10 -8 9 13 11 13 20 0 6 -9 10 -11 10 -3 0
7 -9 17 -20 23 -17 9 -20 8 -20 -12z"/>
<path d="M5910 3959 c0 -11 4 -18 10 -14 5 3 7 12 3 20 -7 21 -13 19 -13 -6z"/>
<path d="M7610 3743 c0 -248 6 -291 39 -273 11 5 31 10 45 10 41 0 33 -37 -19
-93 -43 -47 -54 -67 -37 -67 5 0 17 7 28 15 26 19 43 19 51 -2 10 -27 36 -58
51 -59 29 -2 32 -5 30 -29 -2 -17 -8 -25 -20 -25 -10 0 -18 -5 -18 -10 0 -9
-20 -34 -86 -105 -15 -17 -20 -32 -16 -51 4 -20 -1 -31 -18 -44 l-23 -17 22
-6 c14 -3 24 0 27 9 2 8 6 21 9 30 3 9 14 18 25 21 17 5 19 11 14 43 -7 44 -4
47 56 51 43 4 45 3 48 -23 4 -31 16 -36 30 -12 6 11 4 34 -6 65 -14 45 -14 50
1 67 19 21 22 49 6 54 -6 2 1 10 16 18 23 12 28 12 35 0 6 -8 10 -27 10 -42 0
-47 33 -31 43 20 5 24 3 32 -8 32 -22 0 -18 19 8 40 22 19 22 19 -41 19 -59
-1 -66 -3 -92 -32 -32 -36 -49 -30 -34 11 8 21 6 37 -7 69 -20 47 -14 53 38
45 31 -4 32 -4 35 39 4 51 21 61 38 20 12 -31 41 -48 61 -36 6 4 8 13 5 20 -3
8 0 16 7 19 7 2 4 5 -5 5 -10 1 -18 5 -18 10 0 5 -10 11 -22 13 l-23 3 3 197
c3 158 1 199 -10 202 -7 3 -73 6 -146 8 l-132 3 0 -232z"/>
<path d="M2800 3945 c-8 -22 -7 -31 6 -46 35 -39 84 -14 84 41 0 17 -4 19 -25
14 -14 -4 -32 -1 -40 6 -12 10 -16 7 -25 -15z"/>
<path d="M5742 3950 c0 -14 2 -19 5 -12 2 6 2 18 0 25 -3 6 -5 1 -5 -13z"/>
<path d="M6140 3961 c0 -6 -7 -8 -15 -5 -8 4 -15 3 -15 -1 0 -9 31 -34 43 -35
11 0 9 38 -3 45 -5 3 -10 2 -10 -4z"/>
<path d="M6000 3941 c0 -11 4 -21 9 -21 5 0 11 -10 15 -22 5 -19 8 -20 16 -8
6 10 6 16 0 18 -6 2 -10 9 -10 17 0 7 -7 18 -15 25 -13 10 -15 9 -15 -9z"/>
<path d="M5830 3940 c0 -5 5 -10 10 -10 6 0 10 5 10 10 0 6 -4 10 -10 10 -5 0
-10 -4 -10 -10z"/>
<path d="M5760 3930 c0 -5 5 -10 10 -10 6 0 10 5 10 10 0 6 -4 10 -10 10 -5 0
-10 -4 -10 -10z"/>
<path d="M5630 3918 c0 -5 4 -7 9 -4 5 3 11 -4 14 -16 7 -25 20 -18 22 11 1
13 -5 19 -22 19 -13 0 -23 -5 -23 -10z"/>
<path d="M5696 3907 c3 -10 9 -15 12 -12 3 3 0 11 -7 18 -10 9 -11 8 -5 -6z"/>
<path d="M6066 3905 c4 -8 10 -15 15 -15 5 0 9 7 9 15 0 8 -7 15 -15 15 -9 0
-12 -6 -9 -15z"/>
<path d="M2478 3888 c-11 -17 -12 -29 -5 -45 15 -34 45 -39 73 -12 28 26 30
42 8 63 -22 23 -59 20 -76 -6z"/>
<path d="M6100 3890 c0 -11 2 -20 4 -20 2 0 6 9 9 20 3 11 1 20 -4 20 -5 0 -9
-9 -9 -20z"/>
<path d="M6130 3891 c0 -12 5 -21 10 -21 6 0 10 6 10 14 0 8 -4 18 -10 21 -5
3 -10 -3 -10 -14z"/>
<path d="M5896 3891 c-4 -6 0 -14 8 -17 9 -3 16 -12 16 -19 0 -11 -6 -11 -30
-2 -31 12 -47 6 -35 -13 5 -8 10 -8 20 0 10 8 15 8 20 0 4 -7 16 -10 26 -7 12
3 19 0 19 -8 0 -17 -28 -24 -57 -14 -12 5 -23 4 -25 0 -2 -5 -13 -12 -25 -15
-17 -6 -23 -3 -23 8 0 9 -4 16 -10 16 -5 0 -10 -6 -10 -12 0 -8 -3 -9 -8 -3
-15 20 -31 14 -37 -16 -4 -17 -4 -33 -1 -36 3 -3 -1 -11 -9 -17 -27 -21 -3
-37 38 -25 21 5 41 8 46 5 5 -3 25 1 44 9 31 13 38 13 50 1 11 -11 17 -12 26
-3 8 8 11 7 11 -5 0 -19 28 -18 41 3 7 11 9 10 9 -5 0 -15 3 -16 15 -6 8 7 25
10 39 6 20 -5 24 -2 24 21 0 24 -2 25 -13 9 -12 -15 -14 -13 -20 23 -4 25 -12
41 -21 41 -8 0 -14 5 -14 11 0 8 -5 8 -15 -1 -8 -7 -16 -10 -16 -6 -1 3 -2 9
-3 14 -1 4 -7 16 -13 27 -9 14 -13 16 -13 5 0 -10 -9 -5 -24 14 -15 18 -26 24
-30 17z m134 -104 c0 -1 -40 -2 -89 -2 -60 -1 -95 -5 -107 -15 -18 -13 -18
-13 -2 5 12 13 35 19 85 22 37 3 70 6 72 8 3 4 41 -13 41 -18z"/>
<path d="M5960 3892 c1 -10 30 -48 30 -38 0 5 9 -2 19 -15 11 -13 23 -21 27
-16 4 4 -3 18 -15 31 -13 14 -21 28 -18 33 3 5 -5 10 -19 11 -13 1 -24 -2 -24
-6z"/>
<path d="M5194 3876 c-12 -9 -14 -15 -6 -20 18 -11 14 -24 -5 -22 -14 1 -19
-8 -21 -37 -3 -36 -2 -37 30 -37 74 2 178 -21 178 -39 0 -3 12 -8 28 -9 15 -1
28 -6 30 -12 2 -5 9 -7 16 -4 26 10 -4 84 -33 84 -6 0 -11 5 -11 10 0 6 -9 10
-21 10 -11 0 -17 5 -14 10 3 6 1 10 -4 10 -6 0 -11 -4 -11 -10 0 -15 -44 -12
-66 6 -19 15 -19 15 2 9 14 -4 24 0 28 10 4 12 0 14 -19 11 -17 -3 -25 0 -25
9 0 9 -6 12 -15 9 -8 -4 -15 -2 -15 4 0 17 -27 21 -46 8z m66 -38 c0 -4 -9 -8
-20 -8 -11 0 -20 4 -20 9 0 6 9 9 20 8 11 -1 20 -5 20 -9z m120 -58 c0 -5 -2
-10 -4 -10 -3 0 -8 5 -11 10 -3 6 -1 10 4 10 6 0 11 -4 11 -10z m35 -20 c3 -6
-1 -7 -9 -4 -18 7 -21 14 -7 14 6 0 13 -4 16 -10z"/>
<path d="M5820 3880 c0 -5 5 -10 11 -10 5 0 7 5 4 10 -3 6 -8 10 -11 10 -2 0
-4 -4 -4 -10z"/>
<path d="M6634 3882 c-16 -10 -36 -52 -26 -52 5 0 15 7 22 15 11 13 15 13 41
-1 32 -16 39 -3 15 29 -14 18 -34 22 -52 9z"/>
<path d="M6057 3860 c-3 -11 -1 -20 4 -20 5 0 9 9 9 20 0 11 -2 20 -4 20 -2 0
-6 -9 -9 -20z"/>
<path d="M6160 3840 c0 -11 4 -20 9 -20 5 0 11 -7 13 -15 2 -13 5 -12 15 4 10
16 9 22 -12 35 -24 16 -25 15 -25 -4z"/>
<path d="M5780 3839 c0 -5 5 -7 10 -4 6 3 10 8 10 11 0 2 -4 4 -10 4 -5 0 -10
-5 -10 -11z"/>
<path d="M6091 3834 c0 -11 3 -14 6 -6 3 7 2 16 -1 19 -3 4 -6 -2 -5 -13z"/>
<path d="M2577 3822 c-26 -28 -21 -61 9 -72 32 -12 54 -13 54 -1 0 5 -8 7 -17
5 -10 -2 -23 -1 -29 3 -17 12 -26 50 -14 58 19 12 57 -4 65 -27 6 -21 8 -21
12 -4 10 38 -53 68 -80 38z"/>
<path d="M5825 3830 c-3 -5 -1 -10 4 -10 6 0 11 5 11 10 0 6 -2 10 -4 10 -3 0
-8 -4 -11 -10z"/>
<path d="M3175 3820 c-3 -6 1 -7 9 -4 18 7 21 14 7 14 -6 0 -13 -4 -16 -10z"/>
<path d="M5325 3820 c3 -5 8 -10 11 -10 2 0 4 5 4 10 0 6 -5 10 -11 10 -5 0
-7 -4 -4 -10z"/>
<path d="M6050 3818 c0 -9 5 -20 11 -23 17 -11 20 0 4 21 -13 17 -14 17 -15 2z"/>
<path d="M3265 3800 c3 -5 11 -10 16 -10 6 0 7 5 4 10 -3 6 -11 10 -16 10 -6
0 -7 -4 -4 -10z"/>
<path d="M3208 3793 c7 -3 16 -2 19 1 4 3 -2 6 -13 5 -11 0 -14 -3 -6 -6z"/>
<path d="M6340 3796 c0 -2 7 -7 16 -10 8 -3 12 -2 9 4 -6 10 -25 14 -25 6z"/>
<path d="M6741 3774 c0 -11 3 -14 6 -6 3 7 2 16 -1 19 -3 4 -6 -2 -5 -13z"/>
<path d="M6100 3747 c0 -23 4 -36 10 -32 13 8 13 35 0 55 -7 11 -10 5 -10 -23z"/>
<path d="M6143 3763 c-20 -7 -15 -47 7 -66 23 -19 25 -10 8 28 -10 22 -9 28 3
36 15 9 3 11 -18 2z"/>
<path d="M6514 3743 c5 -13 4 -14 -8 -4 -12 10 -19 8 -34 -7 -21 -21 -18 -35
9 -45 11 -3 25 4 40 22 31 35 32 46 7 48 -14 1 -18 -3 -14 -14z"/>
<path d="M6767 3739 c5 -5 22 -5 38 0 30 9 30 9 -8 8 -21 0 -34 -4 -30 -8z"/>
<path d="M2530 3727 c0 -21 22 -37 52 -37 33 0 38 24 9 40 -27 14 -61 13 -61
-3z"/>
<path d="M8714 3725 c-4 -8 -4 -22 0 -30 3 -8 -1 -18 -9 -22 -24 -14 -19 -133
6 -133 15 0 10 -22 -8 -43 -18 -19 -17 -19 14 -13 18 4 34 3 38 -3 8 -14 65
-14 65 -1 0 12 70 4 83 -9 5 -5 16 -7 23 -4 15 6 79 -21 89 -37 3 -5 12 -7 20
-4 8 4 29 1 46 -5 18 -6 34 -9 36 -7 3 2 -33 18 -79 36 -154 60 -190 84 -261
181 -18 23 -27 49 -27 72 0 27 -4 37 -15 37 -9 0 -18 -7 -21 -15z"/>
<path d="M2478 3723 c-27 -7 -26 -103 0 -103 10 0 27 6 37 14 11 8 25 12 32 9
7 -3 1 16 -13 41 -14 25 -29 45 -32 45 -4 -1 -15 -3 -24 -6z"/>
<path d="M3328 3703 c6 -2 18 -2 25 0 6 3 1 5 -13 5 -14 0 -19 -2 -12 -5z"/>
<path d="M3397 3699 c7 -7 15 -10 18 -7 3 3 -2 9 -12 12 -14 6 -15 5 -6 -5z"/>
<path d="M6195 3700 c3 -5 8 -10 11 -10 2 0 4 5 4 10 0 6 -5 10 -11 10 -5 0
-7 -4 -4 -10z"/>
<path d="M6015 3690 c-3 -5 1 -10 9 -10 9 0 16 5 16 10 0 6 -4 10 -9 10 -6 0
-13 -4 -16 -10z"/>
<path d="M6391 3686 c-29 -10 -31 -13 -17 -25 9 -7 16 -10 16 -6 0 4 6 3 13
-3 8 -7 22 -6 47 5 l35 14 -25 14 c-29 17 -26 17 -69 1z"/>
<path d="M6105 3659 c-4 -5 1 -9 9 -9 9 0 16 -4 16 -10 0 -5 5 -10 12 -10 6 0
20 -7 30 -17 10 -9 18 -11 18 -5 0 6 -5 12 -11 14 -5 2 -11 12 -13 23 -3 21
-50 32 -61 14z"/>
<path d="M5980 3641 c0 -25 34 -33 48 -11 9 15 7 19 -11 24 -33 9 -37 8 -37
-13z m30 -1 c0 -5 -2 -10 -4 -10 -3 0 -8 5 -11 10 -3 6 -1 10 4 10 6 0 11 -4
11 -10z"/>
<path d="M5615 3630 c3 -5 8 -10 11 -10 2 0 4 5 4 10 0 6 -5 10 -11 10 -5 0
-7 -4 -4 -10z"/>
<path d="M6070 3630 c0 -5 10 -10 23 -10 18 0 19 2 7 10 -19 13 -30 13 -30 0z"/>
<path d="M2485 3550 c-18 -34 -18 -40 -5 -40 18 0 80 45 80 58 0 7 -13 12 -30
12 -23 0 -33 -7 -45 -30z"/>
<path d="M5386 3518 c-19 -43 -19 -98 0 -98 8 0 14 -4 14 -9 0 -5 9 -13 20
-16 11 -4 18 -11 15 -16 -11 -16 121 -11 135 6 14 16 70 21 70 5 0 -9 43 -23
113 -35 29 -5 37 -3 37 10 0 8 9 15 20 15 11 0 20 6 20 14 0 8 6 16 13 19 9 3
9 7 -2 20 -8 10 -9 17 -3 17 6 0 10 9 9 20 -1 11 -7 20 -14 20 -7 0 -13 5 -13
10 0 6 -7 10 -15 10 -10 0 -15 -10 -15 -32 -1 -39 -20 -68 -46 -68 -10 0 -38
9 -61 19 -38 18 -41 18 -37 3 3 -9 -1 -6 -9 8 -9 14 -13 28 -10 32 2 5 -3 11
-11 14 -17 7 -65 -25 -66 -43 0 -7 -6 -14 -12 -14 -7 -1 -17 -2 -23 -4 -5 -1
-23 -3 -40 -4 -26 -2 -27 -3 -10 -11 28 -12 2 -12 -29 0 -14 5 -26 15 -25 22
0 10 2 10 6 1 9 -24 20 -13 15 17 -3 20 0 30 8 30 9 0 7 7 -5 20 -10 11 -15
23 -12 27 4 3 7 0 7 -7 0 -7 2 -11 5 -8 9 9 -7 38 -21 38 -7 0 -20 -15 -28
-32z m344 -123 c0 -10 -40 -10 -43 0 -4 8 3 10 19 7 13 -2 24 -6 24 -7z"/>
<path d="M6445 3531 c3 -5 -1 -11 -7 -14 -7 -2 -10 -8 -6 -12 9 -9 38 1 38 14
0 5 -7 12 -16 15 -8 3 -13 2 -9 -3z"/>
<path d="M6915 3497 c5 -18 1 -31 -14 -46 -24 -24 -6 -29 19 -6 18 16 16 60
-2 71 -5 3 -6 -5 -3 -19z"/>
<path d="M11322 3508 c-7 -7 -12 -29 -12 -49 0 -30 -7 -43 -40 -73 -50 -45
-51 -62 -3 -71 32 -6 39 -3 58 22 13 15 22 31 21 35 0 4 10 15 23 24 16 12 19
19 11 24 -7 4 -13 23 -15 41 -2 19 -3 40 -4 47 -1 15 -23 16 -39 0z"/>
<path d="M11260 3492 c0 -5 7 -13 16 -16 10 -4 14 -1 12 6 -5 15 -28 23 -28
10z"/>
<path d="M6647 3459 c27 -30 28 -30 31 -9 4 24 -12 40 -41 40 -14 0 -12 -5 10
-31z"/>
<path d="M11220 3480 c0 -5 5 -10 10 -10 6 0 10 5 10 10 0 6 -4 10 -10 10 -5
0 -10 -4 -10 -10z"/>
<path d="M8690 3460 c0 -5 4 -10 9 -10 6 0 13 5 16 10 3 6 -1 10 -9 10 -9 0
-16 -4 -16 -10z"/>
<path d="M6450 3445 c0 -8 5 -15 10 -15 6 0 10 7 10 15 0 8 -4 15 -10 15 -5 0
-10 -7 -10 -15z"/>
<path d="M6410 3430 c0 -5 5 -10 10 -10 6 0 10 5 10 10 0 6 -4 10 -10 10 -5 0
-10 -4 -10 -10z"/>
<path d="M6580 3405 c7 -8 20 -15 29 -15 13 1 13 3 -3 15 -26 19 -42 19 -26 0z"/>
<path d="M2930 3389 c0 -6 9 -8 23 -4 18 5 19 4 7 -5 -13 -10 -13 -11 2 -7 9
3 19 -1 22 -9 3 -9 11 -12 18 -8 8 5 4 13 -11 26 -25 20 -61 24 -61 7z"/>
<path d="M2904 3378 c-12 -18 -5 -50 14 -64 23 -16 52 -5 52 20 0 17 -2 18
-10 6 -8 -13 -14 -8 -12 11 1 4 -7 14 -17 23 -15 14 -21 15 -27 4z"/>
<path d="M6943 3371 c-34 -27 -36 -59 -5 -75 40 -20 52 -10 52 39 0 49 -16 61
-47 36z"/>
<path d="M9188 3383 c6 -2 18 -2 25 0 6 3 1 5 -13 5 -14 0 -19 -2 -12 -5z"/>
<path d="M11201 3274 c-6 -21 -11 -47 -11 -57 0 -10 -4 -26 -9 -35 -4 -9 -11
-33 -15 -54 l-7 -36 38 1 c21 1 51 -2 67 -6 26 -7 34 -2 97 61 49 49 68 74 63
85 -3 9 -11 14 -18 10 -7 -4 -6 -1 2 9 16 20 1 34 -49 43 -32 6 -40 3 -63 -22
-15 -15 -24 -20 -21 -11 7 17 -26 43 -39 30 -4 -3 -11 0 -16 7 -6 10 -11 3
-19 -25z"/>
<path d="M2588 3269 c-26 -15 -24 -71 3 -88 33 -20 69 3 69 44 0 24 -6 35 -25
43 -30 14 -26 14 -47 1z"/>
<path d="M6670 3264 c-17 -19 -2 -67 22 -72 26 -5 66 41 57 67 -10 26 -60 29
-79 5z"/>
<path d="M7686 3254 c-18 -13 -56 -63 -56 -74 0 -3 11 -6 25 -6 16 -1 26 5 30
17 5 14 12 18 26 14 10 -4 19 -2 19 4 0 5 3 16 6 24 9 24 -27 38 -50 21z"/>
<path d="M6937 3231 c-10 -4 -18 -11 -17 -15 1 -5 -4 -13 -12 -17 -9 -6 -2 -9
19 -9 33 0 52 -15 31 -23 -7 -3 -3 -4 10 -4 17 1 22 7 22 27 0 14 -5 31 -12
38 -13 13 -15 14 -41 3z"/>
<path d="M8365 3164 c-9 -15 -12 -23 -6 -20 11 7 35 46 28 46 -3 0 -12 -12
-22 -26z"/>
<path d="M6920 3169 c0 -5 5 -7 10 -4 6 3 10 8 10 11 0 2 -4 4 -10 4 -5 0 -10
-5 -10 -11z"/>
<path d="M6960 3130 c0 -5 -7 -6 -17 -3 -11 4 -14 3 -9 -5 4 -7 16 -12 26 -12
10 0 21 -8 23 -17 3 -10 5 -3 6 15 1 22 -4 32 -14 32 -8 0 -15 -4 -15 -10z"/>
<path d="M6305 3113 c3 -10 7 -22 8 -28 3 -16 19 -24 34 -18 11 4 8 12 -14 30
-27 23 -27 24 -4 17 16 -4 21 -3 17 5 -4 6 -16 11 -28 11 -15 0 -18 -4 -13
-17z"/>
<path d="M8168 3110 c-20 -11 -67 -54 -105 -96 -136 -154 -217 -234 -235 -234
-19 0 -22 -8 -10 -26 10 -17 127 61 195 130 36 37 63 56 79 56 13 0 29 5 35
11 9 9 14 5 19 -15 3 -14 10 -26 15 -26 25 0 4 -51 -39 -97 -39 -42 -48 -57
-45 -80 3 -21 -5 -39 -36 -75 -25 -31 -37 -55 -34 -67 6 -22 -23 -71 -43 -71
-7 0 -18 -9 -24 -20 -9 -18 -8 -20 16 -20 40 0 86 -27 114 -66 14 -20 44 -58
68 -85 23 -27 43 -55 43 -62 3 -26 4 -33 15 -62 7 -16 17 -49 23 -72 11 -40
13 -42 36 -31 16 7 25 19 25 35 0 12 4 23 9 23 5 0 13 15 16 33 4 17 10 36 13
41 2 5 5 29 5 55 1 31 7 51 19 62 19 17 24 39 9 39 -6 0 -3 20 6 45 12 37 19
45 34 40 14 -5 19 -2 18 12 0 10 -3 13 -6 5 -8 -20 -23 -3 -23 27 0 42 22 88
40 84 11 -4 12 -2 2 4 -15 11 -31 63 -25 81 3 6 12 12 21 12 13 0 14 2 4 9
-12 7 -11 14 2 39 20 38 21 52 2 26 -13 -17 -14 -15 -11 24 1 24 5 46 9 49 12
12 6 44 -9 49 -21 9 -19 31 5 44 13 7 18 16 13 23 -4 7 -8 19 -9 27 -1 8 -2
22 -3 31 0 9 -17 24 -36 35 -28 15 -35 25 -35 49 -1 29 -1 29 -15 10 -15 -18
-16 -18 -44 -2 -37 22 -77 21 -123 -3z m-87 -133 c-13 -12 -20 -15 -16 -7 14
26 28 41 33 35 3 -3 -5 -16 -17 -28z"/>
<path d="M11306 3039 c-21 -17 -30 -19 -41 -9 -8 7 -21 10 -30 7 -8 -4 -17 -2
-20 3 -4 6 -20 10 -36 10 l-30 0 7 -52 c8 -60 18 -78 45 -78 12 0 19 -7 19
-20 0 -24 46 -45 71 -33 10 4 43 32 73 61 48 45 55 57 50 79 -4 16 -19 30 -40
39 -41 17 -36 18 -68 -7z m-43 -36 c20 -6 23 -33 5 -51 -15 -15 -48 -16 -48
-1 0 5 -5 7 -12 3 -8 -5 -9 0 -5 17 4 13 7 30 7 38 0 9 6 11 18 6 9 -4 25 -10
35 -12z"/>
<path d="M7822 3009 c-7 -11 -11 -23 -8 -26 9 -10 61 14 61 28 0 23 -39 22
-53 -2z"/>
<path d="M3008 2999 c-10 -5 -18 -20 -18 -32 0 -13 -7 -33 -16 -45 -13 -20
-14 -28 -4 -53 11 -25 18 -30 44 -27 24 2 32 9 39 33 5 17 13 38 18 47 14 28
10 60 -8 74 -22 16 -32 17 -55 3z"/>
<path d="M2528 2964 c-44 -23 -32 -68 20 -70 28 -2 32 1 32 23 0 13 4 21 10
18 6 -3 10 0 10 9 0 23 -24 25 -38 2 -12 -20 -13 -20 -7 7 3 15 4 27 3 27 -2
-1 -15 -8 -30 -16z"/>
<path d="M7610 2917 l0 -48 48 5 c26 2 52 5 58 5 6 1 9 11 7 24 -3 14 2 31 11
40 9 8 16 17 16 19 0 2 -31 3 -70 3 l-70 0 0 -48z m70 -11 c-14 -14 -24 0 -16
21 6 15 8 15 16 3 6 -9 5 -19 0 -24z"/>
<path d="M7808 2942 c-8 -15 -23 -28 -36 -30 -36 -5 -20 -26 25 -33 59 -8 83
4 83 40 0 23 -6 31 -30 39 -27 10 -31 8 -42 -16z"/>
<path d="M2460 2870 c0 -59 17 -66 50 -20 18 25 19 30 6 30 -9 0 -16 9 -16 20
0 13 -7 20 -20 20 -17 0 -20 -7 -20 -50z"/>
<path d="M11140 2905 c-7 -8 -19 -15 -27 -15 -13 0 -13 -3 -3 -15 7 -8 24 -15
39 -15 18 0 22 3 12 9 -17 11 1 23 23 15 9 -3 16 -1 16 5 0 6 -7 11 -15 11 -8
0 -15 5 -15 10 0 15 -16 12 -30 -5z"/>
<path d="M3335 2900 c-3 -5 -1 -10 4 -10 6 0 11 5 11 10 0 6 -2 10 -4 10 -3 0
-8 -4 -11 -10z"/>
<path d="M8446 2845 c-3 -8 -1 -15 4 -15 6 0 10 7 10 15 0 8 -2 15 -4 15 -2 0
-6 -7 -10 -15z"/>
<path d="M6876 2795 c-3 -8 -1 -15 4 -15 6 0 10 7 10 15 0 8 -2 15 -4 15 -2 0
-6 -7 -10 -15z"/>
<path d="M2678 2786 c-10 -7 -18 -26 -18 -44 0 -26 5 -31 30 -37 34 -8 60 8
59 34 0 11 -3 10 -11 -6 -12 -25 -37 -30 -56 -11 -17 17 -15 38 5 60 19 21 15
23 -9 4z"/>
<path d="M3360 2770 c0 -5 5 -10 10 -10 6 0 10 5 10 10 0 6 -4 10 -10 10 -5 0
-10 -4 -10 -10z"/>
<path d="M6176 2754 c-8 -22 -8 -24 8 -24 7 0 16 9 19 20 6 24 -18 28 -27 4z"/>
<path d="M6226 2675 c4 -8 8 -15 10 -15 2 0 4 7 4 15 0 8 -4 15 -10 15 -5 0
-7 -7 -4 -15z"/>
<path d="M3011 2621 c-14 -20 -16 -32 -9 -53 5 -16 13 -28 18 -28 5 0 11 -9
15 -19 7 -24 52 -36 72 -19 9 7 24 12 34 10 10 -2 39 6 64 17 35 16 45 25 45
44 0 30 -30 58 -56 53 -37 -8 -74 -26 -74 -36 0 -21 -18 -9 -28 19 -14 41 -56
47 -81 12z"/>
<path d="M6955 2523 c-39 -10 -48 -58 -15 -88 32 -29 50 -13 50 45 0 27 -3 49
-7 49 -5 -1 -17 -4 -28 -6z"/>
<path d="M2563 2493 c-19 -4 -23 -11 -23 -39 0 -28 5 -36 28 -45 17 -7 33 -7
42 -1 20 12 26 72 8 83 -14 9 -18 9 -55 2z"/>
<path d="M2916 2481 c-25 -28 -17 -63 17 -75 35 -13 61 2 65 35 3 31 -7 46
-39 54 -18 4 -30 1 -43 -14z"/>
<path d="M4880 2464 c0 -7 7 -25 15 -40 8 -16 15 -36 15 -45 0 -9 8 -23 18
-30 15 -12 16 -12 6 1 -6 8 -14 31 -18 51 -6 35 -35 85 -36 63z"/>
<path d="M2772 2434 c-22 -15 -31 -64 -12 -64 6 0 10 7 10 15 0 22 39 57 56
51 9 -3 12 -1 9 4 -9 15 -37 12 -63 -6z"/>
<path d="M6938 2393 c-9 -2 -19 -16 -23 -31 -5 -22 -1 -31 22 -49 15 -13 33
-21 38 -20 6 2 11 27 13 55 3 55 -1 58 -50 45z"/>
<path d="M5408 2363 c6 -2 18 -2 25 0 6 3 1 5 -13 5 -14 0 -19 -2 -12 -5z"/>
<path d="M3410 2346 c0 -2 7 -7 16 -10 8 -3 12 -2 9 4 -6 10 -25 14 -25 6z"/>
<path d="M6065 2338 c-2 -7 -6 -26 -7 -42 -3 -24 2 -31 26 -39 24 -8 32 -6 54
17 l26 25 -24 26 c-25 26 -68 34 -75 13z"/>
<path d="M4820 2319 c0 -5 5 -7 10 -4 6 3 10 8 10 11 0 2 -4 4 -10 4 -5 0 -10
-5 -10 -11z"/>
<path d="M11080 2319 c0 -5 5 -7 10 -4 6 3 10 8 10 11 0 2 -4 4 -10 4 -5 0
-10 -5 -10 -11z"/>
<path d="M3462 2280 c-45 -43 -12 -108 47 -95 37 8 44 18 43 57 -1 53 -51 74
-90 38z"/>
<path d="M4160 2279 c0 -5 5 -7 10 -4 6 3 10 8 10 11 0 2 -4 4 -10 4 -5 0 -10
-5 -10 -11z"/>
<path d="M11163 2278 c2 -7 14 -12 26 -10 13 2 32 -5 43 -15 20 -18 21 -18 10
3 -12 23 -32 34 -64 34 -11 0 -18 -5 -15 -12z"/>
<path d="M5340 2265 c0 -8 2 -15 4 -15 2 0 6 7 10 15 3 8 1 15 -4 15 -6 0 -10
-7 -10 -15z"/>
<path d="M4812 2250 c0 -14 2 -19 5 -12 2 6 2 18 0 25 -3 6 -5 1 -5 -13z"/>
<path d="M4128 2233 c7 -3 16 -2 19 1 4 3 -2 6 -13 5 -11 0 -14 -3 -6 -6z"/>
<path d="M4325 2230 c-3 -5 -1 -10 4 -10 6 0 11 5 11 10 0 6 -2 10 -4 10 -3 0
-8 -4 -11 -10z"/>
<path d="M4830 2230 c0 -5 5 -10 10 -10 6 0 10 5 10 10 0 6 -4 10 -10 10 -5 0
-10 -4 -10 -10z"/>
<path d="M5296 2215 c9 -14 13 -25 8 -25 -4 0 -3 -5 4 -12 8 -8 15 -8 27 2 13
11 12 15 -12 36 -36 31 -48 30 -27 -1z"/>
<path d="M6075 2219 c-4 -11 -4 -23 0 -27 9 -9 40 13 43 32 5 24 -35 20 -43
-5z"/>
<path d="M4950 2213 c0 -23 -24 -48 -39 -39 -5 3 -7 -3 -4 -14 4 -14 0 -20
-11 -20 -10 0 -14 -4 -11 -10 3 -5 -3 -10 -14 -10 -13 0 -19 -5 -15 -14 6 -17
-25 -56 -44 -56 -7 0 -11 -4 -8 -9 9 -14 -25 -23 -40 -10 -7 6 -13 14 -12 17
3 23 -3 42 -12 37 -5 -3 -10 1 -10 10 0 10 -7 15 -17 13 -12 -2 -19 4 -21 20
-2 12 -8 22 -13 22 -6 0 -7 5 -4 10 3 6 0 10 -8 10 -15 0 -16 -28 -2 -68 5
-17 13 -22 26 -19 11 3 17 1 14 -4 -8 -12 25 -59 41 -59 8 0 14 -4 14 -10 0
-5 6 -10 13 -10 21 0 77 30 77 41 0 6 4 8 9 5 5 -3 16 6 26 20 9 14 24 33 34
43 9 9 27 34 40 55 22 35 22 39 7 54 -15 15 -16 15 -16 -5z"/>
<path d="M5475 2220 c3 -5 8 -10 11 -10 2 0 4 5 4 10 0 6 -5 10 -11 10 -5 0
-7 -4 -4 -10z"/>
<path d="M4060 2205 c0 -32 101 -142 120 -130 6 4 8 12 4 18 -3 7 1 4 9 -5 8
-10 22 -18 31 -18 9 0 25 8 35 18 10 9 31 27 45 39 14 12 26 27 26 33 0 7 -6
5 -16 -4 -8 -9 -33 -19 -53 -22 -27 -4 -38 -11 -37 -23 1 -10 -5 -14 -14 -12
-8 2 -23 4 -32 5 -16 0 -23 16 -15 31 5 11 -43 35 -58 29 -13 -5 -16 -2 -13
17 2 16 -2 25 -14 27 -10 2 -18 1 -18 -3z"/>
<path d="M4791 2194 c0 -11 3 -14 6 -6 3 7 2 16 -1 19 -3 4 -6 -2 -5 -13z"/>
<path d="M4865 2200 c3 -5 8 -10 11 -10 2 0 4 5 4 10 0 6 -5 10 -11 10 -5 0
-7 -4 -4 -10z"/>
<path d="M5530 2203 c8 -3 21 -10 28 -16 9 -7 11 -6 6 7 -3 9 -16 16 -28 15
-14 0 -16 -2 -6 -6z"/>
<path d="M6496 2195 c-13 -35 -6 -62 19 -73 39 -18 67 3 63 48 -3 32 -6 35
-39 38 -26 2 -38 -1 -43 -13z"/>
<path d="M12080 2186 c-14 -7 -56 -28 -93 -47 -38 -19 -78 -45 -90 -59 -12
-14 -34 -33 -48 -42 -28 -18 -62 -67 -74 -108 -8 -24 -7 -23 29 8 30 26 45 32
82 32 97 0 229 -102 216 -168 l-6 -27 -6 25 c-7 29 -45 36 -45 9 0 -10 -16
-32 -36 -50 -24 -23 -47 -62 -69 -116 -33 -81 -35 -108 -6 -84 11 9 15 9 18
-1 2 -6 22 16 43 51 42 67 38 66 119 45 l26 -6 0 183 c-1 173 -14 346 -29 361
-3 4 -17 1 -31 -6z"/>
<path d="M4190 2180 c0 -5 5 -10 11 -10 5 0 7 5 4 10 -3 6 -8 10 -11 10 -2 0
-4 -4 -4 -10z"/>
<path d="M4710 2186 c0 -2 8 -10 18 -17 15 -13 16 -12 3 4 -13 16 -21 21 -21
13z"/>
<path d="M6873 2183 c-23 -9 -15 -59 12 -77 35 -23 75 -7 75 32 0 15 -5 33
-12 40 -12 12 -52 15 -75 5z"/>
<path d="M5336 2171 c-10 -16 20 -45 39 -37 17 6 17 8 -3 26 -24 22 -28 24
-36 11z"/>
<path d="M5475 2160 c21 -24 26 -25 19 -6 -3 8 -13 17 -22 21 -13 5 -13 2 3
-15z"/>
<path d="M6020 2121 c0 -20 7 -34 19 -41 30 -16 37 -12 39 20 1 17 -1 29 -5
28 -5 -1 -18 3 -30 10 -22 12 -23 11 -23 -17z"/>
<path d="M2673 2121 c-32 -27 -30 -63 4 -78 37 -18 43 -16 43 8 0 14 5 19 15
16 8 -4 17 -2 20 3 4 6 2 10 -3 10 -5 0 -7 11 -5 24 4 18 -1 25 -19 29 -31 9
-30 9 -55 -12z"/>
<path d="M3973 2133 c-40 -5 -42 -16 -5 -41 21 -15 34 -17 60 -10 17 5 32 12
32 17 0 11 -35 41 -46 39 -5 0 -24 -3 -41 -5z"/>
<path d="M5535 2130 c3 -5 8 -10 11 -10 2 0 4 5 4 10 0 6 -5 10 -11 10 -5 0
-7 -4 -4 -10z"/>
<path d="M3325 2122 c-5 -4 -11 -14 -11 -23 -1 -12 4 -15 19 -11 14 3 18 1 15
-9 -3 -8 -13 -14 -24 -14 -25 0 -30 -32 -8 -56 23 -25 58 -24 83 2 15 16 18
26 11 40 -6 10 -10 27 -10 38 0 30 -49 52 -75 33z"/>
<path d="M4800 2115 c0 -8 4 -15 10 -15 5 0 7 7 4 15 -4 8 -8 15 -10 15 -2 0
-4 -7 -4 -15z"/>
<path d="M4927 2085 l-38 -45 26 0 c15 0 41 8 58 18 18 9 33 18 35 18 8 3 -23
54 -32 54 -7 0 -29 -20 -49 -45z"/>
<path d="M5258 2089 c-14 -33 -14 -39 -2 -39 8 0 14 6 14 14 0 8 6 16 13 18
10 2 10 8 2 24 -10 20 -11 19 -27 -17z"/>
<path d="M5442 2104 c9 -9 21 -13 28 -9 14 9 -5 25 -30 25 -12 0 -12 -3 2 -16z"/>
<path d="M4268 2069 c-34 -31 -34 -33 -19 -65 10 -22 23 -34 44 -38 49 -10 51
-3 31 96 -8 41 -18 42 -56 7z"/>
<path d="M5336 2044 l-29 -35 38 -35 c29 -27 41 -32 51 -23 20 17 17 57 -6 76
-13 11 -16 19 -9 24 12 7 4 30 -9 28 -4 0 -20 -16 -36 -35z"/>
<path d="M2637 2022 c-20 -12 -27 -25 -27 -47 0 -42 31 -61 71 -45 23 10 29
18 29 44 -1 21 -8 37 -23 48 -21 15 -25 15 -50 0z"/>
<path d="M8290 2030 c0 -5 -7 -7 -15 -4 -12 5 -15 -6 -15 -66 l0 -71 55 -58
56 -58 38 13 c28 9 49 10 72 4 22 -7 43 -6 64 1 24 9 40 8 78 -5 64 -21 68
-21 52 11 -13 24 -13 29 2 37 11 6 24 4 37 -4 18 -11 18 -9 -3 14 -27 29 -52
33 -74 11 -8 -8 -17 -12 -19 -10 -2 3 -41 0 -85 -7 -74 -11 -83 -10 -119 8
-48 25 -87 94 -79 140 4 26 1 33 -20 42 -14 7 -25 8 -25 2z"/>
<path d="M3440 1961 c-16 -41 1 -71 41 -71 35 0 55 34 45 74 -5 22 -12 26 -40
26 -28 0 -36 -5 -46 -29z"/>
<path d="M5094 1982 c10 -16 66 -26 79 -13 8 8 7 11 -5 11 -8 0 -30 3 -48 7
-23 4 -31 3 -26 -5z"/>
<path d="M6759 1941 c-22 -17 -22 -21 -10 -45 16 -29 42 -40 71 -31 25 8 30
75 5 75 -8 0 -15 5 -15 10 0 16 -26 12 -51 -9z m29 -8 c-10 -2 -18 -9 -18 -15
0 -6 -3 -9 -6 -5 -10 10 6 27 24 26 15 -1 15 -2 0 -6z"/>
<path d="M4055 1921 c-3 -5 7 -11 22 -13 33 -4 43 -27 14 -35 -12 -3 -21 -12
-21 -19 0 -18 4 -17 40 1 29 15 31 31 7 63 -11 14 -53 16 -62 3z"/>
<path d="M6112 1912 c-21 -3 -57 -54 -46 -64 3 -3 -1 -17 -7 -32 -11 -23 -9
-29 11 -52 44 -46 76 -22 98 73 8 37 7 44 -12 61 -12 10 -31 16 -44 14z"/>
<path d="M4020 1892 c-34 -5 -60 -30 -60 -59 0 -18 9 -28 34 -38 19 -8 37 -19
41 -25 9 -14 58 -13 73 2 7 7 12 21 12 32 0 14 -3 17 -11 9 -5 -5 -20 -8 -33
-6 -18 4 -22 10 -18 33 5 38 -8 56 -38 52z"/>
<path d="M11163 1880 c-3 -11 -11 -20 -18 -20 -7 0 -16 -7 -19 -15 -3 -9 -19
-21 -36 -26 l-30 -11 5 -131 c2 -73 4 -157 5 -188 0 -51 2 -57 23 -61 43 -8
47 -1 47 85 l0 82 50 67 c28 36 76 90 107 118 l57 52 56 -6 c30 -4 72 -9 92
-12 l37 -6 -12 37 c-11 37 -11 37 -51 30 -59 -11 -98 -7 -118 12 -12 11 -21
13 -30 6 -8 -7 -33 -8 -68 -2 -83 12 -91 11 -97 -11z m66 -117 c-8 -10 -29
-35 -48 -55 -32 -36 -35 -37 -53 -22 -32 30 -23 58 25 76 23 9 53 17 66 17 21
1 22 -1 10 -16z"/>
<path d="M3606 1839 c-8 -12 -21 -19 -29 -16 -9 3 -17 -2 -20 -14 -7 -27 -27
-24 -27 4 0 32 -34 33 -49 1 -14 -32 -14 -34 3 -34 8 0 16 -5 18 -12 2 -6 14
-12 26 -13 12 -1 28 -9 35 -18 6 -9 23 -18 37 -22 53 -12 86 90 37 116 -16 9
-17 13 -6 20 9 6 10 9 2 9 -6 0 -19 -10 -27 -21z m44 -28 c0 -5 -9 -7 -20 -4
-11 3 -20 7 -20 9 0 2 9 4 20 4 11 0 20 -4 20 -9z"/>
<path d="M6903 1843 c-13 -2 -23 -8 -23 -13 0 -5 7 -7 15 -4 8 3 21 -1 30 -10
9 -8 23 -12 31 -9 14 5 15 3 5 -16 -7 -12 -11 -27 -8 -34 2 -6 11 4 20 22 13
26 14 36 4 52 -13 22 -32 26 -24 6 3 -8 -1 -14 -9 -14 -8 0 -13 6 -10 14 3 7
2 12 -2 12 -4 -1 -17 -4 -29 -6z"/>
<path d="M4210 1823 c-28 -20 -25 -80 4 -75 25 5 66 -17 66 -35 0 -11 4 -11
20 -1 13 8 20 24 20 43 0 25 -8 35 -44 57 -40 24 -46 25 -66 11z"/>
<path d="M3845 1818 c-11 -6 -21 -11 -22 -12 -1 -1 -4 -15 -8 -31 -4 -17 -3
-25 2 -19 4 5 27 19 49 30 38 19 40 21 23 32 -22 14 -19 14 -44 0z"/>
<path d="M4646 1804 c-9 -8 -16 -22 -16 -30 0 -8 0 -17 0 -21 0 -5 8 -8 18 -8
12 0 16 7 14 23 -2 12 2 22 7 22 6 0 11 -7 11 -15 0 -8 7 -15 15 -15 18 0 18
1 5 34 -11 30 -31 33 -54 10z"/>
<path d="M10348 1772 c-10 -2 -18 -7 -18 -12 0 -4 -11 -11 -25 -14 -24 -6 -85
-56 -85 -70 0 -3 8 -6 17 -6 13 0 14 -3 5 -12 -8 -8 -12 -49 -12 -120 l0 -108
75 0 c53 0 75 4 75 13 5 107 4 157 -3 157 -4 0 -5 26 -2 58 7 73 -4 119 -27
114z"/>
<path d="M3344 1729 c-52 -21 -66 -61 -35 -92 18 -19 24 -19 61 -8 28 8 44 20
50 37 15 38 12 50 -12 66 -21 13 -28 13 -64 -3z"/>
<path d="M4723 1742 c-15 -9 -19 -49 -8 -74 5 -14 2 -18 -13 -18 -12 0 -23 -4
-26 -9 -7 -10 60 -25 74 -16 6 3 10 -1 10 -9 0 -9 -4 -16 -10 -16 -5 0 -10
-10 -10 -21 0 -19 -4 -21 -32 -15 l-31 6 25 -23 c32 -30 93 -31 114 -2 8 10
14 13 14 7 0 -7 -10 -22 -21 -33 -17 -17 -19 -23 -8 -30 16 -9 15 -10 -33 -33
-21 -9 -38 -19 -38 -21 0 -3 30 -5 67 -5 63 0 65 1 50 18 -21 23 -21 32 -3 32
8 0 22 10 30 22 13 18 13 25 1 56 -15 35 -13 52 8 52 20 0 42 33 39 58 -4 29
-28 41 -81 38 -37 -2 -44 1 -52 21 -9 23 -41 31 -66 15z"/>
<path d="M5079 1727 c-17 -9 -25 -22 -27 -45 -3 -25 -8 -32 -24 -32 -20 0 -19
-2 6 -25 l27 -25 29 20 c15 11 33 20 39 20 6 0 11 9 11 19 0 11 2 25 5 33 2 7
-6 21 -19 30 -19 14 -27 14 -47 5z"/>
<path d="M4645 1720 c3 -5 8 -10 11 -10 2 0 4 5 4 10 0 6 -5 10 -11 10 -5 0
-7 -4 -4 -10z"/>
<path d="M3760 1700 c-37 -37 -14 -94 36 -88 35 4 53 48 33 84 -15 29 -42 31
-69 4z"/>
<path d="M4094 1689 c-14 -16 -15 -23 -6 -26 6 -3 12 -11 12 -19 0 -8 7 -14
15 -14 8 0 15 -5 15 -11 0 -5 -4 -7 -10 -4 -5 3 -10 1 -10 -4 0 -14 93 -14
106 -1 7 7 18 2 33 -14 20 -21 27 -23 52 -14 40 14 49 52 20 81 -18 18 -24 20
-39 9 -34 -24 -64 -33 -77 -22 -7 6 -15 7 -17 3 -3 -4 -3 -2 -2 5 2 7 -3 15
-12 19 -8 3 -13 12 -10 19 9 23 -48 17 -70 -7z"/>
<path d="M6544 1702 c-19 -12 -26 -50 -14 -72 8 -14 8 -25 2 -33 -18 -22 -2
-65 28 -76 24 -8 31 -6 47 12 11 12 17 32 15 45 -3 18 -10 22 -40 23 -31 2
-33 3 -9 6 18 3 32 14 39 29 21 46 -27 93 -68 66z"/>
<path d="M6976 1702 c-2 -4 -1 -14 5 -22 7 -12 9 -10 9 8 0 23 -5 28 -14 14z"/>
<path d="M5992 1648 c1 -66 20 -102 51 -92 27 8 47 32 47 57 0 11 -5 17 -12
14 -21 -7 -68 22 -68 43 0 10 -4 21 -9 25 -6 3 -10 -17 -9 -47z"/>
<path d="M6193 1653 c-7 -2 -13 -14 -12 -26 0 -21 1 -21 10 2 6 15 14 21 25
17 8 -3 12 -2 9 4 -7 11 -13 11 -32 3z"/>
<path d="M3895 1636 c-43 -33 -29 -116 20 -116 28 0 54 24 57 51 0 10 1 25 2
32 1 6 -4 11 -10 10 -7 -1 -11 5 -10 15 1 20 -36 25 -59 8z"/>
<path d="M6867 1592 c-25 -27 -21 -60 7 -73 27 -13 38 -39 25 -62 -6 -9 -5
-18 0 -21 13 -9 23 58 12 87 -8 21 -7 26 10 30 10 3 19 1 19 -5 0 -5 5 -6 10
-3 6 3 10 -3 10 -13 0 -11 7 -22 15 -26 11 -4 15 1 15 19 0 15 -7 26 -20 30
-11 3 -20 13 -20 20 0 15 -30 35 -53 35 -8 0 -21 -8 -30 -18z"/>
<path d="M3558 1592 c-19 -2 -29 -12 -37 -33 -12 -34 -2 -38 25 -8 12 13 27
19 41 16 13 -2 23 -1 23 3 0 15 -25 26 -52 22z"/>
<path d="M5738 1583 c7 -3 16 -2 19 1 4 3 -2 6 -13 5 -11 0 -14 -3 -6 -6z"/>
<path d="M5590 1565 c-7 -8 -10 -29 -8 -46 4 -22 0 -33 -11 -37 -19 -7 -31
-22 -31 -39 0 -9 17 -13 50 -13 51 0 57 4 41 29 -10 16 5 59 27 78 12 10 13
15 2 28 -16 19 -54 19 -70 0z"/>
<path d="M5700 1559 c0 -5 5 -7 10 -4 6 3 10 8 10 11 0 2 -4 4 -10 4 -5 0 -10
-5 -10 -11z"/>
<path d="M4665 1539 c-4 -6 -5 -12 -2 -15 2 -3 7 2 10 11 7 17 1 20 -8 4z"/>
<path d="M3015 1533 c-24 -6 -35 -21 -35 -49 0 -36 29 -51 103 -53 72 -2 80 6
57 50 -8 14 -17 18 -35 13 -18 -4 -27 0 -40 20 -10 14 -20 25 -24 25 -3 -1
-15 -4 -26 -6z"/>
<path d="M11206 1511 c-4 -6 1 -14 11 -19 38 -19 223 -64 239 -58 25 10 15 15
-97 45 -57 15 -114 31 -126 35 -12 4 -24 2 -27 -3z"/>
<path d="M4633 1499 c-9 -9 -6 -17 13 -32 29 -22 26 -34 -5 -17 -17 9 -21 8
-21 -5 0 -11 12 -15 51 -15 54 0 65 19 18 30 -17 4 -24 13 -23 28 1 24 -15 29
-33 11z"/>
<path d="M4720 1483 c0 -25 0 -26 20 -8 11 10 20 22 20 27 0 4 -9 8 -20 8 -15
0 -20 -7 -20 -27z"/>
<path d="M5990 1450 c-10 -19 -8 -20 40 -20 27 0 50 2 50 4 0 3 -7 12 -16 20
-22 22 -61 20 -74 -4z"/>
<path d="M3198 1443 c-8 -10 -1 -13 35 -13 37 0 45 3 41 15 -7 18 -60 17 -76
-2z"/>
<path d="M6976 1445 c-3 -8 -1 -15 4 -15 6 0 10 7 10 15 0 8 -2 15 -4 15 -2 0
-6 -7 -10 -15z"/>
<path d="M3679 1439 c-10 -6 -7 -9 14 -9 29 0 35 5 14 13 -8 3 -20 1 -28 -4z"/>
</g>
</svg>
