<?xml version="1.0" standalone="no"?>
<!DOCTYPE svg PUBLIC "-//W3C//DTD SVG 20010904//EN"
 "http://www.w3.org/TR/2001/REC-SVG-20010904/DTD/svg10.dtd">
<svg version="1.0" xmlns="http://www.w3.org/2000/svg"
 width="1462.000000pt" height="491.000000pt" viewBox="0 0 1462.000000 491.000000"
 preserveAspectRatio="xMidYMid meet">

<g transform="translate(0.000000,491.000000) scale(0.100000,-0.100000)"
fill="#000000" stroke="none">
<path d="M5837 3263 c568 -2 1498 -2 2065 0 568 1 104 2 -1032 2 -1136 0
-1600 -1 -1033 -2z"/>
<path d="M4794 3060 c0 -107 2 -151 3 -97 2 53 2 141 0 195 -1 53 -3 9 -3 -98z"/>
<path d="M4933 2983 c9 -2 25 -2 35 0 9 3 1 5 -18 5 -19 0 -27 -2 -17 -5z"/>
<path d="M5837 2853 c568 -2 1498 -2 2065 0 568 1 104 2 -1032 2 -1136 0
-1600 -1 -1033 -2z"/>
</g>
</svg>
