<?xml version="1.0" standalone="no"?>
<!DOCTYPE svg PUBLIC "-//W3C//DTD SVG 20010904//EN"
 "http://www.w3.org/TR/2001/REC-SVG-20010904/DTD/svg10.dtd">
<svg version="1.0" xmlns="http://www.w3.org/2000/svg"
 width="1464.000000pt" height="508.000000pt" viewBox="0 0 1464.000000 508.000000"
 preserveAspectRatio="xMidYMid meet">

<g transform="translate(0.000000,508.000000) scale(0.100000,-0.100000)"
fill="#000000" stroke="none">
<path d="M7184 757 c-2 -7 -3 -60 -2 -118 l3 -104 185 0 185 0 0 115 0 115
-183 3 c-145 2 -184 0 -188 -11z m361 -107 l0 -105 -177 -3 -178 -2 0 110 0
110 178 -2 177 -3 0 -105z"/>
<path d="M7270 692 c0 -5 -9 -12 -20 -15 -40 -10 -14 -73 27 -65 22 4 27 56 7
76 -8 7 -14 9 -14 4z"/>
<path d="M7331 653 c1 -27 3 -40 6 -30 2 9 13 17 24 17 11 0 22 7 25 15 8 20
-13 45 -37 45 -16 0 -19 -7 -18 -47z m39 12 c0 -8 -7 -15 -15 -15 -8 0 -15 7
-15 15 0 8 7 15 15 15 8 0 15 -7 15 -15z"/>
<path d="M7414 662 c19 -8 19 -9 -3 -15 -30 -7 -22 -32 10 -32 19 0 24 5 24
25 0 19 -6 26 -25 27 -21 2 -22 1 -6 -5z m16 -32 c0 -5 -4 -10 -10 -10 -5 0
-10 5 -10 10 0 6 5 10 10 10 6 0 10 -4 10 -10z"/>
<path d="M7461 643 c5 -14 8 -32 5 -40 -3 -7 -1 -13 4 -13 6 0 10 2 10 4 0 2
7 20 15 40 9 21 11 36 5 36 -5 0 -10 -7 -10 -15 0 -8 -4 -15 -10 -15 -5 0 -10
7 -10 15 0 8 -4 15 -10 15 -6 0 -6 -10 1 -27z"/>
<path d="M11424 757 c-2 -7 -3 -60 -2 -118 l3 -104 185 0 185 0 0 115 0 115
-183 3 c-145 2 -184 0 -188 -11z m107 -57 c26 -15 26 -66 -1 -80 -32 -17 -61
4 -58 43 3 45 22 56 59 37z m99 -26 c0 -17 -6 -28 -20 -31 -11 -3 -20 -9 -20
-14 0 -5 -4 -9 -10 -9 -5 0 -10 18 -10 40 0 38 2 40 30 40 26 0 30 -4 30 -26z
m58 -27 c3 -23 0 -27 -23 -27 -25 0 -28 11 -16 58 1 2 9 2 19 0 10 -2 18 -14
20 -31z m46 14 c4 13 10 19 12 12 6 -13 -22 -83 -33 -83 -4 0 -9 21 -10 48 -1
43 -1 45 11 23 l13 -23 7 23z"/>
<path d="M11493 663 c3 -31 19 -40 37 -18 10 12 10 18 0 30 -20 24 -39 18 -37
-12z"/>
<path d="M11590 676 c0 -9 7 -16 16 -16 17 0 14 22 -4 28 -7 2 -12 -3 -12 -12z"/>
<path d="M6664 747 c-2 -7 -3 -56 -2 -108 l3 -94 175 0 175 0 0 105 0 105
-173 3 c-137 2 -173 0 -178 -11z m310 -78 c-16 -18 -16 -20 0 -38 17 -19 15
-19 -133 -19 -83 0 -151 1 -151 3 0 1 7 19 15 39 l15 36 136 -1 c133 -1 135
-1 118 -20z"/>
<path d="M6723 658 c-9 -21 -8 -23 23 -25 26 -1 34 3 34 15 1 15 3 14 15 -2
15 -20 15 -20 30 0 8 10 14 24 14 29 0 6 -7 1 -15 -10 -14 -19 -16 -19 -25 -2
-14 24 -29 21 -30 -5 l0 -23 -11 23 c-6 12 -14 22 -18 22 -4 0 -11 -10 -17
-22z"/>
<path d="M6861 653 c2 -25 2 -25 6 -5 3 17 10 22 26 20 12 -2 22 -10 21 -18
-1 -9 7 -16 17 -16 10 0 15 4 12 9 -2 4 1 16 9 25 12 15 11 16 -4 4 -11 -9
-18 -10 -23 -2 -3 5 -19 10 -36 10 -25 0 -29 -3 -28 -27z"/>
<path d="M7894 698 c9 -12 16 -34 16 -48 0 -14 -7 -36 -16 -48 -14 -20 -14
-22 3 -22 39 0 64 14 78 41 27 50 -11 99 -76 99 -19 0 -19 -1 -5 -22z"/>
<path d="M8945 708 c-4 -9 -5 -37 -3 -64 2 -35 8 -50 19 -52 13 -2 15 6 11 55
-4 60 -17 88 -27 61z"/>
<path d="M9927 713 c-4 -3 -7 -21 -7 -40 0 -23 5 -33 15 -33 9 0 15 9 15 21 0
15 5 19 15 15 11 -4 15 1 15 19 0 20 -5 25 -23 25 -13 0 -27 -3 -30 -7z"/>
<path d="M9997 713 c-4 -3 -7 -15 -7 -25 0 -15 5 -18 19 -13 11 3 22 1 26 -5
3 -5 -1 -10 -9 -10 -9 0 -16 -4 -16 -10 0 -5 7 -10 16 -10 8 0 12 -5 9 -10 -4
-6 -15 -8 -26 -5 -15 5 -19 1 -19 -20 0 -23 4 -26 28 -23 26 3 27 5 30 71 3
65 2 67 -21 67 -13 0 -27 -3 -30 -7z"/>
<path d="M10465 695 c-14 -13 -25 -33 -25 -45 0 -26 43 -70 68 -70 34 0 65 34
65 70 0 22 -7 39 -22 52 -31 25 -57 23 -86 -7z"/>
<path d="M11046 708 c-3 -7 -7 -32 -10 -55 -5 -34 -3 -43 9 -43 8 0 15 -4 15
-10 0 -5 5 -10 10 -10 6 0 10 7 10 15 0 9 11 20 25 25 19 7 25 17 25 38 0 15
-5 33 -12 40 -16 16 -68 15 -72 0z"/>
<path d="M9369 683 c-12 -16 -12 -17 1 -7 8 7 24 14 35 17 19 4 19 5 -1 6 -12
0 -28 -7 -35 -16z"/>
<path d="M8842 678 c-13 -13 -17 -68 -5 -68 19 0 93 36 93 46 0 31 -63 47 -88
22z m58 -17 c0 -10 -42 -23 -49 -15 -7 6 20 24 37 24 6 0 12 -4 12 -9z"/>
<path d="M9025 680 c3 -5 12 -10 20 -10 8 0 18 -7 23 -16 7 -13 11 -14 17 -4
5 8 1 18 -10 27 -22 15 -59 18 -50 3z"/>
<path d="M9472 655 c0 -22 2 -33 5 -24 2 10 13 19 24 22 10 3 19 11 18 19 0
10 -2 10 -6 1 -7 -19 -31 -16 -36 5 -3 9 -5 -1 -5 -23z"/>
<path d="M7807 666 c-3 -8 1 -22 8 -33 13 -17 14 -16 15 15 0 33 -13 43 -23
18z"/>
<path d="M7850 650 c0 -18 4 -29 10 -25 6 3 10 15 10 25 0 10 -4 22 -10 25 -6
4 -10 -7 -10 -25z"/>
<path d="M8994 666 c-8 -20 -1 -61 10 -61 11 0 14 65 3 72 -4 2 -10 -2 -13
-11z"/>
<path d="M9558 643 c5 -21 7 -23 10 -9 2 10 0 22 -6 28 -6 6 -7 0 -4 -19z"/>
<path d="M8330 650 c0 -5 16 -10 35 -10 19 0 35 5 35 10 0 6 -16 10 -35 10
-19 0 -35 -4 -35 -10z"/>
<path d="M8460 650 c0 -5 16 -10 35 -10 19 0 35 5 35 10 0 6 -16 10 -35 10
-19 0 -35 -4 -35 -10z"/>
<path d="M9406 653 c5 -5 12 -12 15 -16 3 -5 9 -2 12 7 5 12 0 16 -15 16 -12
0 -17 -3 -12 -7z"/>
<path d="M9967 633 c-5 -7 -17 -13 -28 -13 -12 0 -19 -7 -19 -20 0 -15 7 -20
25 -20 27 0 39 17 33 47 -2 13 -6 15 -11 6z"/>
<path d="M9053 616 c-22 -10 -32 -36 -15 -36 13 0 52 30 52 41 0 11 -8 10 -37
-5z"/>
<path d="M8856 601 c-3 -5 1 -11 9 -15 18 -6 45 2 45 15 0 12 -47 12 -54 0z"/>
<path d="M12023 305 c9 -9 17 -25 17 -35 0 -18 17 -36 25 -28 13 13 34 78 25
78 -6 0 -16 -12 -22 -27 l-11 -28 -6 25 c-4 14 -15 27 -26 29 -17 3 -18 2 -2
-14z"/>
<path d="M12102 280 c-9 -38 1 -59 12 -22 2 9 7 27 11 40 3 12 2 22 -3 22 -5
0 -14 -18 -20 -40z"/>
<path d="M12143 304 c-4 -11 1 -22 12 -30 18 -13 18 -14 -3 -14 -12 0 -22 -4
-22 -10 0 -15 36 -12 49 4 9 10 8 16 -4 26 -19 16 -19 34 0 26 8 -3 15 -1 15
4 0 17 -40 11 -47 -6z"/>
<path d="M12220 316 c0 -2 -6 -19 -14 -38 l-15 -34 35 0 c33 0 34 1 28 31 -3
16 -8 33 -11 38 -4 7 -23 10 -23 3z m16 -43 c-10 -10 -19 5 -10 18 6 11 8 11
12 0 2 -7 1 -15 -2 -18z"/>
</g>
</svg>
